<svg width="926" height="473" viewBox="0 0 926 473" fill="none" xmlns="http://www.w3.org/2000/svg">
<g filter="url(#filter0_b_899_1633)">
<g clip-path="url(#clip0_899_1633)">
<rect width="963" height="536" rx="29" fill="#0C0C0C" fill-opacity="0.6"/>
<g filter="url(#filter1_f_899_1633)">
<ellipse cx="123" cy="90.5232" rx="230" ry="151.523" fill="#FF5E00" fill-opacity="0.4"/>
</g>
<g filter="url(#filter2_b_899_1633)">
<rect x="49" y="65" width="865" height="80" rx="16.7578" fill="url(#paint0_linear_899_1633)" fill-opacity="0.6"/>
<rect x="60.1947" y="74.4501" width="62.0959" height="62.0959" rx="10.4498" fill="#170E0A"/>
<rect x="60.1947" y="74.4501" width="62.0959" height="62.0959" rx="10.4498" stroke="#2C2C2C" stroke-width="1.44409" stroke-linecap="round"/>
<path d="M102.073 116.329L96.8387 111.094M99.6667 104.295C99.6667 109.612 95.3564 113.922 90.0394 113.922C84.7224 113.922 80.4121 109.612 80.4121 104.295C80.4121 98.9778 84.7224 94.6675 90.0394 94.6675C95.3564 94.6675 99.6667 98.9778 99.6667 104.295Z" stroke="#F5F5F5" stroke-width="2.88818" stroke-linecap="round" stroke-linejoin="round"/>
<rect width="3.49121" height="67.0312" transform="translate(142.562 71.9824)" fill="#170E0A"/>
<path d="M175.817 117.961C174.223 117.961 172.783 117.688 171.498 117.143C170.223 116.588 169.169 115.801 168.336 114.783C167.513 113.755 166.978 112.536 166.731 111.128L170.094 110.619C170.433 111.976 171.143 113.035 172.223 113.796C173.302 114.547 174.562 114.922 176.002 114.922C176.896 114.922 177.719 114.783 178.47 114.506C179.22 114.218 179.822 113.812 180.274 113.287C180.737 112.752 180.968 112.115 180.968 111.374C180.968 110.973 180.896 110.619 180.753 110.31C180.619 110.002 180.429 109.734 180.182 109.508C179.945 109.272 179.652 109.071 179.303 108.907C178.963 108.732 178.588 108.583 178.177 108.459L172.485 106.778C171.93 106.613 171.364 106.403 170.788 106.145C170.212 105.878 169.683 105.534 169.199 105.112C168.726 104.68 168.341 104.151 168.043 103.523C167.744 102.886 167.595 102.115 167.595 101.21C167.595 99.8419 167.945 98.6851 168.644 97.739C169.354 96.7827 170.31 96.0629 171.513 95.5796C172.716 95.086 174.063 94.8392 175.554 94.8392C177.056 94.8598 178.398 95.1271 179.58 95.6413C180.773 96.1554 181.76 96.8958 182.542 97.8624C183.334 98.8188 183.879 99.9808 184.177 101.348L180.722 101.935C180.567 101.102 180.238 100.387 179.734 99.7905C179.231 99.1838 178.614 98.7211 177.884 98.4023C177.153 98.0732 176.362 97.9036 175.508 97.8933C174.685 97.8727 173.93 97.9961 173.241 98.2635C172.562 98.5308 172.017 98.9062 171.606 99.3895C171.205 99.8728 171.004 100.428 171.004 101.055C171.004 101.672 171.184 102.171 171.544 102.552C171.904 102.932 172.346 103.235 172.87 103.462C173.405 103.678 173.935 103.857 174.459 104.001L178.562 105.158C179.076 105.302 179.657 105.498 180.305 105.744C180.963 105.981 181.596 106.315 182.202 106.747C182.819 107.179 183.328 107.755 183.729 108.475C184.131 109.184 184.331 110.079 184.331 111.159C184.331 112.279 184.105 113.267 183.652 114.12C183.2 114.963 182.578 115.673 181.786 116.249C181.004 116.814 180.1 117.241 179.071 117.529C178.043 117.817 176.958 117.961 175.817 117.961ZM193.464 117.961C191.809 117.961 190.353 117.601 189.099 116.881C187.855 116.151 186.883 115.138 186.184 113.842C185.495 112.536 185.15 111.025 185.15 109.308C185.15 107.487 185.49 105.909 186.168 104.572C186.857 103.235 187.814 102.202 189.037 101.472C190.261 100.742 191.685 100.377 193.31 100.377C195.007 100.377 196.451 100.773 197.644 101.564C198.837 102.346 199.727 103.462 200.313 104.912C200.909 106.361 201.146 108.084 201.022 110.079H197.798V108.907C197.778 106.973 197.408 105.544 196.688 104.618C195.978 103.693 194.893 103.23 193.433 103.23C191.819 103.23 190.605 103.739 189.793 104.757C188.981 105.775 188.575 107.246 188.575 109.169C188.575 110.999 188.981 112.418 189.793 113.426C190.605 114.423 191.778 114.922 193.31 114.922C194.318 114.922 195.187 114.696 195.917 114.243C196.657 113.781 197.233 113.123 197.644 112.269L200.806 113.272C200.158 114.763 199.176 115.92 197.86 116.742C196.544 117.555 195.079 117.961 193.464 117.961ZM187.526 110.079V107.565H199.418V110.079H187.526ZM207.344 117.961C206.11 117.961 205.076 117.735 204.243 117.282C203.41 116.819 202.778 116.213 202.346 115.462C201.924 114.701 201.714 113.868 201.714 112.963C201.714 112.12 201.863 111.38 202.161 110.742C202.459 110.104 202.901 109.565 203.488 109.122C204.074 108.67 204.793 108.305 205.647 108.027C206.387 107.811 207.225 107.621 208.161 107.457C209.097 107.292 210.079 107.138 211.107 106.994C212.146 106.85 213.174 106.706 214.192 106.562L213.02 107.21C213.041 105.904 212.763 104.937 212.187 104.31C211.621 103.672 210.645 103.354 209.256 103.354C208.382 103.354 207.58 103.559 206.85 103.971C206.12 104.372 205.611 105.04 205.323 105.976L202.315 105.05C202.727 103.621 203.508 102.485 204.66 101.641C205.822 100.798 207.364 100.377 209.287 100.377C210.778 100.377 212.074 100.634 213.174 101.148C214.285 101.652 215.097 102.454 215.611 103.554C215.879 104.099 216.043 104.675 216.105 105.282C216.167 105.888 216.197 106.541 216.197 107.241V117.498H213.344V113.688L213.899 114.182C213.21 115.457 212.331 116.408 211.262 117.035C210.202 117.652 208.896 117.961 207.344 117.961ZM207.914 115.323C208.83 115.323 209.616 115.164 210.274 114.845C210.932 114.516 211.462 114.099 211.863 113.596C212.264 113.092 212.526 112.567 212.65 112.022C212.825 111.529 212.922 110.973 212.943 110.356C212.974 109.739 212.989 109.246 212.989 108.876L214.038 109.261C213.02 109.416 212.094 109.554 211.262 109.678C210.429 109.801 209.673 109.925 208.994 110.048C208.326 110.161 207.729 110.3 207.205 110.464C206.763 110.619 206.367 110.804 206.017 111.02C205.678 111.236 205.405 111.498 205.2 111.806C205.004 112.115 204.907 112.49 204.907 112.932C204.907 113.364 205.015 113.765 205.231 114.135C205.446 114.495 205.776 114.783 206.218 114.999C206.66 115.215 207.225 115.323 207.914 115.323ZM218.66 117.498V100.839H221.529V104.881L221.128 104.356C221.334 103.821 221.601 103.333 221.93 102.891C222.259 102.438 222.64 102.068 223.072 101.78C223.493 101.472 223.961 101.235 224.475 101.071C225 100.896 225.535 100.793 226.08 100.762C226.625 100.721 227.149 100.747 227.653 100.839V103.863C227.108 103.719 226.501 103.678 225.833 103.739C225.175 103.801 224.568 104.012 224.013 104.372C223.488 104.711 223.072 105.122 222.763 105.606C222.465 106.089 222.249 106.629 222.115 107.225C221.982 107.811 221.915 108.433 221.915 109.092V117.498H218.66ZM235.873 117.961C234.166 117.961 232.716 117.58 231.523 116.819C230.33 116.058 229.415 115.015 228.777 113.688C228.15 112.362 227.831 110.855 227.821 109.169C227.831 107.451 228.16 105.935 228.808 104.618C229.456 103.292 230.382 102.253 231.585 101.503C232.788 100.752 234.233 100.377 235.919 100.377C237.739 100.377 239.292 100.829 240.577 101.734C241.873 102.639 242.727 103.878 243.138 105.451L239.93 106.377C239.611 105.441 239.086 104.716 238.356 104.202C237.636 103.678 236.809 103.415 235.873 103.415C234.814 103.415 233.945 103.667 233.266 104.171C232.587 104.665 232.084 105.343 231.754 106.207C231.425 107.071 231.256 108.058 231.245 109.169C231.256 110.886 231.646 112.274 232.418 113.333C233.199 114.393 234.351 114.922 235.873 114.922C236.911 114.922 237.75 114.686 238.387 114.213C239.035 113.729 239.528 113.04 239.868 112.146L243.138 112.917C242.593 114.542 241.693 115.791 240.439 116.665C239.184 117.529 237.662 117.961 235.873 117.961ZM256.43 117.498V109.308C256.43 108.66 256.373 107.996 256.26 107.318C256.157 106.629 255.951 105.991 255.643 105.405C255.345 104.819 254.918 104.346 254.363 103.986C253.818 103.626 253.103 103.446 252.219 103.446C251.643 103.446 251.098 103.544 250.584 103.739C250.069 103.924 249.617 104.228 249.226 104.649C248.846 105.071 248.542 105.626 248.316 106.315C248.1 107.004 247.992 107.842 247.992 108.829L245.987 108.074C245.987 106.562 246.27 105.23 246.835 104.079C247.401 102.917 248.213 102.012 249.273 101.364C250.332 100.716 251.612 100.392 253.113 100.392C254.265 100.392 255.232 100.577 256.013 100.947C256.795 101.318 257.427 101.806 257.91 102.413C258.404 103.009 258.779 103.662 259.036 104.372C259.293 105.081 259.468 105.775 259.561 106.454C259.653 107.133 259.7 107.729 259.7 108.243V117.498H256.43ZM244.722 117.498V95.2865H247.607V107.271H247.992V117.498H244.722ZM271.513 117.961C270.279 117.961 269.245 117.735 268.412 117.282C267.579 116.819 266.947 116.213 266.515 115.462C266.094 114.701 265.883 113.868 265.883 112.963C265.883 112.12 266.032 111.38 266.33 110.742C266.628 110.104 267.07 109.565 267.657 109.122C268.243 108.67 268.963 108.305 269.816 108.027C270.556 107.811 271.395 107.621 272.33 107.457C273.266 107.292 274.248 107.138 275.276 106.994C276.315 106.85 277.343 106.706 278.361 106.562L277.189 107.21C277.21 105.904 276.932 104.937 276.356 104.31C275.791 103.672 274.814 103.354 273.425 103.354C272.551 103.354 271.749 103.559 271.019 103.971C270.289 104.372 269.78 105.04 269.492 105.976L266.484 105.05C266.896 103.621 267.677 102.485 268.829 101.641C269.991 100.798 271.533 100.377 273.456 100.377C274.947 100.377 276.243 100.634 277.343 101.148C278.454 101.652 279.266 102.454 279.78 103.554C280.048 104.099 280.212 104.675 280.274 105.282C280.336 105.888 280.367 106.541 280.367 107.241V117.498H277.513V113.688L278.068 114.182C277.379 115.457 276.5 116.408 275.431 117.035C274.371 117.652 273.066 117.961 271.513 117.961ZM272.083 115.323C272.999 115.323 273.785 115.164 274.443 114.845C275.102 114.516 275.631 114.099 276.032 113.596C276.433 113.092 276.695 112.567 276.819 112.022C276.994 111.529 277.091 110.973 277.112 110.356C277.143 109.739 277.158 109.246 277.158 108.876L278.207 109.261C277.189 109.416 276.264 109.554 275.431 109.678C274.598 109.801 273.842 109.925 273.163 110.048C272.495 110.161 271.898 110.3 271.374 110.464C270.932 110.619 270.536 110.804 270.186 111.02C269.847 111.236 269.574 111.498 269.369 111.806C269.173 112.115 269.076 112.49 269.076 112.932C269.076 113.364 269.184 113.765 269.4 114.135C269.616 114.495 269.945 114.783 270.387 114.999C270.829 115.215 271.395 115.323 272.083 115.323ZM294.521 117.498V109.308C294.521 108.66 294.465 107.996 294.352 107.318C294.249 106.629 294.043 105.991 293.735 105.405C293.436 104.819 293.01 104.346 292.454 103.986C291.909 103.626 291.195 103.446 290.31 103.446C289.735 103.446 289.19 103.544 288.675 103.739C288.161 103.924 287.709 104.228 287.318 104.649C286.938 105.071 286.634 105.626 286.408 106.315C286.192 107.004 286.084 107.842 286.084 108.829L284.079 108.074C284.079 106.562 284.362 105.23 284.927 104.079C285.493 102.917 286.305 102.012 287.364 101.364C288.423 100.716 289.704 100.392 291.205 100.392C292.357 100.392 293.323 100.577 294.105 100.947C294.886 101.318 295.519 101.806 296.002 102.413C296.496 103.009 296.871 103.662 297.128 104.372C297.385 105.081 297.56 105.775 297.653 106.454C297.745 107.133 297.791 107.729 297.791 108.243V117.498H294.521ZM282.814 117.498V100.839H285.698V105.652H286.084V117.498H282.814ZM301.916 124.902L305.14 116.125L305.186 118.717L297.921 100.839H301.284L306.713 114.644H305.726L310.909 100.839H314.179L304.986 124.902H301.916ZM325.82 117.498C324.771 117.704 323.743 117.791 322.735 117.76C321.727 117.729 320.828 117.534 320.036 117.174C319.244 116.814 318.648 116.249 318.247 115.477C317.887 114.788 317.691 114.089 317.661 113.38C317.64 112.66 317.63 111.847 317.63 110.943V96.212H320.869V110.788C320.869 111.457 320.874 112.038 320.884 112.531C320.905 113.025 321.013 113.441 321.208 113.781C321.578 114.418 322.165 114.783 322.967 114.876C323.779 114.958 324.73 114.922 325.82 114.768V117.498ZM314.437 103.431V100.839H325.82V103.431H314.437ZM339.482 117.498V109.308C339.482 108.66 339.425 107.996 339.312 107.318C339.209 106.629 339.004 105.991 338.695 105.405C338.397 104.819 337.97 104.346 337.415 103.986C336.87 103.626 336.155 103.446 335.271 103.446C334.695 103.446 334.15 103.544 333.636 103.739C333.122 103.924 332.669 104.228 332.279 104.649C331.898 105.071 331.595 105.626 331.368 106.315C331.153 107.004 331.045 107.842 331.045 108.829L329.039 108.074C329.039 106.562 329.322 105.23 329.888 104.079C330.453 102.917 331.266 102.012 332.325 101.364C333.384 100.716 334.664 100.392 336.166 100.392C337.317 100.392 338.284 100.577 339.065 100.947C339.847 101.318 340.479 101.806 340.963 102.413C341.456 103.009 341.832 103.662 342.089 104.372C342.346 105.081 342.521 105.775 342.613 106.454C342.706 107.133 342.752 107.729 342.752 108.243V117.498H339.482ZM327.775 117.498V95.2865H330.659V107.271H331.045V117.498H327.775ZM345.536 98.1092V94.978H348.759V98.1092H345.536ZM345.536 117.498V100.839H348.759V117.498H345.536ZM363.541 117.498V109.308C363.541 108.66 363.484 107.996 363.371 107.318C363.268 106.629 363.063 105.991 362.754 105.405C362.456 104.819 362.029 104.346 361.474 103.986C360.929 103.626 360.214 103.446 359.33 103.446C358.754 103.446 358.209 103.544 357.695 103.739C357.181 103.924 356.728 104.228 356.337 104.649C355.957 105.071 355.654 105.626 355.427 106.315C355.211 107.004 355.103 107.842 355.103 108.829L353.098 108.074C353.098 106.562 353.381 105.23 353.947 104.079C354.512 102.917 355.325 102.012 356.384 101.364C357.443 100.716 358.723 100.392 360.224 100.392C361.376 100.392 362.343 100.577 363.124 100.947C363.906 101.318 364.538 101.806 365.022 102.413C365.515 103.009 365.89 103.662 366.148 104.372C366.405 105.081 366.579 105.775 366.672 106.454C366.764 107.133 366.811 107.729 366.811 108.243V117.498H363.541ZM351.833 117.498V100.839H354.718V105.652H355.103V117.498H351.833ZM376.15 125.365C375.255 125.365 374.386 125.226 373.543 124.948C372.71 124.671 371.949 124.259 371.26 123.714C370.571 123.179 370.001 122.516 369.548 121.724L372.525 120.213C372.885 120.922 373.399 121.442 374.068 121.771C374.736 122.1 375.44 122.264 376.181 122.264C377.096 122.264 377.877 122.1 378.525 121.771C379.173 121.452 379.662 120.969 379.991 120.321C380.33 119.673 380.495 118.871 380.484 117.915V113.256H380.87V100.839H383.723V117.945C383.723 118.388 383.708 118.809 383.677 119.21C383.646 119.611 383.59 120.012 383.508 120.413C383.271 121.534 382.819 122.46 382.15 123.19C381.492 123.92 380.649 124.465 379.62 124.825C378.602 125.185 377.446 125.365 376.15 125.365ZM375.903 117.961C374.35 117.961 373.008 117.575 371.877 116.804C370.756 116.033 369.888 114.984 369.271 113.657C368.664 112.32 368.36 110.819 368.36 109.153C368.36 107.477 368.669 105.981 369.286 104.665C369.903 103.338 370.777 102.294 371.908 101.534C373.05 100.762 374.402 100.377 375.965 100.377C377.538 100.377 378.86 100.762 379.929 101.534C381.009 102.294 381.821 103.338 382.366 104.665C382.921 105.991 383.199 107.487 383.199 109.153C383.199 110.819 382.921 112.315 382.366 113.642C381.811 114.968 380.993 116.022 379.914 116.804C378.834 117.575 377.497 117.961 375.903 117.961ZM376.35 115.046C377.41 115.046 378.273 114.794 378.942 114.29C379.61 113.786 380.099 113.092 380.407 112.207C380.716 111.323 380.87 110.305 380.87 109.153C380.87 108.002 380.71 106.984 380.392 106.099C380.083 105.215 379.6 104.526 378.942 104.032C378.294 103.539 377.466 103.292 376.458 103.292C375.389 103.292 374.51 103.554 373.821 104.079C373.132 104.603 372.618 105.307 372.278 106.192C371.949 107.076 371.785 108.063 371.785 109.153C371.785 110.254 371.949 111.251 372.278 112.146C372.618 113.03 373.122 113.734 373.79 114.259C374.469 114.783 375.322 115.046 376.35 115.046Z" fill="black"/>
</g>
</g>
<rect x="0.5" y="0.5" width="962" height="535" rx="28.5" stroke="url(#paint1_linear_899_1633)"/>
</g>
<defs>
<filter id="filter0_b_899_1633" x="-812" y="-812" width="2587" height="2160" filterUnits="userSpaceOnUse" color-interpolation-filters="sRGB">
<feFlood flood-opacity="0" result="BackgroundImageFix"/>
<feGaussianBlur in="BackgroundImageFix" stdDeviation="406"/>
<feComposite in2="SourceAlpha" operator="in" result="effect1_backgroundBlur_899_1633"/>
<feBlend mode="normal" in="SourceGraphic" in2="effect1_backgroundBlur_899_1633" result="shape"/>
</filter>
<filter id="filter1_f_899_1633" x="-331.898" y="-285.898" width="909.796" height="752.842" filterUnits="userSpaceOnUse" color-interpolation-filters="sRGB">
<feFlood flood-opacity="0" result="BackgroundImageFix"/>
<feBlend mode="normal" in="SourceGraphic" in2="BackgroundImageFix" result="shape"/>
<feGaussianBlur stdDeviation="112.449" result="effect1_foregroundBlur_899_1633"/>
</filter>
<filter id="filter2_b_899_1633" x="-194.8" y="-178.8" width="1352.6" height="567.6" filterUnits="userSpaceOnUse" color-interpolation-filters="sRGB">
<feFlood flood-opacity="0" result="BackgroundImageFix"/>
<feGaussianBlur in="BackgroundImageFix" stdDeviation="121.9"/>
<feComposite in2="SourceAlpha" operator="in" result="effect1_backgroundBlur_899_1633"/>
<feBlend mode="normal" in="SourceGraphic" in2="effect1_backgroundBlur_899_1633" result="shape"/>
</filter>
<linearGradient id="paint0_linear_899_1633" x1="70" y1="65" x2="914" y2="130.5" gradientUnits="userSpaceOnUse">
<stop stop-color="#F7EEE3"/>
<stop offset="1" stop-color="#0C0C0C"/>
</linearGradient>
<linearGradient id="paint1_linear_899_1633" x1="16" y1="19.5" x2="481.5" y2="536" gradientUnits="userSpaceOnUse">
<stop stop-color="white"/>
<stop offset="1" stop-color="#0C0C0C"/>
</linearGradient>
<clipPath id="clip0_899_1633">
<rect width="963" height="536" rx="29" fill="white"/>
</clipPath>
</defs>
</svg>
