<svg width="963" height="536" viewBox="0 0 963 536" fill="none" xmlns="http://www.w3.org/2000/svg">
<g filter="url(#filter0_b_987_1531)">
<g clip-path="url(#clip0_987_1531)">
<rect width="963" height="536" rx="29" fill="#0C0C0C" fill-opacity="0.6"/>
<g filter="url(#filter1_f_987_1531)">
<ellipse cx="123" cy="90.5232" rx="230" ry="151.523" fill="#FF5E00" fill-opacity="0.4"/>
</g>
<g filter="url(#filter2_b_987_1531)">
<rect x="49" y="65" width="865" height="80" rx="16.7578" fill="url(#paint0_linear_987_1531)" fill-opacity="0.6"/>
<rect x="60.1947" y="74.4501" width="62.0959" height="62.0959" rx="10.4498" fill="#170E0A"/>
<rect x="60.1947" y="74.4501" width="62.0959" height="62.0959" rx="10.4498" stroke="#2C2C2C" stroke-width="1.44409" stroke-linecap="round"/>
<path d="M102.073 116.329L96.8387 111.094M99.6667 104.295C99.6667 109.612 95.3564 113.922 90.0394 113.922C84.7224 113.922 80.4121 109.612 80.4121 104.295C80.4121 98.9778 84.7224 94.6675 90.0394 94.6675C95.3564 94.6675 99.6667 98.9778 99.6667 104.295Z" stroke="#F5F5F5" stroke-width="2.88818" stroke-linecap="round" stroke-linejoin="round"/>
<rect width="3.49121" height="67.0312" transform="translate(142.562 71.9824)" fill="#170E0A"/>
<path d="M175.817 117.961C174.223 117.961 172.783 117.688 171.498 117.143C170.223 116.588 169.169 115.801 168.336 114.783C167.513 113.755 166.978 112.536 166.731 111.128L170.094 110.619C170.433 111.976 171.143 113.035 172.223 113.796C173.302 114.547 174.562 114.922 176.002 114.922C176.896 114.922 177.719 114.783 178.47 114.506C179.22 114.218 179.822 113.812 180.274 113.287C180.737 112.752 180.968 112.115 180.968 111.374C180.968 110.973 180.896 110.619 180.753 110.31C180.619 110.002 180.429 109.734 180.182 109.508C179.945 109.272 179.652 109.071 179.303 108.907C178.963 108.732 178.588 108.583 178.177 108.459L172.485 106.778C171.93 106.613 171.364 106.403 170.788 106.145C170.212 105.878 169.683 105.534 169.199 105.112C168.726 104.68 168.341 104.151 168.043 103.523C167.744 102.886 167.595 102.115 167.595 101.21C167.595 99.8419 167.945 98.6851 168.644 97.739C169.354 96.7827 170.31 96.0629 171.513 95.5796C172.716 95.086 174.063 94.8392 175.554 94.8392C177.056 94.8598 178.398 95.1271 179.58 95.6413C180.773 96.1554 181.76 96.8958 182.542 97.8624C183.334 98.8188 183.879 99.9808 184.177 101.348L180.722 101.935C180.567 101.102 180.238 100.387 179.734 99.7905C179.231 99.1838 178.614 98.7211 177.884 98.4023C177.153 98.0732 176.362 97.9036 175.508 97.8933C174.685 97.8727 173.93 97.9961 173.241 98.2635C172.562 98.5308 172.017 98.9062 171.606 99.3895C171.205 99.8728 171.004 100.428 171.004 101.055C171.004 101.672 171.184 102.171 171.544 102.552C171.904 102.932 172.346 103.235 172.87 103.462C173.405 103.678 173.935 103.857 174.459 104.001L178.562 105.158C179.076 105.302 179.657 105.498 180.305 105.744C180.963 105.981 181.596 106.315 182.202 106.747C182.819 107.179 183.328 107.755 183.729 108.475C184.131 109.184 184.331 110.079 184.331 111.159C184.331 112.279 184.105 113.267 183.652 114.12C183.2 114.963 182.578 115.673 181.786 116.249C181.004 116.814 180.1 117.241 179.071 117.529C178.043 117.817 176.958 117.961 175.817 117.961ZM193.464 117.961C191.809 117.961 190.353 117.601 189.099 116.881C187.855 116.151 186.883 115.138 186.184 113.842C185.495 112.536 185.15 111.025 185.15 109.308C185.15 107.487 185.49 105.909 186.168 104.572C186.857 103.235 187.814 102.202 189.037 101.472C190.261 100.742 191.685 100.377 193.31 100.377C195.007 100.377 196.451 100.773 197.644 101.564C198.837 102.346 199.727 103.462 200.313 104.912C200.909 106.361 201.146 108.084 201.022 110.079H197.798V108.907C197.778 106.973 197.408 105.544 196.688 104.618C195.978 103.693 194.893 103.23 193.433 103.23C191.819 103.23 190.605 103.739 189.793 104.757C188.981 105.775 188.575 107.246 188.575 109.169C188.575 110.999 188.981 112.418 189.793 113.426C190.605 114.423 191.778 114.922 193.31 114.922C194.318 114.922 195.187 114.696 195.917 114.243C196.657 113.781 197.233 113.123 197.644 112.269L200.806 113.272C200.158 114.763 199.176 115.92 197.86 116.742C196.544 117.555 195.079 117.961 193.464 117.961ZM187.526 110.079V107.565H199.418V110.079H187.526ZM207.344 117.961C206.11 117.961 205.076 117.735 204.243 117.282C203.41 116.819 202.778 116.213 202.346 115.462C201.924 114.701 201.714 113.868 201.714 112.963C201.714 112.12 201.863 111.38 202.161 110.742C202.459 110.104 202.901 109.565 203.488 109.122C204.074 108.67 204.793 108.305 205.647 108.027C206.387 107.811 207.225 107.621 208.161 107.457C209.097 107.292 210.079 107.138 211.107 106.994C212.146 106.85 213.174 106.706 214.192 106.562L213.02 107.21C213.041 105.904 212.763 104.937 212.187 104.31C211.621 103.672 210.645 103.354 209.256 103.354C208.382 103.354 207.58 103.559 206.85 103.971C206.12 104.372 205.611 105.04 205.323 105.976L202.315 105.05C202.727 103.621 203.508 102.485 204.66 101.641C205.822 100.798 207.364 100.377 209.287 100.377C210.778 100.377 212.074 100.634 213.174 101.148C214.285 101.652 215.097 102.454 215.611 103.554C215.879 104.099 216.043 104.675 216.105 105.282C216.167 105.888 216.197 106.541 216.197 107.241V117.498H213.344V113.688L213.899 114.182C213.21 115.457 212.331 116.408 211.262 117.035C210.202 117.652 208.896 117.961 207.344 117.961ZM207.914 115.323C208.83 115.323 209.616 115.164 210.274 114.845C210.932 114.516 211.462 114.099 211.863 113.596C212.264 113.092 212.526 112.567 212.65 112.022C212.825 111.529 212.922 110.973 212.943 110.356C212.974 109.739 212.989 109.246 212.989 108.876L214.038 109.261C213.02 109.416 212.094 109.554 211.262 109.678C210.429 109.801 209.673 109.925 208.994 110.048C208.326 110.161 207.729 110.3 207.205 110.464C206.763 110.619 206.367 110.804 206.017 111.02C205.678 111.236 205.405 111.498 205.2 111.806C205.004 112.115 204.907 112.49 204.907 112.932C204.907 113.364 205.015 113.765 205.231 114.135C205.446 114.495 205.776 114.783 206.218 114.999C206.66 115.215 207.225 115.323 207.914 115.323ZM218.66 117.498V100.839H221.529V104.881L221.128 104.356C221.334 103.821 221.601 103.333 221.93 102.891C222.259 102.438 222.64 102.068 223.072 101.78C223.493 101.472 223.961 101.235 224.475 101.071C225 100.896 225.535 100.793 226.08 100.762C226.625 100.721 227.149 100.747 227.653 100.839V103.863C227.108 103.719 226.501 103.678 225.833 103.739C225.175 103.801 224.568 104.012 224.013 104.372C223.488 104.711 223.072 105.122 222.763 105.606C222.465 106.089 222.249 106.629 222.115 107.225C221.982 107.811 221.915 108.433 221.915 109.092V117.498H218.66ZM235.873 117.961C234.166 117.961 232.716 117.58 231.523 116.819C230.33 116.058 229.415 115.015 228.777 113.688C228.15 112.362 227.831 110.855 227.821 109.169C227.831 107.451 228.16 105.935 228.808 104.618C229.456 103.292 230.382 102.253 231.585 101.503C232.788 100.752 234.233 100.377 235.919 100.377C237.739 100.377 239.292 100.829 240.577 101.734C241.873 102.639 242.727 103.878 243.138 105.451L239.93 106.377C239.611 105.441 239.086 104.716 238.356 104.202C237.636 103.678 236.809 103.415 235.873 103.415C234.814 103.415 233.945 103.667 233.266 104.171C232.587 104.665 232.084 105.343 231.754 106.207C231.425 107.071 231.256 108.058 231.245 109.169C231.256 110.886 231.646 112.274 232.418 113.333C233.199 114.393 234.351 114.922 235.873 114.922C236.911 114.922 237.75 114.686 238.387 114.213C239.035 113.729 239.528 113.04 239.868 112.146L243.138 112.917C242.593 114.542 241.693 115.791 240.439 116.665C239.184 117.529 237.662 117.961 235.873 117.961ZM256.43 117.498V109.308C256.43 108.66 256.373 107.996 256.26 107.318C256.157 106.629 255.951 105.991 255.643 105.405C255.345 104.819 254.918 104.346 254.363 103.986C253.818 103.626 253.103 103.446 252.219 103.446C251.643 103.446 251.098 103.544 250.584 103.739C250.069 103.924 249.617 104.228 249.226 104.649C248.846 105.071 248.542 105.626 248.316 106.315C248.1 107.004 247.992 107.842 247.992 108.829L245.987 108.074C245.987 106.562 246.27 105.23 246.835 104.079C247.401 102.917 248.213 102.012 249.273 101.364C250.332 100.716 251.612 100.392 253.113 100.392C254.265 100.392 255.232 100.577 256.013 100.947C256.795 101.318 257.427 101.806 257.91 102.413C258.404 103.009 258.779 103.662 259.036 104.372C259.293 105.081 259.468 105.775 259.561 106.454C259.653 107.133 259.7 107.729 259.7 108.243V117.498H256.43ZM244.722 117.498V95.2865H247.607V107.271H247.992V117.498H244.722ZM271.513 117.961C270.279 117.961 269.245 117.735 268.412 117.282C267.579 116.819 266.947 116.213 266.515 115.462C266.094 114.701 265.883 113.868 265.883 112.963C265.883 112.12 266.032 111.38 266.33 110.742C266.628 110.104 267.07 109.565 267.657 109.122C268.243 108.67 268.963 108.305 269.816 108.027C270.556 107.811 271.395 107.621 272.33 107.457C273.266 107.292 274.248 107.138 275.276 106.994C276.315 106.85 277.343 106.706 278.361 106.562L277.189 107.21C277.21 105.904 276.932 104.937 276.356 104.31C275.791 103.672 274.814 103.354 273.425 103.354C272.551 103.354 271.749 103.559 271.019 103.971C270.289 104.372 269.78 105.04 269.492 105.976L266.484 105.05C266.896 103.621 267.677 102.485 268.829 101.641C269.991 100.798 271.533 100.377 273.456 100.377C274.947 100.377 276.243 100.634 277.343 101.148C278.454 101.652 279.266 102.454 279.78 103.554C280.048 104.099 280.212 104.675 280.274 105.282C280.336 105.888 280.367 106.541 280.367 107.241V117.498H277.513V113.688L278.068 114.182C277.379 115.457 276.5 116.408 275.431 117.035C274.371 117.652 273.066 117.961 271.513 117.961ZM272.083 115.323C272.999 115.323 273.785 115.164 274.443 114.845C275.102 114.516 275.631 114.099 276.032 113.596C276.433 113.092 276.695 112.567 276.819 112.022C276.994 111.529 277.091 110.973 277.112 110.356C277.143 109.739 277.158 109.246 277.158 108.876L278.207 109.261C277.189 109.416 276.264 109.554 275.431 109.678C274.598 109.801 273.842 109.925 273.163 110.048C272.495 110.161 271.898 110.3 271.374 110.464C270.932 110.619 270.536 110.804 270.186 111.02C269.847 111.236 269.574 111.498 269.369 111.806C269.173 112.115 269.076 112.49 269.076 112.932C269.076 113.364 269.184 113.765 269.4 114.135C269.616 114.495 269.945 114.783 270.387 114.999C270.829 115.215 271.395 115.323 272.083 115.323ZM294.521 117.498V109.308C294.521 108.66 294.465 107.996 294.352 107.318C294.249 106.629 294.043 105.991 293.735 105.405C293.436 104.819 293.01 104.346 292.454 103.986C291.909 103.626 291.195 103.446 290.31 103.446C289.735 103.446 289.19 103.544 288.675 103.739C288.161 103.924 287.709 104.228 287.318 104.649C286.938 105.071 286.634 105.626 286.408 106.315C286.192 107.004 286.084 107.842 286.084 108.829L284.079 108.074C284.079 106.562 284.362 105.23 284.927 104.079C285.493 102.917 286.305 102.012 287.364 101.364C288.423 100.716 289.704 100.392 291.205 100.392C292.357 100.392 293.323 100.577 294.105 100.947C294.886 101.318 295.519 101.806 296.002 102.413C296.496 103.009 296.871 103.662 297.128 104.372C297.385 105.081 297.56 105.775 297.653 106.454C297.745 107.133 297.791 107.729 297.791 108.243V117.498H294.521ZM282.814 117.498V100.839H285.698V105.652H286.084V117.498H282.814ZM301.916 124.902L305.14 116.125L305.186 118.717L297.921 100.839H301.284L306.713 114.644H305.726L310.909 100.839H314.179L304.986 124.902H301.916ZM325.82 117.498C324.771 117.704 323.743 117.791 322.735 117.76C321.727 117.729 320.828 117.534 320.036 117.174C319.244 116.814 318.648 116.249 318.247 115.477C317.887 114.788 317.691 114.089 317.661 113.38C317.64 112.66 317.63 111.847 317.63 110.943V96.212H320.869V110.788C320.869 111.457 320.874 112.038 320.884 112.531C320.905 113.025 321.013 113.441 321.208 113.781C321.578 114.418 322.165 114.783 322.967 114.876C323.779 114.958 324.73 114.922 325.82 114.768V117.498ZM314.437 103.431V100.839H325.82V103.431H314.437ZM339.482 117.498V109.308C339.482 108.66 339.425 107.996 339.312 107.318C339.209 106.629 339.004 105.991 338.695 105.405C338.397 104.819 337.97 104.346 337.415 103.986C336.87 103.626 336.155 103.446 335.271 103.446C334.695 103.446 334.15 103.544 333.636 103.739C333.122 103.924 332.669 104.228 332.279 104.649C331.898 105.071 331.595 105.626 331.368 106.315C331.153 107.004 331.045 107.842 331.045 108.829L329.039 108.074C329.039 106.562 329.322 105.23 329.888 104.079C330.453 102.917 331.266 102.012 332.325 101.364C333.384 100.716 334.664 100.392 336.166 100.392C337.317 100.392 338.284 100.577 339.065 100.947C339.847 101.318 340.479 101.806 340.963 102.413C341.456 103.009 341.832 103.662 342.089 104.372C342.346 105.081 342.521 105.775 342.613 106.454C342.706 107.133 342.752 107.729 342.752 108.243V117.498H339.482ZM327.775 117.498V95.2865H330.659V107.271H331.045V117.498H327.775ZM345.536 98.1092V94.978H348.759V98.1092H345.536ZM345.536 117.498V100.839H348.759V117.498H345.536ZM363.541 117.498V109.308C363.541 108.66 363.484 107.996 363.371 107.318C363.268 106.629 363.063 105.991 362.754 105.405C362.456 104.819 362.029 104.346 361.474 103.986C360.929 103.626 360.214 103.446 359.33 103.446C358.754 103.446 358.209 103.544 357.695 103.739C357.181 103.924 356.728 104.228 356.337 104.649C355.957 105.071 355.654 105.626 355.427 106.315C355.211 107.004 355.103 107.842 355.103 108.829L353.098 108.074C353.098 106.562 353.381 105.23 353.947 104.079C354.512 102.917 355.325 102.012 356.384 101.364C357.443 100.716 358.723 100.392 360.224 100.392C361.376 100.392 362.343 100.577 363.124 100.947C363.906 101.318 364.538 101.806 365.022 102.413C365.515 103.009 365.89 103.662 366.148 104.372C366.405 105.081 366.579 105.775 366.672 106.454C366.764 107.133 366.811 107.729 366.811 108.243V117.498H363.541ZM351.833 117.498V100.839H354.718V105.652H355.103V117.498H351.833ZM376.15 125.365C375.255 125.365 374.386 125.226 373.543 124.948C372.71 124.671 371.949 124.259 371.26 123.714C370.571 123.179 370.001 122.516 369.548 121.724L372.525 120.213C372.885 120.922 373.399 121.442 374.068 121.771C374.736 122.1 375.44 122.264 376.181 122.264C377.096 122.264 377.877 122.1 378.525 121.771C379.173 121.452 379.662 120.969 379.991 120.321C380.33 119.673 380.495 118.871 380.484 117.915V113.256H380.87V100.839H383.723V117.945C383.723 118.388 383.708 118.809 383.677 119.21C383.646 119.611 383.59 120.012 383.508 120.413C383.271 121.534 382.819 122.46 382.15 123.19C381.492 123.92 380.649 124.465 379.62 124.825C378.602 125.185 377.446 125.365 376.15 125.365ZM375.903 117.961C374.35 117.961 373.008 117.575 371.877 116.804C370.756 116.033 369.888 114.984 369.271 113.657C368.664 112.32 368.36 110.819 368.36 109.153C368.36 107.477 368.669 105.981 369.286 104.665C369.903 103.338 370.777 102.294 371.908 101.534C373.05 100.762 374.402 100.377 375.965 100.377C377.538 100.377 378.86 100.762 379.929 101.534C381.009 102.294 381.821 103.338 382.366 104.665C382.921 105.991 383.199 107.487 383.199 109.153C383.199 110.819 382.921 112.315 382.366 113.642C381.811 114.968 380.993 116.022 379.914 116.804C378.834 117.575 377.497 117.961 375.903 117.961ZM376.35 115.046C377.41 115.046 378.273 114.794 378.942 114.29C379.61 113.786 380.099 113.092 380.407 112.207C380.716 111.323 380.87 110.305 380.87 109.153C380.87 108.002 380.71 106.984 380.392 106.099C380.083 105.215 379.6 104.526 378.942 104.032C378.294 103.539 377.466 103.292 376.458 103.292C375.389 103.292 374.51 103.554 373.821 104.079C373.132 104.603 372.618 105.307 372.278 106.192C371.949 107.076 371.785 108.063 371.785 109.153C371.785 110.254 371.949 111.251 372.278 112.146C372.618 113.03 373.122 113.734 373.79 114.259C374.469 114.783 375.322 115.046 376.35 115.046Z" fill="black"/>
</g>
<path d="M83.2799 216.078C83.7705 215.588 83.7705 214.792 83.2799 214.302L75.2845 206.306C74.7938 205.815 73.9984 205.815 73.5077 206.306C73.0171 206.797 73.0171 207.592 73.5077 208.083L80.6148 215.19L73.5077 222.297C73.0171 222.788 73.0171 223.583 73.5077 224.074C73.9984 224.564 74.7938 224.564 75.2845 224.074L83.2799 216.078ZM48.3765 198.811V210.51H50.8892V198.811H48.3765ZM54.3126 216.446H82.3915V213.934H54.3126V216.446ZM48.3765 210.51C48.3765 213.789 51.0342 216.446 54.3126 216.446V213.934C52.4219 213.934 50.8892 212.401 50.8892 210.51H48.3765Z" fill="#F7EEE3"/>
<path d="M113.863 223.62C111.727 223.62 109.797 223.255 108.074 222.524C106.365 221.78 104.952 220.726 103.835 219.361C102.733 217.983 102.016 216.349 101.685 214.461L106.193 213.778C106.647 215.598 107.599 217.018 109.046 218.038C110.493 219.044 112.182 219.547 114.111 219.547C115.311 219.547 116.413 219.361 117.42 218.989C118.426 218.603 119.232 218.058 119.839 217.355C120.459 216.639 120.769 215.784 120.769 214.792C120.769 214.254 120.673 213.778 120.48 213.365C120.301 212.951 120.046 212.593 119.715 212.29C119.398 211.973 119.005 211.704 118.536 211.483C118.081 211.249 117.578 211.049 117.027 210.884L109.397 208.63C108.653 208.41 107.895 208.127 107.123 207.782C106.351 207.424 105.641 206.962 104.993 206.397C104.359 205.818 103.842 205.108 103.443 204.267C103.043 203.413 102.843 202.379 102.843 201.166C102.843 199.333 103.312 197.782 104.249 196.514C105.2 195.232 106.482 194.267 108.095 193.619C109.707 192.958 111.513 192.627 113.512 192.627C115.524 192.654 117.323 193.013 118.908 193.702C120.507 194.391 121.831 195.384 122.878 196.679C123.94 197.961 124.67 199.519 125.07 201.352L120.438 202.138C120.232 201.021 119.791 200.063 119.115 199.264C118.44 198.451 117.613 197.83 116.634 197.403C115.655 196.962 114.594 196.734 113.45 196.721C112.347 196.693 111.334 196.859 110.41 197.217C109.501 197.575 108.77 198.078 108.219 198.726C107.681 199.374 107.412 200.118 107.412 200.959C107.412 201.786 107.654 202.455 108.136 202.965C108.619 203.475 109.211 203.881 109.914 204.185C110.631 204.474 111.341 204.715 112.044 204.908L117.544 206.459C118.233 206.652 119.012 206.914 119.88 207.245C120.762 207.562 121.61 208.01 122.423 208.589C123.25 209.168 123.933 209.94 124.47 210.904C125.008 211.856 125.277 213.055 125.277 214.502C125.277 216.005 124.973 217.328 124.367 218.472C123.76 219.602 122.926 220.553 121.865 221.325C120.817 222.083 119.604 222.655 118.226 223.041C116.848 223.427 115.393 223.62 113.863 223.62ZM136.03 223.6C134.487 223.6 133.191 223.351 132.143 222.855C131.096 222.359 130.241 221.711 129.579 220.912C128.932 220.098 128.435 219.216 128.091 218.265C127.746 217.314 127.512 216.384 127.388 215.474C127.264 214.564 127.202 213.765 127.202 213.075V200.67H131.585V211.649C131.585 212.517 131.654 213.413 131.792 214.337C131.943 215.246 132.219 216.094 132.619 216.88C133.032 217.666 133.604 218.3 134.335 218.782C135.079 219.265 136.044 219.506 137.23 219.506C138.002 219.506 138.732 219.382 139.421 219.134C140.111 218.872 140.71 218.458 141.22 217.893C141.744 217.328 142.151 216.584 142.44 215.66C142.743 214.736 142.895 213.613 142.895 212.29L145.583 213.303C145.583 215.329 145.204 217.121 144.446 218.679C143.687 220.223 142.599 221.429 141.179 222.297C139.759 223.165 138.043 223.6 136.03 223.6ZM143.412 223V216.549H142.895V200.67H147.258V223H143.412ZM177.744 223L177.764 209.085C177.764 207.472 177.351 206.218 176.524 205.322C175.697 204.412 174.608 203.957 173.257 203.957C172.43 203.957 171.672 204.15 170.983 204.536C170.307 204.908 169.756 205.474 169.329 206.232C168.915 206.976 168.708 207.913 168.708 209.044L166.62 207.989C166.593 206.418 166.923 205.039 167.613 203.854C168.316 202.668 169.267 201.752 170.466 201.104C171.665 200.442 173.009 200.112 174.498 200.112C176.91 200.112 178.778 200.835 180.101 202.283C181.424 203.73 182.086 205.653 182.086 208.051L182.065 223H177.744ZM150.968 223V200.67H154.814V207.121H155.31V223H150.968ZM164.366 223L164.387 209.168C164.387 207.541 163.974 206.266 163.146 205.343C162.333 204.419 161.237 203.957 159.859 203.957C158.494 203.957 157.392 204.426 156.551 205.363C155.724 206.301 155.31 207.527 155.31 209.044L153.243 207.72C153.243 206.259 153.594 204.957 154.297 203.813C155 202.668 155.951 201.766 157.15 201.104C158.35 200.442 159.707 200.112 161.224 200.112C162.809 200.112 164.16 200.449 165.276 201.125C166.393 201.786 167.24 202.717 167.819 203.916C168.412 205.115 168.708 206.507 168.708 208.093L168.688 223H164.366ZM212.142 223L212.163 209.085C212.163 207.472 211.749 206.218 210.922 205.322C210.095 204.412 209.006 203.957 207.655 203.957C206.828 203.957 206.07 204.15 205.381 204.536C204.706 204.908 204.154 205.474 203.727 206.232C203.313 206.976 203.107 207.913 203.107 209.044L201.018 207.989C200.991 206.418 201.322 205.039 202.011 203.854C202.714 202.668 203.665 201.752 204.864 201.104C206.063 200.442 207.407 200.112 208.896 200.112C211.308 200.112 213.176 200.835 214.499 202.283C215.822 203.73 216.484 205.653 216.484 208.051L216.463 223H212.142ZM185.367 223V200.67H189.212V207.121H189.709V223H185.367ZM198.765 223L198.785 209.168C198.785 207.541 198.372 206.266 197.545 205.343C196.731 204.419 195.636 203.957 194.257 203.957C192.893 203.957 191.79 204.426 190.949 205.363C190.122 206.301 189.709 207.527 189.709 209.044L187.641 207.72C187.641 206.259 187.992 204.957 188.695 203.813C189.398 202.668 190.349 201.766 191.549 201.104C192.748 200.442 194.106 200.112 195.622 200.112C197.207 200.112 198.558 200.449 199.674 201.125C200.791 201.786 201.639 202.717 202.218 203.916C202.81 205.115 203.107 206.507 203.107 208.093L203.086 223H198.765ZM226.092 223.62C224.438 223.62 223.052 223.317 221.936 222.711C220.819 222.09 219.972 221.277 219.393 220.271C218.827 219.251 218.545 218.134 218.545 216.921C218.545 215.791 218.745 214.798 219.145 213.944C219.544 213.089 220.137 212.366 220.923 211.773C221.708 211.166 222.673 210.677 223.817 210.305C224.81 210.015 225.933 209.76 227.188 209.54C228.442 209.319 229.758 209.113 231.137 208.92C232.529 208.727 233.907 208.534 235.272 208.341L233.7 209.209C233.728 207.458 233.356 206.163 232.584 205.322C231.826 204.467 230.516 204.04 228.656 204.04C227.484 204.04 226.409 204.316 225.43 204.867C224.451 205.405 223.769 206.301 223.383 207.555L219.351 206.314C219.903 204.398 220.95 202.875 222.494 201.745C224.052 200.615 226.119 200.05 228.697 200.05C230.696 200.05 232.432 200.394 233.907 201.083C235.396 201.759 236.485 202.834 237.174 204.309C237.532 205.039 237.753 205.811 237.836 206.625C237.918 207.438 237.96 208.313 237.96 209.25V223H234.135V217.893L234.879 218.555C233.955 220.264 232.777 221.539 231.343 222.38C229.924 223.207 228.173 223.62 226.092 223.62ZM226.857 220.085C228.083 220.085 229.138 219.871 230.02 219.444C230.902 219.003 231.612 218.444 232.15 217.769C232.687 217.094 233.039 216.391 233.204 215.66C233.439 214.998 233.57 214.254 233.597 213.427C233.638 212.6 233.659 211.938 233.659 211.442L235.065 211.959C233.7 212.166 232.46 212.352 231.343 212.517C230.227 212.683 229.214 212.848 228.304 213.013C227.408 213.165 226.609 213.351 225.906 213.572C225.313 213.778 224.782 214.027 224.314 214.316C223.859 214.605 223.493 214.957 223.218 215.371C222.956 215.784 222.825 216.287 222.825 216.88C222.825 217.459 222.97 217.996 223.259 218.493C223.549 218.975 223.99 219.361 224.582 219.65C225.175 219.94 225.933 220.085 226.857 220.085ZM241.261 223V200.67H245.107V206.087L244.569 205.384C244.845 204.667 245.203 204.012 245.644 203.42C246.086 202.813 246.596 202.317 247.175 201.931C247.74 201.518 248.367 201.2 249.056 200.98C249.759 200.746 250.476 200.608 251.206 200.566C251.937 200.511 252.64 200.546 253.315 200.67V204.722C252.585 204.529 251.772 204.474 250.876 204.557C249.993 204.64 249.18 204.922 248.436 205.405C247.733 205.86 247.175 206.411 246.761 207.059C246.361 207.707 246.072 208.43 245.893 209.23C245.713 210.015 245.624 210.849 245.624 211.732V223H241.261ZM255.599 197.01V192.813H259.92V197.01H255.599ZM255.599 223V200.67H259.92V223H255.599ZM272.601 223.6C269.885 223.6 267.673 223 265.964 221.801C264.254 220.602 263.207 218.913 262.821 216.735L267.246 216.053C267.521 217.211 268.155 218.127 269.148 218.803C270.154 219.464 271.401 219.795 272.89 219.795C274.241 219.795 275.295 219.52 276.054 218.968C276.825 218.417 277.211 217.659 277.211 216.694C277.211 216.129 277.074 215.674 276.798 215.329C276.536 214.971 275.978 214.633 275.123 214.316C274.269 213.999 272.966 213.606 271.215 213.137C269.299 212.641 267.776 212.111 266.646 211.545C265.529 210.967 264.73 210.298 264.247 209.54C263.779 208.768 263.545 207.838 263.545 206.749C263.545 205.398 263.903 204.219 264.62 203.213C265.336 202.207 266.343 201.428 267.638 200.877C268.948 200.325 270.478 200.05 272.228 200.05C273.938 200.05 275.461 200.318 276.798 200.856C278.135 201.393 279.217 202.158 280.044 203.151C280.871 204.13 281.367 205.281 281.533 206.604L277.108 207.41C276.956 206.335 276.453 205.487 275.599 204.867C274.744 204.247 273.634 203.909 272.27 203.854C270.96 203.799 269.899 204.019 269.086 204.516C268.272 204.998 267.866 205.667 267.866 206.521C267.866 207.017 268.017 207.438 268.321 207.782C268.638 208.127 269.244 208.458 270.14 208.775C271.036 209.092 272.359 209.471 274.11 209.912C275.985 210.394 277.473 210.932 278.576 211.525C279.679 212.104 280.464 212.8 280.933 213.613C281.416 214.413 281.657 215.384 281.657 216.528C281.657 218.734 280.85 220.464 279.238 221.718C277.639 222.972 275.426 223.6 272.601 223.6ZM294.068 223.62C291.849 223.62 289.898 223.138 288.217 222.173C286.549 221.194 285.246 219.837 284.309 218.1C283.385 216.349 282.924 214.323 282.924 212.021C282.924 209.581 283.378 207.465 284.288 205.673C285.212 203.881 286.494 202.496 288.134 201.518C289.774 200.539 291.683 200.05 293.861 200.05C296.136 200.05 298.072 200.58 299.671 201.642C301.27 202.689 302.462 204.185 303.248 206.128C304.048 208.072 304.365 210.381 304.199 213.055H299.878V211.483C299.85 208.892 299.354 206.976 298.389 205.735C297.438 204.495 295.984 203.875 294.027 203.875C291.862 203.875 290.236 204.557 289.147 205.922C288.058 207.286 287.514 209.257 287.514 211.835C287.514 214.288 288.058 216.191 289.147 217.542C290.236 218.879 291.807 219.547 293.861 219.547C295.212 219.547 296.377 219.244 297.355 218.637C298.348 218.017 299.12 217.135 299.671 215.991L303.91 217.335C303.041 219.333 301.725 220.884 299.961 221.987C298.196 223.076 296.232 223.62 294.068 223.62ZM286.108 213.055V209.685H302.049V213.055H286.108Z" fill="#F7EEE3"/>
<rect width="1051.09" height="1.87193" transform="translate(49.6328 250.911)" fill="#F7EEE3" fill-opacity="0.6"/>
<path d="M83.2799 307.802C83.7705 307.312 83.7705 306.516 83.2799 306.026L75.2845 298.03C74.7938 297.54 73.9984 297.54 73.5077 298.03C73.0171 298.521 73.0171 299.316 73.5077 299.807L80.6148 306.914L73.5077 314.021C73.0171 314.512 73.0171 315.307 73.5077 315.798C73.9984 316.288 74.7938 316.288 75.2845 315.798L83.2799 307.802ZM48.3765 290.535V302.234H50.8892V290.535H48.3765ZM54.3126 308.17H82.3915V305.658H54.3126V308.17ZM48.3765 302.234C48.3765 305.513 51.0342 308.17 54.3126 308.17V305.658C52.4219 305.658 50.8892 304.125 50.8892 302.234H48.3765Z" fill="#F7EEE3"/>
<path d="M115.497 315.344C112.519 315.344 109.983 314.697 107.888 313.401C105.793 312.091 104.187 310.272 103.07 307.942C101.968 305.613 101.416 302.911 101.416 299.837C101.416 296.763 101.968 294.062 103.07 291.732C104.187 289.403 105.793 287.59 107.888 286.294C109.983 284.985 112.519 284.33 115.497 284.33C118.929 284.33 121.769 285.199 124.015 286.935C126.276 288.672 127.847 291.009 128.729 293.945L124.346 295.123C123.767 293.042 122.733 291.408 121.245 290.223C119.77 289.038 117.854 288.445 115.497 288.445C113.388 288.445 111.63 288.92 110.224 289.871C108.818 290.823 107.757 292.153 107.04 293.862C106.337 295.571 105.986 297.563 105.986 299.837C105.972 302.112 106.317 304.103 107.02 305.813C107.736 307.522 108.798 308.852 110.204 309.803C111.623 310.754 113.388 311.23 115.497 311.23C117.854 311.23 119.77 310.637 121.245 309.452C122.733 308.252 123.767 306.619 124.346 304.551L128.729 305.73C127.847 308.666 126.276 311.002 124.015 312.739C121.769 314.476 118.929 315.344 115.497 315.344ZM146.882 314.724V303.745C146.882 302.877 146.806 301.988 146.654 301.078C146.517 300.154 146.241 299.3 145.827 298.514C145.428 297.728 144.856 297.094 144.111 296.612C143.381 296.129 142.423 295.888 141.237 295.888C140.465 295.888 139.735 296.019 139.046 296.281C138.356 296.529 137.75 296.936 137.226 297.501C136.716 298.066 136.309 298.81 136.006 299.734C135.717 300.657 135.572 301.781 135.572 303.104L132.884 302.091C132.884 300.065 133.263 298.28 134.021 296.736C134.779 295.178 135.868 293.965 137.288 293.097C138.708 292.229 140.424 291.794 142.436 291.794C143.98 291.794 145.276 292.042 146.324 292.539C147.371 293.035 148.219 293.69 148.867 294.503C149.528 295.302 150.031 296.178 150.376 297.129C150.721 298.08 150.955 299.01 151.079 299.92C151.203 300.83 151.265 301.629 151.265 302.318V314.724H146.882ZM131.189 314.724V284.951H135.055V301.016H135.572V314.724H131.189ZM160.889 315.344C159.235 315.344 157.85 315.041 156.733 314.435C155.617 313.814 154.769 313.001 154.19 311.995C153.625 310.975 153.342 309.858 153.342 308.645C153.342 307.515 153.542 306.523 153.942 305.668C154.342 304.813 154.935 304.09 155.72 303.497C156.506 302.89 157.471 302.401 158.615 302.029C159.607 301.74 160.731 301.485 161.985 301.264C163.239 301.043 164.556 300.837 165.934 300.644C167.326 300.451 168.705 300.258 170.069 300.065L168.498 300.933C168.526 299.183 168.153 297.887 167.382 297.046C166.623 296.191 165.314 295.764 163.453 295.764C162.281 295.764 161.206 296.04 160.228 296.591C159.249 297.129 158.567 298.025 158.181 299.279L154.149 298.039C154.7 296.123 155.748 294.599 157.292 293.469C158.849 292.339 160.917 291.774 163.494 291.774C165.493 291.774 167.23 292.118 168.705 292.807C170.193 293.483 171.282 294.558 171.972 296.033C172.33 296.763 172.551 297.535 172.633 298.349C172.716 299.162 172.757 300.037 172.757 300.975V314.724H168.932V309.617L169.677 310.279C168.753 311.988 167.575 313.263 166.141 314.104C164.721 314.931 162.971 315.344 160.889 315.344ZM161.654 311.809C162.881 311.809 163.936 311.595 164.818 311.168C165.7 310.727 166.41 310.168 166.947 309.493C167.485 308.818 167.836 308.115 168.002 307.384C168.236 306.722 168.367 305.978 168.395 305.151C168.436 304.324 168.457 303.662 168.457 303.166L169.863 303.683C168.498 303.89 167.257 304.076 166.141 304.241C165.024 304.407 164.011 304.572 163.102 304.738C162.206 304.889 161.406 305.075 160.703 305.296C160.11 305.503 159.58 305.751 159.111 306.04C158.656 306.33 158.291 306.681 158.015 307.095C157.753 307.508 157.622 308.011 157.622 308.604C157.622 309.183 157.767 309.721 158.057 310.217C158.346 310.699 158.787 311.085 159.38 311.375C159.973 311.664 160.731 311.809 161.654 311.809ZM191.731 314.724V303.745C191.731 302.877 191.655 301.988 191.504 301.078C191.366 300.154 191.09 299.3 190.677 298.514C190.277 297.728 189.705 297.094 188.961 296.612C188.23 296.129 187.272 295.888 186.087 295.888C185.315 295.888 184.584 296.019 183.895 296.281C183.206 296.529 182.599 296.936 182.075 297.501C181.565 298.066 181.159 298.81 180.856 299.734C180.566 300.657 180.421 301.781 180.421 303.104L177.733 302.091C177.733 300.065 178.113 298.28 178.871 296.736C179.629 295.178 180.718 293.965 182.137 293.097C183.557 292.229 185.273 291.794 187.286 291.794C188.83 291.794 190.125 292.042 191.173 292.539C192.221 293.035 193.068 293.69 193.716 294.503C194.378 295.302 194.881 296.178 195.225 297.129C195.57 298.08 195.804 299.01 195.928 299.92C196.053 300.83 196.115 301.629 196.115 302.318V314.724H191.731ZM176.038 314.724V292.394H179.904V298.845H180.421V314.724H176.038ZM208.633 325.269C207.434 325.269 206.269 325.083 205.139 324.711C204.023 324.339 203.002 323.787 202.079 323.057C201.155 322.34 200.39 321.451 199.784 320.389L203.774 318.363C204.257 319.314 204.946 320.01 205.842 320.451C206.738 320.892 207.682 321.113 208.675 321.113C209.901 321.113 210.949 320.892 211.817 320.451C212.686 320.024 213.341 319.376 213.782 318.508C214.237 317.639 214.457 316.564 214.443 315.282V309.038H214.96V292.394H218.785V315.324C218.785 315.916 218.765 316.482 218.723 317.019C218.682 317.557 218.606 318.094 218.496 318.632C218.179 320.134 217.572 321.375 216.676 322.354C215.794 323.332 214.664 324.063 213.285 324.545C211.921 325.028 210.37 325.269 208.633 325.269ZM208.302 315.344C206.221 315.344 204.422 314.828 202.906 313.794C201.404 312.76 200.239 311.354 199.412 309.576C198.598 307.784 198.192 305.771 198.192 303.538C198.192 301.292 198.605 299.286 199.432 297.522C200.259 295.743 201.431 294.344 202.947 293.324C204.477 292.291 206.29 291.774 208.385 291.774C210.494 291.774 212.265 292.291 213.699 293.324C215.146 294.344 216.235 295.743 216.966 297.522C217.71 299.3 218.082 301.305 218.082 303.538C218.082 305.771 217.71 307.777 216.966 309.555C216.221 311.333 215.126 312.746 213.678 313.794C212.231 314.828 210.439 315.344 208.302 315.344ZM208.902 311.437C210.322 311.437 211.48 311.099 212.376 310.423C213.272 309.748 213.926 308.818 214.34 307.632C214.753 306.447 214.96 305.082 214.96 303.538C214.96 301.995 214.747 300.63 214.319 299.444C213.906 298.259 213.258 297.336 212.376 296.674C211.507 296.012 210.398 295.681 209.047 295.681C207.613 295.681 206.435 296.033 205.511 296.736C204.588 297.439 203.898 298.383 203.444 299.569C203.002 300.754 202.782 302.077 202.782 303.538C202.782 305.013 203.002 306.35 203.444 307.55C203.898 308.735 204.574 309.679 205.47 310.382C206.38 311.085 207.524 311.437 208.902 311.437ZM232.427 315.344C230.208 315.344 228.258 314.862 226.576 313.897C224.908 312.918 223.605 311.561 222.668 309.824C221.745 308.073 221.283 306.047 221.283 303.745C221.283 301.305 221.738 299.189 222.647 297.398C223.571 295.606 224.853 294.22 226.493 293.242C228.134 292.263 230.043 291.774 232.221 291.774C234.495 291.774 236.432 292.304 238.031 293.366C239.629 294.413 240.822 295.909 241.607 297.852C242.407 299.796 242.724 302.105 242.559 304.779H238.237V303.208C238.21 300.616 237.713 298.7 236.749 297.46C235.797 296.219 234.343 295.599 232.386 295.599C230.222 295.599 228.595 296.281 227.506 297.646C226.417 299.01 225.873 300.981 225.873 303.559C225.873 306.013 226.417 307.915 227.506 309.266C228.595 310.603 230.167 311.271 232.221 311.271C233.571 311.271 234.736 310.968 235.715 310.361C236.707 309.741 237.479 308.859 238.031 307.715L242.269 309.059C241.401 311.058 240.084 312.608 238.32 313.711C236.556 314.8 234.591 315.344 232.427 315.344ZM224.467 304.779V301.409H240.408V304.779H224.467ZM264.119 314.724C262.713 315 261.334 315.117 259.983 315.076C258.633 315.034 257.426 314.772 256.365 314.29C255.304 313.807 254.504 313.049 253.967 312.016C253.484 311.092 253.222 310.155 253.181 309.204C253.153 308.239 253.14 307.15 253.14 305.937V286.191H257.482V305.73C257.482 306.626 257.488 307.405 257.502 308.066C257.53 308.728 257.675 309.286 257.936 309.741C258.433 310.596 259.218 311.085 260.294 311.209C261.382 311.319 262.657 311.271 264.119 311.064V314.724ZM248.86 295.868V292.394H264.119V295.868H248.86ZM275.447 315.344C273.213 315.344 271.277 314.841 269.637 313.835C267.996 312.829 266.728 311.444 265.832 309.679C264.95 307.901 264.509 305.854 264.509 303.538C264.509 301.209 264.964 299.162 265.873 297.398C266.783 295.619 268.058 294.241 269.699 293.262C271.339 292.27 273.255 291.774 275.447 291.774C277.68 291.774 279.616 292.277 281.257 293.283C282.897 294.289 284.165 295.675 285.061 297.439C285.957 299.203 286.405 301.236 286.405 303.538C286.405 305.868 285.95 307.922 285.04 309.7C284.144 311.464 282.876 312.849 281.236 313.856C279.596 314.848 277.666 315.344 275.447 315.344ZM275.447 311.271C277.583 311.271 279.175 310.554 280.223 309.121C281.284 307.674 281.815 305.813 281.815 303.538C281.815 301.209 281.277 299.348 280.202 297.956C279.141 296.55 277.555 295.847 275.447 295.847C273.999 295.847 272.807 296.178 271.87 296.839C270.932 297.487 270.236 298.39 269.781 299.548C269.326 300.692 269.099 302.022 269.099 303.538C269.099 305.882 269.637 307.756 270.712 309.162C271.787 310.568 273.365 311.271 275.447 311.271Z" fill="#F7EEE3"/>
<rect width="1051.09" height="1.87193" transform="translate(49.6328 342.636)" fill="#F7EEE3" fill-opacity="0.6"/>
<path d="M82.6471 399.524C83.1377 399.033 83.1377 398.238 82.6471 397.747L74.6517 389.752C74.161 389.261 73.3655 389.261 72.8749 389.752C72.3843 390.243 72.3843 391.038 72.8749 391.529L79.982 398.636L72.8749 405.743C72.3843 406.233 72.3843 407.029 72.8749 407.52C73.3655 408.01 74.161 408.01 74.6517 407.52L82.6471 399.524ZM47.7436 382.256V393.956H50.2564V382.256H47.7436ZM53.6798 399.892H81.7587V397.379H53.6798V399.892ZM47.7436 393.956C47.7436 397.234 50.4014 399.892 53.6798 399.892V397.379C51.7891 397.379 50.2564 395.847 50.2564 393.956H47.7436Z" fill="#F7EEE3"/>
<path d="M100.37 406.446L110.046 376.672H116.27L125.946 406.446H121.46L112.548 379.277H113.665L104.857 406.446H100.37ZM105.394 399.726V395.674H120.943V399.726H105.394ZM136.127 407.045C133.412 407.045 131.2 406.446 129.49 405.247C127.781 404.047 126.734 402.359 126.348 400.181L130.772 399.499C131.048 400.656 131.682 401.573 132.674 402.249C133.681 402.91 134.928 403.241 136.417 403.241C137.768 403.241 138.822 402.965 139.58 402.414C140.352 401.863 140.738 401.104 140.738 400.14C140.738 399.574 140.6 399.12 140.325 398.775C140.063 398.417 139.505 398.079 138.65 397.762C137.795 397.445 136.493 397.052 134.742 396.583C132.826 396.087 131.303 395.556 130.173 394.991C129.056 394.412 128.257 393.744 127.774 392.986C127.306 392.214 127.071 391.283 127.071 390.194C127.071 388.844 127.43 387.665 128.146 386.659C128.863 385.653 129.869 384.874 131.165 384.322C132.475 383.771 134.005 383.495 135.755 383.495C137.464 383.495 138.988 383.764 140.325 384.302C141.662 384.839 142.744 385.604 143.571 386.597C144.398 387.575 144.894 388.726 145.059 390.05L140.635 390.856C140.483 389.781 139.98 388.933 139.125 388.313C138.271 387.693 137.161 387.355 135.797 387.3C134.487 387.245 133.426 387.465 132.612 387.961C131.799 388.444 131.393 389.112 131.393 389.967C131.393 390.463 131.544 390.884 131.847 391.228C132.164 391.573 132.771 391.904 133.667 392.221C134.563 392.538 135.886 392.917 137.637 393.358C139.511 393.84 141 394.378 142.103 394.971C143.206 395.549 143.991 396.246 144.46 397.059C144.942 397.858 145.184 398.83 145.184 399.974C145.184 402.18 144.377 403.91 142.764 405.164C141.165 406.418 138.953 407.045 136.127 407.045ZM147.67 406.446L147.691 376.672H152.074V394.867L160.841 384.116H166.341L157.078 395.281L167.292 406.446H161.42L152.074 395.694V406.446H147.67Z" fill="#F7EEE3"/>
<rect width="1051.09" height="1.87193" transform="translate(49 434.357)" fill="#F7EEE3" fill-opacity="0.6"/>
</g>
<rect x="0.5" y="0.5" width="962" height="535" rx="28.5" stroke="url(#paint1_linear_987_1531)"/>
</g>
<defs>
<filter id="filter0_b_987_1531" x="-812" y="-812" width="2587" height="2160" filterUnits="userSpaceOnUse" color-interpolation-filters="sRGB">
<feFlood flood-opacity="0" result="BackgroundImageFix"/>
<feGaussianBlur in="BackgroundImageFix" stdDeviation="406"/>
<feComposite in2="SourceAlpha" operator="in" result="effect1_backgroundBlur_987_1531"/>
<feBlend mode="normal" in="SourceGraphic" in2="effect1_backgroundBlur_987_1531" result="shape"/>
</filter>
<filter id="filter1_f_987_1531" x="-331.898" y="-285.898" width="909.796" height="752.842" filterUnits="userSpaceOnUse" color-interpolation-filters="sRGB">
<feFlood flood-opacity="0" result="BackgroundImageFix"/>
<feBlend mode="normal" in="SourceGraphic" in2="BackgroundImageFix" result="shape"/>
<feGaussianBlur stdDeviation="112.449" result="effect1_foregroundBlur_987_1531"/>
</filter>
<filter id="filter2_b_987_1531" x="-194.8" y="-178.8" width="1352.6" height="567.6" filterUnits="userSpaceOnUse" color-interpolation-filters="sRGB">
<feFlood flood-opacity="0" result="BackgroundImageFix"/>
<feGaussianBlur in="BackgroundImageFix" stdDeviation="121.9"/>
<feComposite in2="SourceAlpha" operator="in" result="effect1_backgroundBlur_987_1531"/>
<feBlend mode="normal" in="SourceGraphic" in2="effect1_backgroundBlur_987_1531" result="shape"/>
</filter>
<linearGradient id="paint0_linear_987_1531" x1="70" y1="65" x2="914" y2="130.5" gradientUnits="userSpaceOnUse">
<stop stop-color="#F7EEE3"/>
<stop offset="1" stop-color="#0C0C0C"/>
</linearGradient>
<linearGradient id="paint1_linear_987_1531" x1="16" y1="19.5" x2="481.5" y2="536" gradientUnits="userSpaceOnUse">
<stop stop-color="white"/>
<stop offset="1" stop-color="#0C0C0C"/>
</linearGradient>
<clipPath id="clip0_987_1531">
<rect width="963" height="536" rx="29" fill="white"/>
</clipPath>
</defs>
</svg>
