<svg width="1633" height="728" viewBox="0 0 1633 728" fill="none" xmlns="http://www.w3.org/2000/svg">
<g filter="url(#filter0_b_901_1477)">
<rect x="1" y="1" width="1631" height="753" rx="18.1084" fill="#08090A" fill-opacity="0.8"/>
<rect x="0.5" y="0.5" width="1632" height="754" rx="18.6084" stroke="white"/>
<rect x="228" y="601" width="1105.07" height="99.3979" rx="23.3878" fill="#1F1F1F" fill-opacity="0.6"/>
<path d="M258.695 630.71C258.695 625.604 262.835 621.464 267.942 621.464H400.613C405.719 621.464 409.859 625.604 409.859 630.71V670.687C409.859 675.794 405.719 679.934 400.613 679.934H267.942C262.835 679.934 258.695 675.794 258.695 670.687V630.71Z" fill="#1F1F1F"/>
<path d="M278.296 659.198V642.189H280.356V649.763H289.425V642.189H291.485V659.198H289.425V651.591H280.356V659.198H278.296ZM300.691 659.464C299.462 659.464 298.402 659.193 297.51 658.65C296.625 658.102 295.941 657.338 295.459 656.358C294.983 655.372 294.745 654.226 294.745 652.919C294.745 651.613 294.983 650.461 295.459 649.464C295.941 648.462 296.611 647.681 297.469 647.122C298.333 646.557 299.34 646.275 300.492 646.275C301.157 646.275 301.813 646.386 302.46 646.607C303.108 646.829 303.698 647.189 304.23 647.687C304.761 648.18 305.185 648.833 305.5 649.647C305.816 650.461 305.974 651.463 305.974 652.654V653.484H296.14V651.79H303.98C303.98 651.07 303.836 650.428 303.548 649.863C303.266 649.298 302.862 648.853 302.336 648.526C301.815 648.199 301.201 648.036 300.492 648.036C299.711 648.036 299.036 648.23 298.466 648.617C297.901 648.999 297.466 649.498 297.162 650.112C296.857 650.727 296.705 651.386 296.705 652.089V653.218C296.705 654.182 296.871 654.999 297.203 655.668C297.541 656.333 298.009 656.84 298.607 657.188C299.205 657.532 299.9 657.703 300.691 657.703C301.206 657.703 301.671 657.631 302.087 657.487C302.508 657.338 302.87 657.116 303.175 656.823C303.479 656.524 303.715 656.153 303.881 655.71L305.774 656.242C305.575 656.884 305.24 657.449 304.769 657.936C304.299 658.418 303.717 658.794 303.025 659.065C302.333 659.331 301.555 659.464 300.691 659.464ZM312.709 659.497C311.901 659.497 311.167 659.345 310.508 659.04C309.849 658.73 309.326 658.285 308.939 657.703C308.551 657.116 308.357 656.408 308.357 655.577C308.357 654.846 308.501 654.254 308.789 653.8C309.077 653.34 309.462 652.98 309.944 652.72C310.425 652.46 310.957 652.266 311.538 652.139C312.125 652.006 312.715 651.901 313.307 651.823C314.082 651.723 314.711 651.649 315.193 651.599C315.68 651.543 316.034 651.452 316.256 651.325C316.483 651.197 316.596 650.976 316.596 650.66V650.594C316.596 649.774 316.372 649.138 315.923 648.684C315.48 648.23 314.808 648.003 313.905 648.003C312.97 648.003 312.236 648.207 311.704 648.617C311.173 649.027 310.799 649.464 310.583 649.929L308.723 649.265C309.055 648.49 309.498 647.886 310.052 647.454C310.611 647.017 311.22 646.713 311.879 646.541C312.543 646.364 313.197 646.275 313.839 646.275C314.249 646.275 314.719 646.325 315.251 646.425C315.788 646.519 316.305 646.715 316.804 647.014C317.308 647.313 317.726 647.765 318.058 648.368C318.39 648.972 318.556 649.78 318.556 650.793V659.198H316.596V657.471H316.497C316.364 657.748 316.142 658.044 315.832 658.359C315.522 658.675 315.11 658.944 314.595 659.165C314.08 659.386 313.451 659.497 312.709 659.497ZM313.008 657.737C313.783 657.737 314.437 657.584 314.968 657.28C315.505 656.975 315.91 656.582 316.181 656.1C316.458 655.619 316.596 655.112 316.596 654.58V652.787C316.513 652.886 316.33 652.978 316.048 653.061C315.771 653.138 315.45 653.207 315.085 653.268C314.725 653.324 314.373 653.373 314.03 653.418C313.692 653.456 313.418 653.49 313.208 653.517C312.698 653.584 312.222 653.692 311.779 653.841C311.342 653.985 310.987 654.204 310.716 654.497C310.45 654.785 310.317 655.178 310.317 655.677C310.317 656.358 310.569 656.873 311.073 657.222C311.583 657.565 312.228 657.737 313.008 657.737ZM326.951 659.464C325.888 659.464 324.949 659.195 324.135 658.658C323.321 658.116 322.685 657.352 322.225 656.366C321.766 655.375 321.536 654.204 321.536 652.853C321.536 651.513 321.766 650.35 322.225 649.365C322.685 648.379 323.324 647.618 324.144 647.081C324.963 646.544 325.91 646.275 326.984 646.275C327.815 646.275 328.471 646.414 328.952 646.69C329.44 646.962 329.811 647.272 330.065 647.621C330.326 647.964 330.528 648.246 330.672 648.468H330.838V642.189H332.798V659.198H330.904V657.238H330.672C330.528 657.471 330.323 657.764 330.057 658.119C329.791 658.467 329.412 658.78 328.919 659.057C328.426 659.328 327.77 659.464 326.951 659.464ZM327.217 657.703C328.003 657.703 328.667 657.498 329.21 657.089C329.753 656.673 330.165 656.1 330.447 655.369C330.73 654.633 330.871 653.783 330.871 652.82C330.871 651.867 330.733 651.034 330.456 650.32C330.179 649.6 329.769 649.041 329.227 648.642C328.684 648.238 328.014 648.036 327.217 648.036C326.386 648.036 325.694 648.249 325.14 648.675C324.592 649.096 324.18 649.669 323.903 650.395C323.632 651.114 323.496 651.923 323.496 652.82C323.496 653.728 323.634 654.553 323.911 655.295C324.194 656.031 324.609 656.618 325.157 657.055C325.711 657.487 326.397 657.703 327.217 657.703ZM342.008 659.464C340.779 659.464 339.719 659.193 338.828 658.65C337.942 658.102 337.258 657.338 336.776 656.358C336.3 655.372 336.062 654.226 336.062 652.919C336.062 651.613 336.3 650.461 336.776 649.464C337.258 648.462 337.928 647.681 338.786 647.122C339.65 646.557 340.657 646.275 341.809 646.275C342.474 646.275 343.13 646.386 343.778 646.607C344.425 646.829 345.015 647.189 345.547 647.687C346.078 648.18 346.502 648.833 346.817 649.647C347.133 650.461 347.291 651.463 347.291 652.654V653.484H337.457V651.79H345.297C345.297 651.07 345.153 650.428 344.866 649.863C344.583 649.298 344.179 648.853 343.653 648.526C343.132 648.199 342.518 648.036 341.809 648.036C341.028 648.036 340.353 648.23 339.783 648.617C339.218 648.999 338.783 649.498 338.479 650.112C338.174 650.727 338.022 651.386 338.022 652.089V653.218C338.022 654.182 338.188 654.999 338.52 655.668C338.858 656.333 339.326 656.84 339.924 657.188C340.522 657.532 341.217 657.703 342.008 657.703C342.523 657.703 342.989 657.631 343.404 657.487C343.825 657.338 344.187 657.116 344.492 656.823C344.796 656.524 345.032 656.153 345.198 655.71L347.091 656.242C346.892 656.884 346.557 657.449 346.086 657.936C345.616 658.418 345.034 658.794 344.342 659.065C343.65 659.331 342.872 659.464 342.008 659.464ZM350.272 659.198V646.441H352.166V648.368H352.299C352.531 647.737 352.952 647.225 353.561 646.832C354.17 646.438 354.857 646.242 355.621 646.242C355.765 646.242 355.945 646.245 356.161 646.25C356.377 646.256 356.54 646.264 356.651 646.275V648.268C356.584 648.252 356.432 648.227 356.194 648.194C355.961 648.155 355.715 648.136 355.455 648.136C354.835 648.136 354.281 648.266 353.794 648.526C353.312 648.781 352.93 649.135 352.648 649.589C352.371 650.037 352.232 650.55 352.232 651.125V659.198H350.272Z" fill="#F5F5F5"/>
<path d="M374.777 647.775L380.624 653.622L386.471 647.775" stroke="#F5F5F5" stroke-width="2.33879" stroke-linecap="round" stroke-linejoin="round"/>
<path d="M526.197 650.698L532.044 656.545L537.891 650.698" stroke="#F5F5F5" stroke-width="2.33879" stroke-linecap="round" stroke-linejoin="round"/>
<circle cx="475.032" cy="650.699" r="21.9261" fill="#FF5E00"/>
<path d="M627.069 662.444H614.996V638.952H626.09C627.398 638.952 628.678 639.327 629.78 640.031C630.882 640.736 631.759 641.741 632.308 642.928C632.857 644.115 633.055 645.435 632.878 646.731C632.701 648.027 632.157 649.245 631.31 650.241C632.417 651.126 633.221 652.332 633.614 653.694C634.007 655.055 633.968 656.504 633.503 657.842C633.038 659.18 632.169 660.341 631.017 661.166C629.865 661.99 628.485 662.437 627.069 662.444ZM618.911 658.529H627.042C627.428 658.529 627.81 658.453 628.166 658.306C628.522 658.158 628.846 657.942 629.119 657.669C629.392 657.396 629.608 657.073 629.755 656.716C629.903 656.36 629.979 655.978 629.979 655.593C629.979 655.207 629.903 654.825 629.755 654.469C629.608 654.112 629.392 653.789 629.119 653.516C628.846 653.243 628.522 653.027 628.166 652.88C627.81 652.732 627.428 652.656 627.042 652.656H618.911V658.529ZM618.911 648.741H626.09C626.475 648.741 626.857 648.665 627.213 648.517C627.57 648.369 627.893 648.153 628.166 647.881C628.439 647.608 628.655 647.284 628.803 646.928C628.95 646.572 629.026 646.19 629.026 645.804C629.026 645.418 628.95 645.037 628.803 644.68C628.655 644.324 628.439 644 628.166 643.728C627.893 643.455 627.57 643.239 627.213 643.091C626.857 642.943 626.475 642.868 626.09 642.868H618.911V648.741Z" fill="white"/>
<path d="M698.524 641.562V638.952H681.557V641.562H688.265L682.562 659.834H675.031V662.444H691.998V659.834H685.29L690.993 641.562H698.524Z" fill="white"/>
<path d="M733.764 663.749H765.087V666.36H733.764V663.749ZM749.425 659.834C747.002 659.834 744.678 658.872 742.965 657.158C741.252 655.445 740.289 653.121 740.289 650.698V636.342H742.9V650.698C742.9 652.429 743.587 654.089 744.811 655.313C746.035 656.536 747.694 657.224 749.425 657.224C751.156 657.224 752.816 656.536 754.04 655.313C755.263 654.089 755.951 652.429 755.951 650.698V636.342H758.561V650.698C758.561 653.121 757.599 655.445 755.885 657.158C754.172 658.872 751.848 659.834 749.425 659.834Z" fill="white"/>
<path d="M827.731 649.393H814.623C814.043 649.237 813.461 649.091 812.876 648.956C809.211 648.089 807.139 647.455 807.139 644.488C807.109 643.976 807.185 643.463 807.362 642.982C807.538 642.5 807.812 642.06 808.166 641.689C809.275 640.777 810.663 640.275 812.098 640.266C815.792 640.175 817.495 641.428 818.888 643.333L820.995 641.793C820.009 640.376 818.664 639.247 817.098 638.52C815.532 637.793 813.801 637.495 812.081 637.656C809.97 637.669 807.933 638.438 806.339 639.824C805.735 640.436 805.263 641.166 804.952 641.969C804.64 642.771 804.497 643.628 804.53 644.488C804.473 645.429 804.65 646.369 805.044 647.225C805.439 648.081 806.04 648.826 806.793 649.393H796.408V652.003H814.226C816.793 652.747 818.328 653.715 818.367 656.386C818.409 656.956 818.331 657.529 818.137 658.067C817.943 658.605 817.638 659.097 817.242 659.509C815.861 660.598 814.145 661.174 812.387 661.139C811.075 661.101 809.788 660.765 808.625 660.157C807.461 659.548 806.452 658.683 805.672 657.627L803.671 659.303C804.685 660.654 805.993 661.756 807.496 662.526C808.999 663.297 810.658 663.715 812.346 663.749H812.477C814.887 663.777 817.227 662.934 819.065 661.375C819.718 660.717 820.225 659.93 820.554 659.064C820.884 658.197 821.028 657.272 820.977 656.347C821.026 654.764 820.492 653.218 819.476 652.003H827.731V649.393Z" fill="white"/>
<path d="M894.292 650.698L885.157 659.834L883.316 657.994L890.599 650.698L883.316 643.403L885.157 641.562L894.292 650.698ZM855.139 650.698L864.275 641.562L866.115 643.403L858.832 650.698L866.115 657.994L864.275 659.834L855.139 650.698Z" fill="white"/>
<path d="M1018.54 641.067H1034.07V643.286H1018.54V641.067ZM1018.54 647.723H1029.63V649.942H1018.54V647.723ZM1018.54 654.38H1034.07V656.598H1018.54V654.38ZM1018.54 661.036H1029.63V663.254H1018.54V661.036ZM1011.88 638.849H1014.1V665.473H1011.88V638.849Z" fill="white"/>
<path d="M1058.47 657.486L1049.6 648.611L1050.84 647.368L1058.47 655.001L1066.1 647.368L1067.35 648.611L1058.47 657.486Z" fill="white"/>
<rect x="1238.79" y="618.565" width="62.8549" height="62.8549" rx="13.8865" fill="#FF5E00"/>
<rect x="1238.79" y="618.565" width="62.8549" height="62.8549" rx="13.8865" stroke="#FF5E00" stroke-width="1.46174" stroke-linecap="round"/>
<path d="M1271.43 637.811L1259.25 652.428H1270.22L1269 662.173L1281.18 647.555H1270.22L1271.43 637.811Z" stroke="#F5F5F5" stroke-width="2.92348" stroke-linecap="round" stroke-linejoin="round"/>
<path d="M1103.24 648.924C1105.18 648.924 1106.76 647.346 1106.76 645.4C1106.76 643.454 1105.18 641.876 1103.24 641.876C1101.29 641.876 1099.71 643.454 1099.71 645.4C1099.71 647.346 1101.29 648.924 1103.24 648.924Z" fill="white"/>
<path d="M1103.24 665.368C1105.18 665.368 1106.76 663.791 1106.76 661.844C1106.76 659.898 1105.18 658.321 1103.24 658.321C1101.29 658.321 1099.71 659.898 1099.71 661.844C1099.71 663.791 1101.29 665.368 1103.24 665.368Z" fill="white"/>
<path d="M1113.81 660.67H1130.25V663.019H1113.81V660.67ZM1113.81 644.225H1130.25V646.574H1113.81V644.225Z" fill="white"/>
<path d="M1170.19 660.669H1186.64V663.019H1170.19V660.669ZM1170.19 644.225H1186.64V646.574H1170.19V644.225ZM1160.79 648.923V639.526H1158.44V640.701H1156.1V643.05H1158.44V648.923H1156.1V651.273H1163.14V648.923H1160.79ZM1163.14 667.717H1156.1V663.019C1156.1 662.396 1156.34 661.798 1156.78 661.357C1157.22 660.917 1157.82 660.669 1158.44 660.669H1160.79V658.32H1156.1V655.971H1160.79C1161.42 655.971 1162.01 656.218 1162.46 656.659C1162.9 657.1 1163.14 657.697 1163.14 658.32V660.669C1163.14 661.292 1162.9 661.89 1162.46 662.331C1162.01 662.771 1161.42 663.019 1160.79 663.019H1158.44V665.368H1163.14V667.717Z" fill="white"/>
<rect x="423.869" y="617.079" width="2.92348" height="67.2401" rx="1.46174" fill="white" fill-opacity="0.6"/>
<rect x="568.58" y="617.079" width="2.92348" height="67.2401" rx="1.46174" fill="white" fill-opacity="0.6"/>
<rect x="980.795" y="617.079" width="2.92348" height="67.2401" rx="1.46174" fill="white" fill-opacity="0.6"/>
<rect x="1204.44" y="617.079" width="2.92348" height="67.2401" rx="1.46174" fill="white" fill-opacity="0.6"/>
<path d="M959.277 642.257C958.768 641.746 958.163 641.34 957.497 641.064C956.831 640.787 956.116 640.645 955.395 640.645C954.673 640.645 953.959 640.787 953.293 641.064C952.626 641.34 952.021 641.746 951.512 642.257L952.809 643.554C953.149 643.214 953.553 642.944 953.998 642.76C954.442 642.576 954.918 642.481 955.399 642.481C955.88 642.481 956.357 642.576 956.801 642.76C957.245 642.944 957.649 643.214 957.989 643.554C958.329 643.894 958.599 644.298 958.783 644.742C958.967 645.187 959.062 645.663 959.062 646.144C959.062 646.625 958.967 647.101 958.783 647.546C958.599 647.99 958.329 648.394 957.989 648.734L950.681 656.043C949.995 656.73 949.064 657.116 948.094 657.117C947.123 657.118 946.192 656.733 945.505 656.047C944.818 655.362 944.432 654.431 944.431 653.461C944.43 652.49 944.815 651.559 945.501 650.872L946.789 649.575L945.501 648.277L944.203 649.575C943.692 650.084 943.287 650.689 943.01 651.355C942.733 652.022 942.591 652.736 942.591 653.457C942.591 654.179 942.733 654.893 943.01 655.559C943.287 656.226 943.692 656.831 944.203 657.34C945.237 658.361 946.633 658.929 948.086 658.921C948.81 658.924 949.528 658.783 950.197 658.507C950.867 658.231 951.475 657.825 951.987 657.313L959.296 650.004C960.32 648.974 960.893 647.579 960.89 646.127C960.886 644.674 960.306 643.282 959.277 642.257Z" fill="white"/>
<path d="M936.383 658.756C936.042 658.417 935.771 658.013 935.586 657.569C935.402 657.124 935.307 656.647 935.307 656.166C935.307 655.685 935.402 655.208 935.586 654.764C935.771 654.319 936.042 653.916 936.383 653.576L943.692 646.267C944.031 645.926 944.435 645.656 944.879 645.471C945.324 645.286 945.8 645.191 946.282 645.191C946.763 645.191 947.24 645.286 947.684 645.471C948.129 645.656 948.532 645.926 948.872 646.267C949.211 646.61 949.478 647.016 949.656 647.464C949.835 647.911 949.923 648.39 949.913 648.871C949.916 649.354 949.823 649.833 949.639 650.28C949.456 650.727 949.186 651.133 948.844 651.475L946.907 653.439L948.205 654.736L950.142 652.8C951.173 651.769 951.752 650.37 951.752 648.912C951.752 647.454 951.173 646.056 950.142 645.025C949.111 643.994 947.712 643.415 946.254 643.415C944.796 643.415 943.398 643.994 942.367 645.025L935.058 652.334C934.546 652.843 934.139 653.449 933.862 654.116C933.584 654.783 933.441 655.498 933.441 656.221C933.441 656.944 933.584 657.659 933.862 658.326C934.139 658.993 934.546 659.599 935.058 660.108C936.099 661.121 937.498 661.68 938.95 661.661C940.415 661.663 941.82 661.085 942.86 660.053L941.563 658.756C941.223 659.097 940.82 659.368 940.375 659.553C939.931 659.737 939.454 659.833 938.973 659.833C938.492 659.833 938.015 659.737 937.571 659.553C937.126 659.368 936.722 659.097 936.383 658.756Z" fill="white"/>
<path d="M238.773 158V88.3326H282.315V95.1542H245.885V119.247H276.51V126.069H245.885V151.178H282.315V158H238.773ZM311.325 159.451C306.455 159.451 302.294 158.242 298.843 155.823C295.392 153.372 292.747 150.066 290.909 145.905C289.07 141.744 288.151 137.051 288.151 131.826C288.151 126.634 289.054 121.957 290.861 117.796C292.699 113.635 295.328 110.346 298.746 107.927C302.165 105.508 306.262 104.298 311.035 104.298C315.938 104.298 320.066 105.491 323.42 107.878C326.775 110.265 329.307 113.539 331.016 117.699C332.758 121.828 333.629 126.537 333.629 131.826C333.629 137.019 332.774 141.712 331.064 145.905C329.355 150.066 326.839 153.372 323.517 155.823C320.195 158.242 316.131 159.451 311.325 159.451ZM312.051 152.823C315.76 152.823 318.824 151.92 321.243 150.114C323.662 148.308 325.468 145.824 326.662 142.663C327.855 139.47 328.452 135.858 328.452 131.826C328.452 127.73 327.855 124.118 326.662 120.989C325.468 117.828 323.662 115.361 321.243 113.587C318.856 111.813 315.841 110.926 312.196 110.926C308.455 110.926 305.358 111.845 302.907 113.684C300.456 115.522 298.634 118.022 297.44 121.183C296.279 124.344 295.699 127.891 295.699 131.826C295.699 135.794 296.295 139.374 297.489 142.567C298.714 145.728 300.537 148.227 302.956 150.066C305.375 151.904 308.406 152.823 312.051 152.823ZM328.452 158V118.667H327.678V88.3326H334.838V158H328.452ZM346.476 95.8315V87.8488H353.588V95.8315H346.476ZM346.476 158V105.749H353.588V158H346.476ZM393.637 158C390.702 158.613 387.799 158.855 384.928 158.726C382.09 158.597 379.542 157.984 377.284 156.887C375.059 155.791 373.365 154.081 372.204 151.759C371.269 149.824 370.753 147.872 370.656 145.905C370.591 143.905 370.559 141.631 370.559 139.083V91.2354H377.623V138.793C377.623 140.986 377.639 142.825 377.671 144.308C377.736 145.76 378.074 147.05 378.687 148.179C379.848 150.34 381.687 151.63 384.202 152.049C386.75 152.469 389.895 152.372 393.637 151.759V158ZM359.383 111.845V105.749H393.637V111.845H359.383ZM420.958 159.451C415.765 159.451 411.33 158.274 407.653 155.92C403.976 153.565 401.154 150.308 399.187 146.147C397.219 141.986 396.235 137.213 396.235 131.826C396.235 126.343 397.235 121.537 399.235 117.409C401.235 113.281 404.073 110.071 407.75 107.781C411.459 105.459 415.862 104.298 420.958 104.298C426.183 104.298 430.634 105.475 434.311 107.83C438.02 110.152 440.842 113.394 442.777 117.554C444.745 121.683 445.728 126.44 445.728 131.826C445.728 137.309 444.745 142.131 442.777 146.292C440.81 150.42 437.971 153.646 434.262 155.968C430.553 158.29 426.118 159.451 420.958 159.451ZM420.958 152.63C426.763 152.63 431.085 150.711 433.924 146.873C436.762 143.002 438.181 137.987 438.181 131.826C438.181 125.505 436.746 120.473 433.875 116.732C431.037 112.99 426.731 111.12 420.958 111.12C417.055 111.12 413.83 112.007 411.282 113.781C408.766 115.522 406.879 117.957 405.621 121.086C404.396 124.182 403.783 127.762 403.783 131.826C403.783 138.116 405.234 143.163 408.137 146.969C411.04 150.743 415.313 152.63 420.958 152.63ZM453.498 158V105.749H459.884V118.328L458.626 116.683C459.207 115.135 459.965 113.716 460.9 112.426C461.835 111.104 462.851 110.023 463.948 109.184C465.303 107.991 466.883 107.088 468.689 106.475C470.495 105.83 472.318 105.459 474.156 105.362C475.995 105.233 477.672 105.362 479.188 105.749V112.426C477.285 111.942 475.205 111.829 472.947 112.087C470.689 112.345 468.609 113.248 466.706 114.797C464.964 116.151 463.658 117.78 462.787 119.683C461.916 121.554 461.336 123.553 461.045 125.682C460.755 127.779 460.61 129.859 460.61 131.923V158H453.498Z" fill="#F7EEE3"/>
<path d="M479.069 158V149.727H487.342V158H479.069Z" fill="#FF5E00"/>
<path d="M247.014 237.54C244.434 237.54 242.256 236.97 240.48 235.83C238.704 234.678 237.36 233.088 236.448 231.06C235.536 229.032 235.08 226.692 235.08 224.04C235.08 221.388 235.536 219.048 236.448 217.02C237.36 214.992 238.704 213.408 240.48 212.268C242.256 211.116 244.434 210.54 247.014 210.54C250.026 210.54 252.486 211.314 254.394 212.862C256.302 214.398 257.61 216.462 258.318 219.054L255.618 219.756C255.066 217.704 254.076 216.078 252.648 214.878C251.22 213.678 249.342 213.078 247.014 213.078C244.986 213.078 243.3 213.54 241.956 214.464C240.612 215.388 239.598 216.678 238.914 218.334C238.242 219.978 237.894 221.88 237.87 224.04C237.858 226.2 238.188 228.102 238.86 229.746C239.544 231.39 240.564 232.68 241.92 233.616C243.288 234.54 244.986 235.002 247.014 235.002C249.342 235.002 251.22 234.402 252.648 233.202C254.076 231.99 255.066 230.364 255.618 228.324L258.318 229.026C257.61 231.618 256.302 233.688 254.394 235.236C252.486 236.772 250.026 237.54 247.014 237.54ZM269.328 237.54C267.396 237.54 265.746 237.102 264.378 236.226C263.01 235.35 261.96 234.138 261.228 232.59C260.496 231.042 260.13 229.266 260.13 227.262C260.13 225.222 260.502 223.434 261.246 221.898C261.99 220.362 263.046 219.168 264.414 218.316C265.794 217.452 267.432 217.02 269.328 217.02C271.272 217.02 272.928 217.458 274.296 218.334C275.676 219.198 276.726 220.404 277.446 221.952C278.178 223.488 278.544 225.258 278.544 227.262C278.544 229.302 278.178 231.096 277.446 232.644C276.714 234.18 275.658 235.38 274.278 236.244C272.898 237.108 271.248 237.54 269.328 237.54ZM269.328 235.002C271.488 235.002 273.096 234.288 274.152 232.86C275.208 231.42 275.736 229.554 275.736 227.262C275.736 224.91 275.202 223.038 274.134 221.646C273.078 220.254 271.476 219.558 269.328 219.558C267.876 219.558 266.676 219.888 265.728 220.548C264.792 221.196 264.09 222.102 263.622 223.266C263.166 224.418 262.938 225.75 262.938 227.262C262.938 229.602 263.478 231.48 264.558 232.896C265.638 234.3 267.228 235.002 269.328 235.002ZM295.474 237V227.082C295.474 226.002 295.372 225.012 295.168 224.112C294.964 223.2 294.634 222.408 294.178 221.736C293.734 221.052 293.152 220.524 292.432 220.152C291.724 219.78 290.86 219.594 289.84 219.594C288.904 219.594 288.076 219.756 287.356 220.08C286.648 220.404 286.048 220.872 285.556 221.484C285.076 222.084 284.71 222.816 284.458 223.68C284.206 224.544 284.08 225.528 284.08 226.632L282.208 226.218C282.208 224.226 282.556 222.552 283.252 221.196C283.948 219.84 284.908 218.814 286.132 218.118C287.356 217.422 288.76 217.074 290.344 217.074C291.508 217.074 292.522 217.254 293.386 217.614C294.262 217.974 295 218.46 295.6 219.072C296.212 219.684 296.704 220.386 297.076 221.178C297.448 221.958 297.718 222.792 297.886 223.68C298.054 224.556 298.138 225.432 298.138 226.308V237H295.474ZM281.416 237V217.56H283.81V222.348H284.08V237H281.416ZM308.983 237.522C306.703 237.522 304.825 237.03 303.349 236.046C301.885 235.062 300.985 233.694 300.649 231.942L303.349 231.492C303.637 232.596 304.291 233.478 305.311 234.138C306.343 234.786 307.615 235.11 309.127 235.11C310.603 235.11 311.767 234.804 312.619 234.192C313.471 233.568 313.897 232.722 313.897 231.654C313.897 231.054 313.759 230.568 313.483 230.196C313.219 229.812 312.673 229.458 311.845 229.134C311.017 228.81 309.781 228.426 308.137 227.982C306.373 227.502 304.993 227.022 303.997 226.542C303.001 226.062 302.293 225.51 301.873 224.886C301.453 224.25 301.243 223.476 301.243 222.564C301.243 221.46 301.555 220.494 302.179 219.666C302.803 218.826 303.667 218.178 304.771 217.722C305.875 217.254 307.159 217.02 308.623 217.02C310.087 217.02 311.395 217.26 312.547 217.74C313.711 218.208 314.647 218.868 315.355 219.72C316.063 220.572 316.483 221.562 316.615 222.69L313.915 223.176C313.735 222.036 313.165 221.136 312.205 220.476C311.257 219.804 310.051 219.456 308.587 219.432C307.207 219.396 306.085 219.66 305.221 220.224C304.357 220.776 303.925 221.514 303.925 222.438C303.925 222.954 304.081 223.398 304.393 223.77C304.705 224.13 305.269 224.472 306.085 224.796C306.913 225.12 308.089 225.474 309.613 225.858C311.401 226.314 312.805 226.794 313.825 227.298C314.845 227.802 315.571 228.396 316.003 229.08C316.435 229.764 316.651 230.61 316.651 231.618C316.651 233.454 315.967 234.9 314.599 235.956C313.243 237 311.371 237.522 308.983 237.522ZM327.681 237.54C325.749 237.54 324.099 237.102 322.731 236.226C321.363 235.35 320.313 234.138 319.581 232.59C318.849 231.042 318.483 229.266 318.483 227.262C318.483 225.222 318.855 223.434 319.599 221.898C320.343 220.362 321.399 219.168 322.767 218.316C324.147 217.452 325.785 217.02 327.681 217.02C329.625 217.02 331.281 217.458 332.649 218.334C334.029 219.198 335.079 220.404 335.799 221.952C336.531 223.488 336.897 225.258 336.897 227.262C336.897 229.302 336.531 231.096 335.799 232.644C335.067 234.18 334.011 235.38 332.631 236.244C331.251 237.108 329.601 237.54 327.681 237.54ZM327.681 235.002C329.841 235.002 331.449 234.288 332.505 232.86C333.561 231.42 334.089 229.554 334.089 227.262C334.089 224.91 333.555 223.038 332.487 221.646C331.431 220.254 329.829 219.558 327.681 219.558C326.229 219.558 325.029 219.888 324.081 220.548C323.145 221.196 322.443 222.102 321.975 223.266C321.519 224.418 321.291 225.75 321.291 227.262C321.291 229.602 321.831 231.48 322.911 232.896C323.991 234.3 325.581 235.002 327.681 235.002ZM340.148 237V210.54H342.794V237H340.148ZM347.47 213.87V210.9H350.116V213.87H347.47ZM347.47 237V217.56H350.116V237H347.47ZM361.975 237.54C360.163 237.54 358.615 237.09 357.331 236.19C356.047 235.278 355.063 234.048 354.379 232.5C353.695 230.952 353.353 229.206 353.353 227.262C353.353 225.33 353.689 223.59 354.361 222.042C355.045 220.494 356.023 219.27 357.295 218.37C358.567 217.47 360.091 217.02 361.867 217.02C363.691 217.02 365.227 217.464 366.475 218.352C367.723 219.24 368.665 220.458 369.301 222.006C369.949 223.542 370.273 225.294 370.273 227.262C370.273 229.194 369.955 230.94 369.319 232.5C368.683 234.048 367.747 235.278 366.511 236.19C365.275 237.09 363.763 237.54 361.975 237.54ZM362.245 235.074C363.625 235.074 364.765 234.738 365.665 234.066C366.565 233.394 367.237 232.47 367.681 231.294C368.125 230.106 368.347 228.762 368.347 227.262C368.347 225.738 368.125 224.394 367.681 223.23C367.237 222.054 366.565 221.136 365.665 220.476C364.777 219.816 363.655 219.486 362.299 219.486C360.907 219.486 359.755 219.828 358.843 220.512C357.931 221.196 357.253 222.126 356.809 223.302C356.377 224.478 356.161 225.798 356.161 227.262C356.161 228.738 356.383 230.07 356.827 231.258C357.283 232.434 357.961 233.364 358.861 234.048C359.761 234.732 360.889 235.074 362.245 235.074ZM368.347 237V222.366H368.059V211.08H370.723V237H368.347ZM380.255 237.54C378.791 237.54 377.561 237.276 376.565 236.748C375.581 236.22 374.843 235.518 374.351 234.642C373.859 233.766 373.613 232.812 373.613 231.78C373.613 230.724 373.823 229.824 374.243 229.08C374.675 228.324 375.257 227.706 375.989 227.226C376.733 226.746 377.591 226.38 378.563 226.128C379.547 225.888 380.633 225.678 381.821 225.498C383.021 225.306 384.191 225.144 385.331 225.012C386.483 224.868 387.491 224.73 388.355 224.598L387.419 225.174C387.455 223.254 387.083 221.832 386.303 220.908C385.523 219.984 384.167 219.522 382.235 219.522C380.903 219.522 379.775 219.822 378.851 220.422C377.939 221.022 377.297 221.97 376.925 223.266L374.351 222.51C374.795 220.77 375.689 219.42 377.033 218.46C378.377 217.5 380.123 217.02 382.271 217.02C384.047 217.02 385.553 217.356 386.789 218.028C388.037 218.688 388.919 219.648 389.435 220.908C389.675 221.472 389.831 222.102 389.903 222.798C389.975 223.494 390.011 224.202 390.011 224.922V237H387.653V232.122L388.337 232.41C387.677 234.078 386.651 235.35 385.259 236.226C383.867 237.102 382.199 237.54 380.255 237.54ZM380.561 235.254C381.797 235.254 382.877 235.032 383.801 234.588C384.725 234.144 385.469 233.538 386.033 232.77C386.597 231.99 386.963 231.114 387.131 230.142C387.275 229.518 387.353 228.834 387.365 228.09C387.377 227.334 387.383 226.77 387.383 226.398L388.391 226.92C387.491 227.04 386.513 227.16 385.457 227.28C384.413 227.4 383.381 227.538 382.361 227.694C381.353 227.85 380.441 228.036 379.625 228.252C379.073 228.408 378.539 228.63 378.023 228.918C377.507 229.194 377.081 229.566 376.745 230.034C376.421 230.502 376.259 231.084 376.259 231.78C376.259 232.344 376.397 232.89 376.673 233.418C376.961 233.946 377.417 234.384 378.041 234.732C378.677 235.08 379.517 235.254 380.561 235.254ZM404.2 237C403.108 237.228 402.028 237.318 400.96 237.27C399.904 237.222 398.956 236.994 398.116 236.586C397.288 236.178 396.658 235.542 396.226 234.678C395.878 233.958 395.686 233.232 395.65 232.5C395.626 231.756 395.614 230.91 395.614 229.962V212.16H398.242V229.854C398.242 230.67 398.248 231.354 398.26 231.906C398.284 232.446 398.41 232.926 398.638 233.346C399.07 234.15 399.754 234.63 400.69 234.786C401.638 234.942 402.808 234.906 404.2 234.678V237ZM391.456 219.828V217.56H404.2V219.828H391.456ZM414.473 237.54C412.577 237.54 410.933 237.12 409.541 236.28C408.161 235.44 407.087 234.258 406.319 232.734C405.551 231.21 405.167 229.422 405.167 227.37C405.167 225.246 405.545 223.41 406.301 221.862C407.057 220.314 408.119 219.12 409.487 218.28C410.867 217.44 412.493 217.02 414.365 217.02C416.285 217.02 417.923 217.464 419.279 218.352C420.635 219.228 421.661 220.488 422.357 222.132C423.053 223.776 423.371 225.738 423.311 228.018H420.611V227.082C420.563 224.562 420.017 222.66 418.973 221.376C417.941 220.092 416.429 219.45 414.437 219.45C412.349 219.45 410.747 220.128 409.631 221.484C408.527 222.84 407.975 224.772 407.975 227.28C407.975 229.728 408.527 231.63 409.631 232.986C410.747 234.33 412.325 235.002 414.365 235.002C415.757 235.002 416.969 234.684 418.001 234.048C419.045 233.4 419.867 232.47 420.467 231.258L422.933 232.212C422.165 233.904 421.031 235.218 419.531 236.154C418.043 237.078 416.357 237.54 414.473 237.54ZM407.039 228.018V225.804H421.889V228.018H407.039ZM439.607 237.522C437.327 237.522 435.449 237.03 433.973 236.046C432.509 235.062 431.609 233.694 431.273 231.942L433.973 231.492C434.261 232.596 434.915 233.478 435.935 234.138C436.967 234.786 438.239 235.11 439.751 235.11C441.227 235.11 442.391 234.804 443.243 234.192C444.095 233.568 444.521 232.722 444.521 231.654C444.521 231.054 444.383 230.568 444.107 230.196C443.843 229.812 443.297 229.458 442.469 229.134C441.641 228.81 440.405 228.426 438.761 227.982C436.997 227.502 435.617 227.022 434.621 226.542C433.625 226.062 432.917 225.51 432.497 224.886C432.077 224.25 431.867 223.476 431.867 222.564C431.867 221.46 432.179 220.494 432.803 219.666C433.427 218.826 434.291 218.178 435.395 217.722C436.499 217.254 437.783 217.02 439.247 217.02C440.711 217.02 442.019 217.26 443.171 217.74C444.335 218.208 445.271 218.868 445.979 219.72C446.687 220.572 447.107 221.562 447.239 222.69L444.539 223.176C444.359 222.036 443.789 221.136 442.829 220.476C441.881 219.804 440.675 219.456 439.211 219.432C437.831 219.396 436.709 219.66 435.845 220.224C434.981 220.776 434.549 221.514 434.549 222.438C434.549 222.954 434.705 223.398 435.017 223.77C435.329 224.13 435.893 224.472 436.709 224.796C437.537 225.12 438.713 225.474 440.237 225.858C442.025 226.314 443.429 226.794 444.449 227.298C445.469 227.802 446.195 228.396 446.627 229.08C447.059 229.764 447.275 230.61 447.275 231.618C447.275 233.454 446.591 234.9 445.223 235.956C443.867 237 441.995 237.522 439.607 237.522ZM458.917 237.54C457.129 237.54 455.617 237.09 454.381 236.19C453.145 235.278 452.209 234.048 451.573 232.5C450.937 230.94 450.619 229.194 450.619 227.262C450.619 225.294 450.937 223.542 451.573 222.006C452.221 220.458 453.169 219.24 454.417 218.352C455.665 217.464 457.201 217.02 459.025 217.02C460.801 217.02 462.325 217.47 463.597 218.37C464.869 219.27 465.841 220.494 466.513 222.042C467.197 223.59 467.539 225.33 467.539 227.262C467.539 229.206 467.197 230.952 466.513 232.5C465.829 234.048 464.845 235.278 463.561 236.19C462.277 237.09 460.729 237.54 458.917 237.54ZM450.169 245.64V217.56H452.545V232.194H452.833V245.64H450.169ZM458.647 235.074C460.003 235.074 461.131 234.732 462.031 234.048C462.931 233.364 463.603 232.434 464.047 231.258C464.503 230.07 464.731 228.738 464.731 227.262C464.731 225.798 464.509 224.478 464.065 223.302C463.621 222.126 462.943 221.196 462.031 220.512C461.131 219.828 459.985 219.486 458.593 219.486C457.237 219.486 456.109 219.816 455.209 220.476C454.321 221.136 453.655 222.054 453.211 223.23C452.767 224.394 452.545 225.738 452.545 227.262C452.545 228.762 452.767 230.106 453.211 231.294C453.655 232.47 454.327 233.394 455.227 234.066C456.127 234.738 457.267 235.074 458.647 235.074ZM478.638 237.54C476.742 237.54 475.098 237.12 473.706 236.28C472.326 235.44 471.252 234.258 470.484 232.734C469.716 231.21 469.332 229.422 469.332 227.37C469.332 225.246 469.71 223.41 470.466 221.862C471.222 220.314 472.284 219.12 473.652 218.28C475.032 217.44 476.658 217.02 478.53 217.02C480.45 217.02 482.088 217.464 483.444 218.352C484.8 219.228 485.826 220.488 486.522 222.132C487.218 223.776 487.536 225.738 487.476 228.018H484.776V227.082C484.728 224.562 484.182 222.66 483.138 221.376C482.106 220.092 480.594 219.45 478.602 219.45C476.514 219.45 474.912 220.128 473.796 221.484C472.692 222.84 472.14 224.772 472.14 227.28C472.14 229.728 472.692 231.63 473.796 232.986C474.912 234.33 476.49 235.002 478.53 235.002C479.922 235.002 481.134 234.684 482.166 234.048C483.21 233.4 484.032 232.47 484.632 231.258L487.098 232.212C486.33 233.904 485.196 235.218 483.696 236.154C482.208 237.078 480.522 237.54 478.638 237.54ZM471.204 228.018V225.804H486.054V228.018H471.204ZM498.454 237.54C496.498 237.54 494.842 237.102 493.486 236.226C492.13 235.35 491.098 234.144 490.39 232.608C489.694 231.06 489.334 229.284 489.31 227.28C489.334 225.24 489.706 223.452 490.426 221.916C491.146 220.368 492.184 219.168 493.54 218.316C494.896 217.452 496.54 217.02 498.472 217.02C500.44 217.02 502.15 217.5 503.602 218.46C505.066 219.42 506.068 220.734 506.608 222.402L504.016 223.23C503.56 222.066 502.834 221.166 501.838 220.53C500.854 219.882 499.726 219.558 498.454 219.558C497.026 219.558 495.844 219.888 494.908 220.548C493.972 221.196 493.276 222.102 492.82 223.266C492.364 224.43 492.13 225.768 492.118 227.28C492.142 229.608 492.682 231.48 493.738 232.896C494.794 234.3 496.366 235.002 498.454 235.002C499.774 235.002 500.896 234.702 501.82 234.102C502.756 233.49 503.464 232.602 503.944 231.438L506.608 232.23C505.888 233.958 504.832 235.278 503.44 236.19C502.048 237.09 500.386 237.54 498.454 237.54ZM516.498 237.522C514.218 237.522 512.34 237.03 510.864 236.046C509.4 235.062 508.5 233.694 508.164 231.942L510.864 231.492C511.152 232.596 511.806 233.478 512.826 234.138C513.858 234.786 515.13 235.11 516.642 235.11C518.118 235.11 519.282 234.804 520.134 234.192C520.986 233.568 521.412 232.722 521.412 231.654C521.412 231.054 521.274 230.568 520.998 230.196C520.734 229.812 520.188 229.458 519.36 229.134C518.532 228.81 517.296 228.426 515.652 227.982C513.888 227.502 512.508 227.022 511.512 226.542C510.516 226.062 509.808 225.51 509.388 224.886C508.968 224.25 508.758 223.476 508.758 222.564C508.758 221.46 509.07 220.494 509.694 219.666C510.318 218.826 511.182 218.178 512.286 217.722C513.39 217.254 514.674 217.02 516.138 217.02C517.602 217.02 518.91 217.26 520.062 217.74C521.226 218.208 522.162 218.868 522.87 219.72C523.578 220.572 523.998 221.562 524.13 222.69L521.43 223.176C521.25 222.036 520.68 221.136 519.72 220.476C518.772 219.804 517.566 219.456 516.102 219.432C514.722 219.396 513.6 219.66 512.736 220.224C511.872 220.776 511.44 221.514 511.44 222.438C511.44 222.954 511.596 223.398 511.908 223.77C512.22 224.13 512.784 224.472 513.6 224.796C514.428 225.12 515.604 225.474 517.128 225.858C518.916 226.314 520.32 226.794 521.34 227.298C522.36 227.802 523.086 228.396 523.518 229.08C523.95 229.764 524.166 230.61 524.166 231.618C524.166 233.454 523.482 234.9 522.114 235.956C520.758 237 518.886 237.522 516.498 237.522ZM526.718 240.762L526.88 239.448C527.36 239.484 527.708 239.388 527.924 239.16C528.14 238.932 528.272 238.626 528.32 238.242C528.368 237.858 528.38 237.444 528.356 237H526.718V233.202H529.796V237.72C529.796 238.824 529.514 239.652 528.95 240.204C528.398 240.756 527.654 240.942 526.718 240.762ZM564.872 237L564.89 224.238C564.89 222.738 564.47 221.562 563.63 220.71C562.802 219.846 561.746 219.414 560.462 219.414C559.73 219.414 559.016 219.582 558.32 219.918C557.624 220.254 557.048 220.794 556.592 221.538C556.148 222.282 555.926 223.254 555.926 224.454L554.36 224.004C554.324 222.612 554.594 221.394 555.17 220.35C555.758 219.306 556.562 218.496 557.582 217.92C558.614 217.332 559.778 217.038 561.074 217.038C563.03 217.038 564.596 217.644 565.772 218.856C566.948 220.056 567.536 221.682 567.536 223.734L567.518 237H564.872ZM541.67 237V217.56H544.046V222.348H544.334V237H541.67ZM553.298 237L553.316 224.418C553.316 222.87 552.902 221.652 552.074 220.764C551.258 219.864 550.178 219.414 548.834 219.414C547.49 219.414 546.404 219.876 545.576 220.8C544.748 221.712 544.334 222.93 544.334 224.454L542.75 223.59C542.75 222.342 543.044 221.226 543.632 220.242C544.22 219.246 545.024 218.466 546.044 217.902C547.064 217.326 548.222 217.038 549.518 217.038C550.754 217.038 551.852 217.302 552.812 217.83C553.784 218.358 554.546 219.126 555.098 220.134C555.65 221.142 555.926 222.366 555.926 223.806L555.908 237H553.298ZM571.483 213.87V210.9H574.129V213.87H571.483ZM571.483 237V217.56H574.129V237H571.483ZM578.805 237V210.54H581.451V237H578.805ZM593.994 237.54C592.098 237.54 590.454 237.12 589.062 236.28C587.682 235.44 586.608 234.258 585.84 232.734C585.072 231.21 584.688 229.422 584.688 227.37C584.688 225.246 585.066 223.41 585.822 221.862C586.578 220.314 587.64 219.12 589.008 218.28C590.388 217.44 592.014 217.02 593.886 217.02C595.806 217.02 597.444 217.464 598.8 218.352C600.156 219.228 601.182 220.488 601.878 222.132C602.574 223.776 602.892 225.738 602.832 228.018H600.132V227.082C600.084 224.562 599.538 222.66 598.494 221.376C597.462 220.092 595.95 219.45 593.958 219.45C591.87 219.45 590.268 220.128 589.152 221.484C588.048 222.84 587.496 224.772 587.496 227.28C587.496 229.728 588.048 231.63 589.152 232.986C590.268 234.33 591.846 235.002 593.886 235.002C595.278 235.002 596.49 234.684 597.522 234.048C598.566 233.4 599.388 232.47 599.988 231.258L602.454 232.212C601.686 233.904 600.552 235.218 599.052 236.154C597.564 237.078 595.878 237.54 593.994 237.54ZM586.56 228.018V225.804H601.41V228.018H586.56ZM613 237.522C610.72 237.522 608.842 237.03 607.366 236.046C605.902 235.062 605.002 233.694 604.666 231.942L607.366 231.492C607.654 232.596 608.308 233.478 609.328 234.138C610.36 234.786 611.632 235.11 613.144 235.11C614.62 235.11 615.784 234.804 616.636 234.192C617.488 233.568 617.914 232.722 617.914 231.654C617.914 231.054 617.776 230.568 617.5 230.196C617.236 229.812 616.69 229.458 615.862 229.134C615.034 228.81 613.798 228.426 612.154 227.982C610.39 227.502 609.01 227.022 608.014 226.542C607.018 226.062 606.31 225.51 605.89 224.886C605.47 224.25 605.26 223.476 605.26 222.564C605.26 221.46 605.572 220.494 606.196 219.666C606.82 218.826 607.684 218.178 608.788 217.722C609.892 217.254 611.176 217.02 612.64 217.02C614.104 217.02 615.412 217.26 616.564 217.74C617.728 218.208 618.664 218.868 619.372 219.72C620.08 220.572 620.5 221.562 620.632 222.69L617.932 223.176C617.752 222.036 617.182 221.136 616.222 220.476C615.274 219.804 614.068 219.456 612.604 219.432C611.224 219.396 610.102 219.66 609.238 220.224C608.374 220.776 607.942 221.514 607.942 222.438C607.942 222.954 608.098 223.398 608.41 223.77C608.722 224.13 609.286 224.472 610.102 224.796C610.93 225.12 612.106 225.474 613.63 225.858C615.418 226.314 616.822 226.794 617.842 227.298C618.862 227.802 619.588 228.396 620.02 229.08C620.452 229.764 620.668 230.61 620.668 231.618C620.668 233.454 619.984 234.9 618.616 235.956C617.26 237 615.388 237.522 613 237.522ZM634.164 237C633.072 237.228 631.992 237.318 630.924 237.27C629.868 237.222 628.92 236.994 628.08 236.586C627.252 236.178 626.622 235.542 626.19 234.678C625.842 233.958 625.65 233.232 625.614 232.5C625.59 231.756 625.578 230.91 625.578 229.962V212.16H628.206V229.854C628.206 230.67 628.212 231.354 628.224 231.906C628.248 232.446 628.374 232.926 628.602 233.346C629.034 234.15 629.718 234.63 630.654 234.786C631.602 234.942 632.772 234.906 634.164 234.678V237ZM621.42 219.828V217.56H634.164V219.828H621.42ZM644.329 237.54C642.397 237.54 640.747 237.102 639.379 236.226C638.011 235.35 636.961 234.138 636.229 232.59C635.497 231.042 635.131 229.266 635.131 227.262C635.131 225.222 635.503 223.434 636.247 221.898C636.991 220.362 638.047 219.168 639.415 218.316C640.795 217.452 642.433 217.02 644.329 217.02C646.273 217.02 647.929 217.458 649.297 218.334C650.677 219.198 651.727 220.404 652.447 221.952C653.179 223.488 653.545 225.258 653.545 227.262C653.545 229.302 653.179 231.096 652.447 232.644C651.715 234.18 650.659 235.38 649.279 236.244C647.899 237.108 646.249 237.54 644.329 237.54ZM644.329 235.002C646.489 235.002 648.097 234.288 649.153 232.86C650.209 231.42 650.737 229.554 650.737 227.262C650.737 224.91 650.203 223.038 649.135 221.646C648.079 220.254 646.477 219.558 644.329 219.558C642.877 219.558 641.677 219.888 640.729 220.548C639.793 221.196 639.091 222.102 638.623 223.266C638.167 224.418 637.939 225.75 637.939 227.262C637.939 229.602 638.479 231.48 639.559 232.896C640.639 234.3 642.229 235.002 644.329 235.002ZM670.476 237V227.082C670.476 226.002 670.374 225.012 670.17 224.112C669.966 223.2 669.636 222.408 669.18 221.736C668.736 221.052 668.154 220.524 667.434 220.152C666.726 219.78 665.862 219.594 664.842 219.594C663.906 219.594 663.078 219.756 662.358 220.08C661.65 220.404 661.05 220.872 660.558 221.484C660.078 222.084 659.712 222.816 659.46 223.68C659.208 224.544 659.082 225.528 659.082 226.632L657.21 226.218C657.21 224.226 657.558 222.552 658.254 221.196C658.95 219.84 659.91 218.814 661.134 218.118C662.358 217.422 663.762 217.074 665.346 217.074C666.51 217.074 667.524 217.254 668.388 217.614C669.264 217.974 670.002 218.46 670.602 219.072C671.214 219.684 671.706 220.386 672.078 221.178C672.45 221.958 672.72 222.792 672.888 223.68C673.056 224.556 673.14 225.432 673.14 226.308V237H670.476ZM656.418 237V217.56H658.812V222.348H659.082V237H656.418ZM684.852 237.54C682.956 237.54 681.312 237.12 679.92 236.28C678.54 235.44 677.466 234.258 676.698 232.734C675.93 231.21 675.546 229.422 675.546 227.37C675.546 225.246 675.924 223.41 676.68 221.862C677.436 220.314 678.498 219.12 679.866 218.28C681.246 217.44 682.872 217.02 684.744 217.02C686.664 217.02 688.302 217.464 689.658 218.352C691.014 219.228 692.04 220.488 692.736 222.132C693.432 223.776 693.75 225.738 693.69 228.018H690.99V227.082C690.942 224.562 690.396 222.66 689.352 221.376C688.32 220.092 686.808 219.45 684.816 219.45C682.728 219.45 681.126 220.128 680.01 221.484C678.906 222.84 678.354 224.772 678.354 227.28C678.354 229.728 678.906 231.63 680.01 232.986C681.126 234.33 682.704 235.002 684.744 235.002C686.136 235.002 687.348 234.684 688.38 234.048C689.424 233.4 690.246 232.47 690.846 231.258L693.312 232.212C692.544 233.904 691.41 235.218 689.91 236.154C688.422 237.078 686.736 237.54 684.852 237.54ZM677.418 228.018V225.804H692.268V228.018H677.418ZM703.858 237.522C701.578 237.522 699.7 237.03 698.224 236.046C696.76 235.062 695.86 233.694 695.524 231.942L698.224 231.492C698.512 232.596 699.166 233.478 700.186 234.138C701.218 234.786 702.49 235.11 704.002 235.11C705.478 235.11 706.642 234.804 707.494 234.192C708.346 233.568 708.772 232.722 708.772 231.654C708.772 231.054 708.634 230.568 708.358 230.196C708.094 229.812 707.548 229.458 706.72 229.134C705.892 228.81 704.656 228.426 703.012 227.982C701.248 227.502 699.868 227.022 698.872 226.542C697.876 226.062 697.168 225.51 696.748 224.886C696.328 224.25 696.118 223.476 696.118 222.564C696.118 221.46 696.43 220.494 697.054 219.666C697.678 218.826 698.542 218.178 699.646 217.722C700.75 217.254 702.034 217.02 703.498 217.02C704.962 217.02 706.27 217.26 707.422 217.74C708.586 218.208 709.522 218.868 710.23 219.72C710.938 220.572 711.358 221.562 711.49 222.69L708.79 223.176C708.61 222.036 708.04 221.136 707.08 220.476C706.132 219.804 704.926 219.456 703.462 219.432C702.082 219.396 700.96 219.66 700.096 220.224C699.232 220.776 698.8 221.514 698.8 222.438C698.8 222.954 698.956 223.398 699.268 223.77C699.58 224.13 700.144 224.472 700.96 224.796C701.788 225.12 702.964 225.474 704.488 225.858C706.276 226.314 707.68 226.794 708.7 227.298C709.72 227.802 710.446 228.396 710.878 229.08C711.31 229.764 711.526 230.61 711.526 231.618C711.526 233.454 710.842 234.9 709.474 235.956C708.118 237 706.246 237.522 703.858 237.522ZM714.078 240.762L714.24 239.448C714.72 239.484 715.068 239.388 715.284 239.16C715.5 238.932 715.632 238.626 715.68 238.242C715.728 237.858 715.74 237.444 715.716 237H714.078V233.202H717.156V237.72C717.156 238.824 716.874 239.652 716.31 240.204C715.758 240.756 715.014 240.942 714.078 240.762ZM739.632 237C738.54 237.228 737.46 237.318 736.392 237.27C735.336 237.222 734.388 236.994 733.548 236.586C732.72 236.178 732.09 235.542 731.658 234.678C731.31 233.958 731.118 233.232 731.082 232.5C731.058 231.756 731.046 230.91 731.046 229.962V212.16H733.674V229.854C733.674 230.67 733.68 231.354 733.692 231.906C733.716 232.446 733.842 232.926 734.07 233.346C734.502 234.15 735.186 234.63 736.122 234.786C737.07 234.942 738.24 234.906 739.632 234.678V237ZM726.888 219.828V217.56H739.632V219.828H726.888ZM747.944 237.54C746.48 237.54 745.25 237.276 744.254 236.748C743.27 236.22 742.532 235.518 742.04 234.642C741.548 233.766 741.302 232.812 741.302 231.78C741.302 230.724 741.512 229.824 741.932 229.08C742.364 228.324 742.946 227.706 743.678 227.226C744.422 226.746 745.28 226.38 746.252 226.128C747.236 225.888 748.322 225.678 749.51 225.498C750.71 225.306 751.88 225.144 753.02 225.012C754.172 224.868 755.18 224.73 756.044 224.598L755.108 225.174C755.144 223.254 754.772 221.832 753.992 220.908C753.212 219.984 751.856 219.522 749.924 219.522C748.592 219.522 747.464 219.822 746.54 220.422C745.628 221.022 744.986 221.97 744.614 223.266L742.04 222.51C742.484 220.77 743.378 219.42 744.722 218.46C746.066 217.5 747.812 217.02 749.96 217.02C751.736 217.02 753.242 217.356 754.478 218.028C755.726 218.688 756.608 219.648 757.124 220.908C757.364 221.472 757.52 222.102 757.592 222.798C757.664 223.494 757.7 224.202 757.7 224.922V237H755.342V232.122L756.026 232.41C755.366 234.078 754.34 235.35 752.948 236.226C751.556 237.102 749.888 237.54 747.944 237.54ZM748.25 235.254C749.486 235.254 750.566 235.032 751.49 234.588C752.414 234.144 753.158 233.538 753.722 232.77C754.286 231.99 754.652 231.114 754.82 230.142C754.964 229.518 755.042 228.834 755.054 228.09C755.066 227.334 755.072 226.77 755.072 226.398L756.08 226.92C755.18 227.04 754.202 227.16 753.146 227.28C752.102 227.4 751.07 227.538 750.05 227.694C749.042 227.85 748.13 228.036 747.314 228.252C746.762 228.408 746.228 228.63 745.712 228.918C745.196 229.194 744.77 229.566 744.434 230.034C744.11 230.502 743.948 231.084 743.948 231.78C743.948 232.344 744.086 232.89 744.362 233.418C744.65 233.946 745.106 234.384 745.73 234.732C746.366 235.08 747.206 235.254 748.25 235.254ZM768.56 237.522C766.28 237.522 764.402 237.03 762.926 236.046C761.462 235.062 760.562 233.694 760.226 231.942L762.926 231.492C763.214 232.596 763.868 233.478 764.888 234.138C765.92 234.786 767.192 235.11 768.704 235.11C770.18 235.11 771.344 234.804 772.196 234.192C773.048 233.568 773.474 232.722 773.474 231.654C773.474 231.054 773.336 230.568 773.06 230.196C772.796 229.812 772.25 229.458 771.422 229.134C770.594 228.81 769.358 228.426 767.714 227.982C765.95 227.502 764.57 227.022 763.574 226.542C762.578 226.062 761.87 225.51 761.45 224.886C761.03 224.25 760.82 223.476 760.82 222.564C760.82 221.46 761.132 220.494 761.756 219.666C762.38 218.826 763.244 218.178 764.348 217.722C765.452 217.254 766.736 217.02 768.2 217.02C769.664 217.02 770.972 217.26 772.124 217.74C773.288 218.208 774.224 218.868 774.932 219.72C775.64 220.572 776.06 221.562 776.192 222.69L773.492 223.176C773.312 222.036 772.742 221.136 771.782 220.476C770.834 219.804 769.628 219.456 768.164 219.432C766.784 219.396 765.662 219.66 764.798 220.224C763.934 220.776 763.502 221.514 763.502 222.438C763.502 222.954 763.658 223.398 763.97 223.77C764.282 224.13 764.846 224.472 765.662 224.796C766.49 225.12 767.666 225.474 769.19 225.858C770.978 226.314 772.382 226.794 773.402 227.298C774.422 227.802 775.148 228.396 775.58 229.08C776.012 229.764 776.228 230.61 776.228 231.618C776.228 233.454 775.544 234.9 774.176 235.956C772.82 237 770.948 237.522 768.56 237.522ZM779.122 237L779.14 211.08H781.804V226.92L790.48 217.56H794.008L784.9 227.28L795.196 237H791.344L781.804 227.64V237H779.122ZM802.822 237.522C800.542 237.522 798.664 237.03 797.188 236.046C795.724 235.062 794.824 233.694 794.488 231.942L797.188 231.492C797.476 232.596 798.13 233.478 799.15 234.138C800.182 234.786 801.454 235.11 802.966 235.11C804.442 235.11 805.606 234.804 806.458 234.192C807.31 233.568 807.736 232.722 807.736 231.654C807.736 231.054 807.598 230.568 807.322 230.196C807.058 229.812 806.512 229.458 805.684 229.134C804.856 228.81 803.62 228.426 801.976 227.982C800.212 227.502 798.832 227.022 797.836 226.542C796.84 226.062 796.132 225.51 795.712 224.886C795.292 224.25 795.082 223.476 795.082 222.564C795.082 221.46 795.394 220.494 796.018 219.666C796.642 218.826 797.506 218.178 798.61 217.722C799.714 217.254 800.998 217.02 802.462 217.02C803.926 217.02 805.234 217.26 806.386 217.74C807.55 218.208 808.486 218.868 809.194 219.72C809.902 220.572 810.322 221.562 810.454 222.69L807.754 223.176C807.574 222.036 807.004 221.136 806.044 220.476C805.096 219.804 803.89 219.456 802.426 219.432C801.046 219.396 799.924 219.66 799.06 220.224C798.196 220.776 797.764 221.514 797.764 222.438C797.764 222.954 797.92 223.398 798.232 223.77C798.544 224.13 799.108 224.472 799.924 224.796C800.752 225.12 801.928 225.474 803.452 225.858C805.24 226.314 806.644 226.794 807.664 227.298C808.684 227.802 809.41 228.396 809.842 229.08C810.274 229.764 810.49 230.61 810.49 231.618C810.49 233.454 809.806 234.9 808.438 235.956C807.082 237 805.21 237.522 802.822 237.522ZM813.042 240.762L813.204 239.448C813.684 239.484 814.032 239.388 814.248 239.16C814.464 238.932 814.596 238.626 814.644 238.242C814.692 237.858 814.704 237.444 814.68 237H813.042V233.202H816.12V237.72C816.12 238.824 815.838 239.652 815.274 240.204C814.722 240.756 813.978 240.942 813.042 240.762ZM833.573 237.54C832.109 237.54 830.879 237.276 829.883 236.748C828.899 236.22 828.161 235.518 827.669 234.642C827.177 233.766 826.931 232.812 826.931 231.78C826.931 230.724 827.141 229.824 827.561 229.08C827.993 228.324 828.575 227.706 829.307 227.226C830.051 226.746 830.909 226.38 831.881 226.128C832.865 225.888 833.951 225.678 835.139 225.498C836.339 225.306 837.509 225.144 838.649 225.012C839.801 224.868 840.809 224.73 841.673 224.598L840.737 225.174C840.773 223.254 840.401 221.832 839.621 220.908C838.841 219.984 837.485 219.522 835.553 219.522C834.221 219.522 833.093 219.822 832.169 220.422C831.257 221.022 830.615 221.97 830.243 223.266L827.669 222.51C828.113 220.77 829.007 219.42 830.351 218.46C831.695 217.5 833.441 217.02 835.589 217.02C837.365 217.02 838.871 217.356 840.107 218.028C841.355 218.688 842.237 219.648 842.753 220.908C842.993 221.472 843.149 222.102 843.221 222.798C843.293 223.494 843.329 224.202 843.329 224.922V237H840.971V232.122L841.655 232.41C840.995 234.078 839.969 235.35 838.577 236.226C837.185 237.102 835.517 237.54 833.573 237.54ZM833.879 235.254C835.115 235.254 836.195 235.032 837.119 234.588C838.043 234.144 838.787 233.538 839.351 232.77C839.915 231.99 840.281 231.114 840.449 230.142C840.593 229.518 840.671 228.834 840.683 228.09C840.695 227.334 840.701 226.77 840.701 226.398L841.709 226.92C840.809 227.04 839.831 227.16 838.775 227.28C837.731 227.4 836.699 227.538 835.679 227.694C834.671 227.85 833.759 228.036 832.943 228.252C832.391 228.408 831.857 228.63 831.341 228.918C830.825 229.194 830.399 229.566 830.063 230.034C829.739 230.502 829.577 231.084 829.577 231.78C829.577 232.344 829.715 232.89 829.991 233.418C830.279 233.946 830.735 234.384 831.359 234.732C831.995 235.08 832.835 235.254 833.879 235.254ZM860.975 237V227.082C860.975 226.002 860.873 225.012 860.669 224.112C860.465 223.2 860.135 222.408 859.679 221.736C859.235 221.052 858.653 220.524 857.933 220.152C857.225 219.78 856.361 219.594 855.341 219.594C854.405 219.594 853.577 219.756 852.857 220.08C852.149 220.404 851.549 220.872 851.057 221.484C850.577 222.084 850.211 222.816 849.959 223.68C849.707 224.544 849.581 225.528 849.581 226.632L847.709 226.218C847.709 224.226 848.057 222.552 848.753 221.196C849.449 219.84 850.409 218.814 851.633 218.118C852.857 217.422 854.261 217.074 855.845 217.074C857.009 217.074 858.023 217.254 858.887 217.614C859.763 217.974 860.501 218.46 861.101 219.072C861.713 219.684 862.205 220.386 862.577 221.178C862.949 221.958 863.219 222.792 863.387 223.68C863.555 224.556 863.639 225.432 863.639 226.308V237H860.975ZM846.917 237V217.56H849.311V222.348H849.581V237H846.917ZM874.667 237.54C872.855 237.54 871.307 237.09 870.023 236.19C868.739 235.278 867.755 234.048 867.071 232.5C866.387 230.952 866.045 229.206 866.045 227.262C866.045 225.33 866.381 223.59 867.053 222.042C867.737 220.494 868.715 219.27 869.987 218.37C871.259 217.47 872.783 217.02 874.559 217.02C876.383 217.02 877.919 217.464 879.167 218.352C880.415 219.24 881.357 220.458 881.993 222.006C882.641 223.542 882.965 225.294 882.965 227.262C882.965 229.194 882.647 230.94 882.011 232.5C881.375 234.048 880.439 235.278 879.203 236.19C877.967 237.09 876.455 237.54 874.667 237.54ZM874.937 235.074C876.317 235.074 877.457 234.738 878.357 234.066C879.257 233.394 879.929 232.47 880.373 231.294C880.817 230.106 881.039 228.762 881.039 227.262C881.039 225.738 880.817 224.394 880.373 223.23C879.929 222.054 879.257 221.136 878.357 220.476C877.469 219.816 876.347 219.486 874.991 219.486C873.599 219.486 872.447 219.828 871.535 220.512C870.623 221.196 869.945 222.126 869.501 223.302C869.069 224.478 868.853 225.798 868.853 227.262C868.853 228.738 869.075 230.07 869.519 231.258C869.975 232.434 870.653 233.364 871.553 234.048C872.453 234.732 873.581 235.074 874.937 235.074ZM881.039 237V222.366H880.751V211.08H883.415V237H881.039ZM901.63 237.54C899.698 237.54 898.048 237.102 896.68 236.226C895.312 235.35 894.262 234.138 893.53 232.59C892.798 231.042 892.432 229.266 892.432 227.262C892.432 225.222 892.804 223.434 893.548 221.898C894.292 220.362 895.348 219.168 896.716 218.316C898.096 217.452 899.734 217.02 901.63 217.02C903.574 217.02 905.23 217.458 906.598 218.334C907.978 219.198 909.028 220.404 909.748 221.952C910.48 223.488 910.846 225.258 910.846 227.262C910.846 229.302 910.48 231.096 909.748 232.644C909.016 234.18 907.96 235.38 906.58 236.244C905.2 237.108 903.55 237.54 901.63 237.54ZM901.63 235.002C903.79 235.002 905.398 234.288 906.454 232.86C907.51 231.42 908.038 229.554 908.038 227.262C908.038 224.91 907.504 223.038 906.436 221.646C905.38 220.254 903.778 219.558 901.63 219.558C900.178 219.558 898.978 219.888 898.03 220.548C897.094 221.196 896.392 222.102 895.924 223.266C895.468 224.418 895.24 225.75 895.24 227.262C895.24 229.602 895.78 231.48 896.86 232.896C897.94 234.3 899.53 235.002 901.63 235.002ZM924.32 237C923.228 237.228 922.148 237.318 921.08 237.27C920.024 237.222 919.076 236.994 918.236 236.586C917.408 236.178 916.778 235.542 916.346 234.678C915.998 233.958 915.806 233.232 915.77 232.5C915.746 231.756 915.734 230.91 915.734 229.962V212.16H918.362V229.854C918.362 230.67 918.368 231.354 918.38 231.906C918.404 232.446 918.53 232.926 918.758 233.346C919.19 234.15 919.874 234.63 920.81 234.786C921.758 234.942 922.928 234.906 924.32 234.678V237ZM911.576 219.828V217.56H924.32V219.828H911.576ZM941.11 237V227.082C941.11 226.002 941.008 225.012 940.804 224.112C940.6 223.2 940.27 222.408 939.814 221.736C939.37 221.052 938.788 220.524 938.068 220.152C937.36 219.78 936.496 219.594 935.476 219.594C934.54 219.594 933.712 219.756 932.992 220.08C932.284 220.404 931.684 220.872 931.192 221.484C930.712 222.084 930.346 222.816 930.094 223.68C929.842 224.544 929.716 225.528 929.716 226.632L927.844 226.218C927.844 224.226 928.192 222.552 928.888 221.196C929.584 219.84 930.544 218.814 931.768 218.118C932.992 217.422 934.396 217.074 935.98 217.074C937.144 217.074 938.158 217.254 939.022 217.614C939.898 217.974 940.636 218.46 941.236 219.072C941.848 219.684 942.34 220.386 942.712 221.178C943.084 221.958 943.354 222.792 943.522 223.68C943.69 224.556 943.774 225.432 943.774 226.308V237H941.11ZM927.052 237V211.08H929.446V225.714H929.716V237H927.052ZM955.591 237.54C953.695 237.54 952.051 237.12 950.659 236.28C949.279 235.44 948.205 234.258 947.437 232.734C946.669 231.21 946.285 229.422 946.285 227.37C946.285 225.246 946.663 223.41 947.419 221.862C948.175 220.314 949.237 219.12 950.605 218.28C951.985 217.44 953.611 217.02 955.483 217.02C957.403 217.02 959.041 217.464 960.397 218.352C961.753 219.228 962.779 220.488 963.475 222.132C964.171 223.776 964.489 225.738 964.429 228.018H961.729V227.082C961.681 224.562 961.135 222.66 960.091 221.376C959.059 220.092 957.547 219.45 955.555 219.45C953.467 219.45 951.865 220.128 950.749 221.484C949.645 222.84 949.093 224.772 949.093 227.28C949.093 229.728 949.645 231.63 950.749 232.986C951.865 234.33 953.443 235.002 955.483 235.002C956.875 235.002 958.087 234.684 959.119 234.048C960.163 233.4 960.985 232.47 961.585 231.258L964.051 232.212C963.283 233.904 962.149 235.218 960.649 236.154C959.161 237.078 957.475 237.54 955.591 237.54ZM948.157 228.018V225.804H963.007V228.018H948.157ZM967.344 237V217.56H969.72V222.24L969.252 221.628C969.468 221.052 969.75 220.524 970.098 220.044C970.446 219.552 970.824 219.15 971.232 218.838C971.736 218.394 972.324 218.058 972.996 217.83C973.668 217.59 974.346 217.452 975.03 217.416C975.714 217.368 976.338 217.416 976.902 217.56V220.044C976.194 219.864 975.42 219.822 974.58 219.918C973.74 220.014 972.966 220.35 972.258 220.926C971.61 221.43 971.124 222.036 970.8 222.744C970.476 223.44 970.26 224.184 970.152 224.976C970.044 225.756 969.99 226.53 969.99 227.298V237H967.344ZM992.906 237.54C991.094 237.54 989.546 237.09 988.262 236.19C986.978 235.278 985.994 234.048 985.31 232.5C984.626 230.952 984.284 229.206 984.284 227.262C984.284 225.33 984.62 223.59 985.292 222.042C985.976 220.494 986.954 219.27 988.226 218.37C989.498 217.47 991.022 217.02 992.798 217.02C994.622 217.02 996.158 217.464 997.406 218.352C998.654 219.24 999.596 220.458 1000.23 222.006C1000.88 223.542 1001.2 225.294 1001.2 227.262C1001.2 229.194 1000.89 230.94 1000.25 232.5C999.614 234.048 998.678 235.278 997.442 236.19C996.206 237.09 994.694 237.54 992.906 237.54ZM993.176 235.074C994.556 235.074 995.696 234.738 996.596 234.066C997.496 233.394 998.168 232.47 998.612 231.294C999.056 230.106 999.278 228.762 999.278 227.262C999.278 225.738 999.056 224.394 998.612 223.23C998.168 222.054 997.496 221.136 996.596 220.476C995.708 219.816 994.586 219.486 993.23 219.486C991.838 219.486 990.686 219.828 989.774 220.512C988.862 221.196 988.184 222.126 987.74 223.302C987.308 224.478 987.092 225.798 987.092 227.262C987.092 228.738 987.314 230.07 987.758 231.258C988.214 232.434 988.892 233.364 989.792 234.048C990.692 234.732 991.82 235.074 993.176 235.074ZM999.278 237V222.366H998.99V211.08H1001.65V237H999.278ZM1013.74 237.54C1011.81 237.54 1010.16 237.102 1008.79 236.226C1007.42 235.35 1006.37 234.138 1005.64 232.59C1004.91 231.042 1004.54 229.266 1004.54 227.262C1004.54 225.222 1004.92 223.434 1005.66 221.898C1006.4 220.362 1007.46 219.168 1008.83 218.316C1010.21 217.452 1011.85 217.02 1013.74 217.02C1015.69 217.02 1017.34 217.458 1018.71 218.334C1020.09 219.198 1021.14 220.404 1021.86 221.952C1022.59 223.488 1022.96 225.258 1022.96 227.262C1022.96 229.302 1022.59 231.096 1021.86 232.644C1021.13 234.18 1020.07 235.38 1018.69 236.244C1017.31 237.108 1015.66 237.54 1013.74 237.54ZM1013.74 235.002C1015.9 235.002 1017.51 234.288 1018.57 232.86C1019.62 231.42 1020.15 229.554 1020.15 227.262C1020.15 224.91 1019.62 223.038 1018.55 221.646C1017.49 220.254 1015.89 219.558 1013.74 219.558C1012.29 219.558 1011.09 219.888 1010.14 220.548C1009.21 221.196 1008.5 222.102 1008.04 223.266C1007.58 224.418 1007.35 225.75 1007.35 227.262C1007.35 229.602 1007.89 231.48 1008.97 232.896C1010.05 234.3 1011.64 235.002 1013.74 235.002ZM1033.91 237.54C1031.96 237.54 1030.3 237.102 1028.94 236.226C1027.59 235.35 1026.56 234.144 1025.85 232.608C1025.15 231.06 1024.79 229.284 1024.77 227.28C1024.79 225.24 1025.16 223.452 1025.88 221.916C1026.6 220.368 1027.64 219.168 1029 218.316C1030.35 217.452 1032 217.02 1033.93 217.02C1035.9 217.02 1037.61 217.5 1039.06 218.46C1040.52 219.42 1041.53 220.734 1042.07 222.402L1039.47 223.23C1039.02 222.066 1038.29 221.166 1037.3 220.53C1036.31 219.882 1035.18 219.558 1033.91 219.558C1032.48 219.558 1031.3 219.888 1030.37 220.548C1029.43 221.196 1028.73 222.102 1028.28 223.266C1027.82 224.43 1027.59 225.768 1027.58 227.28C1027.6 229.608 1028.14 231.48 1029.2 232.896C1030.25 234.3 1031.82 235.002 1033.91 235.002C1035.23 235.002 1036.35 234.702 1037.28 234.102C1038.21 233.49 1038.92 232.602 1039.4 231.438L1042.07 232.23C1041.35 233.958 1040.29 235.278 1038.9 236.19C1037.51 237.09 1035.84 237.54 1033.91 237.54ZM1052.14 237.486C1050.97 237.486 1049.95 237.306 1049.08 236.946C1048.21 236.586 1047.47 236.1 1046.86 235.488C1046.26 234.876 1045.78 234.18 1045.4 233.4C1045.03 232.608 1044.76 231.774 1044.59 230.898C1044.43 230.01 1044.34 229.128 1044.34 228.252V217.56H1047.01V227.478C1047.01 228.546 1047.11 229.536 1047.31 230.448C1047.52 231.36 1047.84 232.158 1048.28 232.842C1048.74 233.514 1049.32 234.036 1050.03 234.408C1050.75 234.78 1051.62 234.966 1052.64 234.966C1053.58 234.966 1054.4 234.804 1055.11 234.48C1055.83 234.156 1056.43 233.694 1056.91 233.094C1057.4 232.482 1057.77 231.744 1058.02 230.88C1058.27 230.004 1058.4 229.02 1058.4 227.928L1060.27 228.342C1060.27 230.334 1059.92 232.008 1059.23 233.364C1058.53 234.72 1057.57 235.746 1056.35 236.442C1055.12 237.138 1053.72 237.486 1052.14 237.486ZM1058.67 237V232.212H1058.4V217.56H1061.05V237H1058.67ZM1088.18 237L1088.2 224.238C1088.2 222.738 1087.78 221.562 1086.94 220.71C1086.11 219.846 1085.05 219.414 1083.77 219.414C1083.04 219.414 1082.32 219.582 1081.63 219.918C1080.93 220.254 1080.36 220.794 1079.9 221.538C1079.46 222.282 1079.23 223.254 1079.23 224.454L1077.67 224.004C1077.63 222.612 1077.9 221.394 1078.48 220.35C1079.07 219.306 1079.87 218.496 1080.89 217.92C1081.92 217.332 1083.09 217.038 1084.38 217.038C1086.34 217.038 1087.9 217.644 1089.08 218.856C1090.26 220.056 1090.84 221.682 1090.84 223.734L1090.83 237H1088.18ZM1064.98 237V217.56H1067.35V222.348H1067.64V237H1064.98ZM1076.61 237L1076.62 224.418C1076.62 222.87 1076.21 221.652 1075.38 220.764C1074.57 219.864 1073.49 219.414 1072.14 219.414C1070.8 219.414 1069.71 219.876 1068.88 220.8C1068.06 221.712 1067.64 222.93 1067.64 224.454L1066.06 223.59C1066.06 222.342 1066.35 221.226 1066.94 220.242C1067.53 219.246 1068.33 218.466 1069.35 217.902C1070.37 217.326 1071.53 217.038 1072.83 217.038C1074.06 217.038 1075.16 217.302 1076.12 217.83C1077.09 218.358 1077.85 219.126 1078.41 220.134C1078.96 221.142 1079.23 222.366 1079.23 223.806L1079.22 237H1076.61ZM1102.55 237.54C1100.66 237.54 1099.01 237.12 1097.62 236.28C1096.24 235.44 1095.17 234.258 1094.4 232.734C1093.63 231.21 1093.25 229.422 1093.25 227.37C1093.25 225.246 1093.62 223.41 1094.38 221.862C1095.14 220.314 1096.2 219.12 1097.57 218.28C1098.95 217.44 1100.57 217.02 1102.44 217.02C1104.36 217.02 1106 217.464 1107.36 218.352C1108.71 219.228 1109.74 220.488 1110.44 222.132C1111.13 223.776 1111.45 225.738 1111.39 228.018H1108.69V227.082C1108.64 224.562 1108.1 222.66 1107.05 221.376C1106.02 220.092 1104.51 219.45 1102.52 219.45C1100.43 219.45 1098.83 220.128 1097.71 221.484C1096.61 222.84 1096.05 224.772 1096.05 227.28C1096.05 229.728 1096.61 231.63 1097.71 232.986C1098.83 234.33 1100.4 235.002 1102.44 235.002C1103.84 235.002 1105.05 234.684 1106.08 234.048C1107.12 233.4 1107.95 232.47 1108.55 231.258L1111.01 232.212C1110.24 233.904 1109.11 235.218 1107.61 236.154C1106.12 237.078 1104.44 237.54 1102.55 237.54ZM1095.12 228.018V225.804H1109.97V228.018H1095.12ZM1127.82 237V227.082C1127.82 226.002 1127.72 225.012 1127.51 224.112C1127.31 223.2 1126.98 222.408 1126.52 221.736C1126.08 221.052 1125.5 220.524 1124.78 220.152C1124.07 219.78 1123.2 219.594 1122.18 219.594C1121.25 219.594 1120.42 219.756 1119.7 220.08C1118.99 220.404 1118.39 220.872 1117.9 221.484C1117.42 222.084 1117.05 222.816 1116.8 223.68C1116.55 224.544 1116.42 225.528 1116.42 226.632L1114.55 226.218C1114.55 224.226 1114.9 222.552 1115.6 221.196C1116.29 219.84 1117.25 218.814 1118.48 218.118C1119.7 217.422 1121.1 217.074 1122.69 217.074C1123.85 217.074 1124.87 217.254 1125.73 217.614C1126.61 217.974 1127.34 218.46 1127.94 219.072C1128.56 219.684 1129.05 220.386 1129.42 221.178C1129.79 221.958 1130.06 222.792 1130.23 223.68C1130.4 224.556 1130.48 225.432 1130.48 226.308V237H1127.82ZM1113.76 237V217.56H1116.15V222.348H1116.42V237H1113.76ZM1144.66 237C1143.57 237.228 1142.49 237.318 1141.42 237.27C1140.36 237.222 1139.41 236.994 1138.57 236.586C1137.75 236.178 1137.12 235.542 1136.68 234.678C1136.34 233.958 1136.14 233.232 1136.11 232.5C1136.08 231.756 1136.07 230.91 1136.07 229.962V212.16H1138.7V229.854C1138.7 230.67 1138.71 231.354 1138.72 231.906C1138.74 232.446 1138.87 232.926 1139.1 233.346C1139.53 234.15 1140.21 234.63 1141.15 234.786C1142.1 234.942 1143.27 234.906 1144.66 234.678V237ZM1131.91 219.828V217.56H1144.66V219.828H1131.91ZM1152.97 237.54C1151.51 237.54 1150.28 237.276 1149.28 236.748C1148.3 236.22 1147.56 235.518 1147.07 234.642C1146.57 233.766 1146.33 232.812 1146.33 231.78C1146.33 230.724 1146.54 229.824 1146.96 229.08C1147.39 228.324 1147.97 227.706 1148.7 227.226C1149.45 226.746 1150.31 226.38 1151.28 226.128C1152.26 225.888 1153.35 225.678 1154.54 225.498C1155.74 225.306 1156.91 225.144 1158.05 225.012C1159.2 224.868 1160.21 224.73 1161.07 224.598L1160.13 225.174C1160.17 223.254 1159.8 221.832 1159.02 220.908C1158.24 219.984 1156.88 219.522 1154.95 219.522C1153.62 219.522 1152.49 219.822 1151.57 220.422C1150.65 221.022 1150.01 221.97 1149.64 223.266L1147.07 222.51C1147.51 220.77 1148.4 219.42 1149.75 218.46C1151.09 217.5 1152.84 217.02 1154.99 217.02C1156.76 217.02 1158.27 217.356 1159.5 218.028C1160.75 218.688 1161.63 219.648 1162.15 220.908C1162.39 221.472 1162.55 222.102 1162.62 222.798C1162.69 223.494 1162.73 224.202 1162.73 224.922V237H1160.37V232.122L1161.05 232.41C1160.39 234.078 1159.37 235.35 1157.97 236.226C1156.58 237.102 1154.91 237.54 1152.97 237.54ZM1153.28 235.254C1154.51 235.254 1155.59 235.032 1156.52 234.588C1157.44 234.144 1158.18 233.538 1158.75 232.77C1159.31 231.99 1159.68 231.114 1159.85 230.142C1159.99 229.518 1160.07 228.834 1160.08 228.09C1160.09 227.334 1160.1 226.77 1160.1 226.398L1161.11 226.92C1160.21 227.04 1159.23 227.16 1158.17 227.28C1157.13 227.4 1156.1 227.538 1155.08 227.694C1154.07 227.85 1153.16 228.036 1152.34 228.252C1151.79 228.408 1151.25 228.63 1150.74 228.918C1150.22 229.194 1149.8 229.566 1149.46 230.034C1149.14 230.502 1148.97 231.084 1148.97 231.78C1148.97 232.344 1149.11 232.89 1149.39 233.418C1149.68 233.946 1150.13 234.384 1150.76 234.732C1151.39 235.08 1152.23 235.254 1153.28 235.254ZM1176.92 237C1175.82 237.228 1174.74 237.318 1173.68 237.27C1172.62 237.222 1171.67 236.994 1170.83 236.586C1170 236.178 1169.37 235.542 1168.94 234.678C1168.59 233.958 1168.4 233.232 1168.37 232.5C1168.34 231.756 1168.33 230.91 1168.33 229.962V212.16H1170.96V229.854C1170.96 230.67 1170.96 231.354 1170.98 231.906C1171 232.446 1171.13 232.926 1171.35 233.346C1171.79 234.15 1172.47 234.63 1173.41 234.786C1174.35 234.942 1175.52 234.906 1176.92 234.678V237ZM1164.17 219.828V217.56H1176.92V219.828H1164.17ZM1180.03 213.87V210.9H1182.67V213.87H1180.03ZM1180.03 237V217.56H1182.67V237H1180.03ZM1195.11 237.54C1193.17 237.54 1191.52 237.102 1190.16 236.226C1188.79 235.35 1187.74 234.138 1187.01 232.59C1186.27 231.042 1185.91 229.266 1185.91 227.262C1185.91 225.222 1186.28 223.434 1187.02 221.898C1187.77 220.362 1188.82 219.168 1190.19 218.316C1191.57 217.452 1193.21 217.02 1195.11 217.02C1197.05 217.02 1198.71 217.458 1200.07 218.334C1201.45 219.198 1202.5 220.404 1203.22 221.952C1203.96 223.488 1204.32 225.258 1204.32 227.262C1204.32 229.302 1203.96 231.096 1203.22 232.644C1202.49 234.18 1201.44 235.38 1200.06 236.244C1198.68 237.108 1197.03 237.54 1195.11 237.54ZM1195.11 235.002C1197.27 235.002 1198.87 234.288 1199.93 232.86C1200.99 231.42 1201.51 229.554 1201.51 227.262C1201.51 224.91 1200.98 223.038 1199.91 221.646C1198.86 220.254 1197.25 219.558 1195.11 219.558C1193.65 219.558 1192.45 219.888 1191.51 220.548C1190.57 221.196 1189.87 222.102 1189.4 223.266C1188.94 224.418 1188.72 225.75 1188.72 227.262C1188.72 229.602 1189.26 231.48 1190.34 232.896C1191.42 234.3 1193.01 235.002 1195.11 235.002ZM1221.25 237V227.082C1221.25 226.002 1221.15 225.012 1220.95 224.112C1220.74 223.2 1220.41 222.408 1219.96 221.736C1219.51 221.052 1218.93 220.524 1218.21 220.152C1217.5 219.78 1216.64 219.594 1215.62 219.594C1214.68 219.594 1213.85 219.756 1213.13 220.08C1212.43 220.404 1211.83 220.872 1211.33 221.484C1210.85 222.084 1210.49 222.816 1210.24 223.68C1209.98 224.544 1209.86 225.528 1209.86 226.632L1207.99 226.218C1207.99 224.226 1208.33 222.552 1209.03 221.196C1209.73 219.84 1210.69 218.814 1211.91 218.118C1213.13 217.422 1214.54 217.074 1216.12 217.074C1217.29 217.074 1218.3 217.254 1219.16 217.614C1220.04 217.974 1220.78 218.46 1221.38 219.072C1221.99 219.684 1222.48 220.386 1222.85 221.178C1223.23 221.958 1223.5 222.792 1223.66 223.68C1223.83 224.556 1223.92 225.432 1223.92 226.308V237H1221.25ZM1207.19 237V217.56H1209.59V222.348H1209.86V237H1207.19ZM1233.99 213.87V210.9H1236.64V213.87H1233.99ZM1233.99 237V217.56H1236.64V237H1233.99ZM1255 237V227.082C1255 226.002 1254.89 225.012 1254.69 224.112C1254.49 223.2 1254.16 222.408 1253.7 221.736C1253.26 221.052 1252.67 220.524 1251.95 220.152C1251.25 219.78 1250.38 219.594 1249.36 219.594C1248.43 219.594 1247.6 219.756 1246.88 220.08C1246.17 220.404 1245.57 220.872 1245.08 221.484C1244.6 222.084 1244.23 222.816 1243.98 223.68C1243.73 224.544 1243.6 225.528 1243.6 226.632L1241.73 226.218C1241.73 224.226 1242.08 222.552 1242.77 221.196C1243.47 219.84 1244.43 218.814 1245.65 218.118C1246.88 217.422 1248.28 217.074 1249.87 217.074C1251.03 217.074 1252.04 217.254 1252.91 217.614C1253.78 217.974 1254.52 218.46 1255.12 219.072C1255.73 219.684 1256.23 220.386 1256.6 221.178C1256.97 221.958 1257.24 222.792 1257.41 223.68C1257.58 224.556 1257.66 225.432 1257.66 226.308V237H1255ZM1240.94 237V217.56H1243.33V222.348H1243.6V237H1240.94ZM244.638 278.54C242.706 278.54 241.056 278.102 239.688 277.226C238.32 276.35 237.27 275.138 236.538 273.59C235.806 272.042 235.44 270.266 235.44 268.262C235.44 266.222 235.812 264.434 236.556 262.898C237.3 261.362 238.356 260.168 239.724 259.316C241.104 258.452 242.742 258.02 244.638 258.02C246.582 258.02 248.238 258.458 249.606 259.334C250.986 260.198 252.036 261.404 252.756 262.952C253.488 264.488 253.854 266.258 253.854 268.262C253.854 270.302 253.488 272.096 252.756 273.644C252.024 275.18 250.968 276.38 249.588 277.244C248.208 278.108 246.558 278.54 244.638 278.54ZM244.638 276.002C246.798 276.002 248.406 275.288 249.462 273.86C250.518 272.42 251.046 270.554 251.046 268.262C251.046 265.91 250.512 264.038 249.444 262.646C248.388 261.254 246.786 260.558 244.638 260.558C243.186 260.558 241.986 260.888 241.038 261.548C240.102 262.196 239.4 263.102 238.932 264.266C238.476 265.418 238.248 266.75 238.248 268.262C238.248 270.602 238.788 272.48 239.868 273.896C240.948 275.3 242.538 276.002 244.638 276.002ZM270.785 278V268.082C270.785 267.002 270.683 266.012 270.479 265.112C270.275 264.2 269.945 263.408 269.489 262.736C269.045 262.052 268.463 261.524 267.743 261.152C267.035 260.78 266.171 260.594 265.151 260.594C264.215 260.594 263.387 260.756 262.667 261.08C261.959 261.404 261.359 261.872 260.867 262.484C260.387 263.084 260.021 263.816 259.769 264.68C259.517 265.544 259.391 266.528 259.391 267.632L257.519 267.218C257.519 265.226 257.867 263.552 258.563 262.196C259.259 260.84 260.219 259.814 261.443 259.118C262.667 258.422 264.071 258.074 265.655 258.074C266.819 258.074 267.833 258.254 268.697 258.614C269.573 258.974 270.311 259.46 270.911 260.072C271.523 260.684 272.015 261.386 272.387 262.178C272.759 262.958 273.029 263.792 273.197 264.68C273.365 265.556 273.449 266.432 273.449 267.308V278H270.785ZM256.727 278V258.56H259.121V263.348H259.391V278H256.727ZM285.16 278.54C283.264 278.54 281.62 278.12 280.228 277.28C278.848 276.44 277.774 275.258 277.006 273.734C276.238 272.21 275.854 270.422 275.854 268.37C275.854 266.246 276.232 264.41 276.988 262.862C277.744 261.314 278.806 260.12 280.174 259.28C281.554 258.44 283.18 258.02 285.052 258.02C286.972 258.02 288.61 258.464 289.966 259.352C291.322 260.228 292.348 261.488 293.044 263.132C293.74 264.776 294.058 266.738 293.998 269.018H291.298V268.082C291.25 265.562 290.704 263.66 289.66 262.376C288.628 261.092 287.116 260.45 285.124 260.45C283.036 260.45 281.434 261.128 280.318 262.484C279.214 263.84 278.662 265.772 278.662 268.28C278.662 270.728 279.214 272.63 280.318 273.986C281.434 275.33 283.012 276.002 285.052 276.002C286.444 276.002 287.656 275.684 288.688 275.048C289.732 274.4 290.554 273.47 291.154 272.258L293.62 273.212C292.852 274.904 291.718 276.218 290.218 277.154C288.73 278.078 287.044 278.54 285.16 278.54ZM277.726 269.018V266.804H292.576V269.018H277.726ZM311.104 278.54C309.148 278.54 307.492 278.102 306.136 277.226C304.78 276.35 303.748 275.144 303.04 273.608C302.344 272.06 301.984 270.284 301.96 268.28C301.984 266.24 302.356 264.452 303.076 262.916C303.796 261.368 304.834 260.168 306.19 259.316C307.546 258.452 309.19 258.02 311.122 258.02C313.09 258.02 314.8 258.5 316.252 259.46C317.716 260.42 318.718 261.734 319.258 263.402L316.666 264.23C316.21 263.066 315.484 262.166 314.488 261.53C313.504 260.882 312.376 260.558 311.104 260.558C309.676 260.558 308.494 260.888 307.558 261.548C306.622 262.196 305.926 263.102 305.47 264.266C305.014 265.43 304.78 266.768 304.768 268.28C304.792 270.608 305.332 272.48 306.388 273.896C307.444 275.3 309.016 276.002 311.104 276.002C312.424 276.002 313.546 275.702 314.47 275.102C315.406 274.49 316.114 273.602 316.594 272.438L319.258 273.23C318.538 274.958 317.482 276.278 316.09 277.19C314.698 278.09 313.036 278.54 311.104 278.54ZM329.592 278.54C327.696 278.54 326.052 278.12 324.66 277.28C323.28 276.44 322.206 275.258 321.438 273.734C320.67 272.21 320.286 270.422 320.286 268.37C320.286 266.246 320.664 264.41 321.42 262.862C322.176 261.314 323.238 260.12 324.606 259.28C325.986 258.44 327.612 258.02 329.484 258.02C331.404 258.02 333.042 258.464 334.398 259.352C335.754 260.228 336.78 261.488 337.476 263.132C338.172 264.776 338.49 266.738 338.43 269.018H335.73V268.082C335.682 265.562 335.136 263.66 334.092 262.376C333.06 261.092 331.548 260.45 329.556 260.45C327.468 260.45 325.866 261.128 324.75 262.484C323.646 263.84 323.094 265.772 323.094 268.28C323.094 270.728 323.646 272.63 324.75 273.986C325.866 275.33 327.444 276.002 329.484 276.002C330.876 276.002 332.088 275.684 333.12 275.048C334.164 274.4 334.986 273.47 335.586 272.258L338.052 273.212C337.284 274.904 336.15 276.218 334.65 277.154C333.162 278.078 331.476 278.54 329.592 278.54ZM322.158 269.018V266.804H337.008V269.018H322.158ZM354.857 278V268.082C354.857 267.002 354.755 266.012 354.551 265.112C354.347 264.2 354.017 263.408 353.561 262.736C353.117 262.052 352.535 261.524 351.815 261.152C351.107 260.78 350.243 260.594 349.223 260.594C348.287 260.594 347.459 260.756 346.739 261.08C346.031 261.404 345.431 261.872 344.939 262.484C344.459 263.084 344.093 263.816 343.841 264.68C343.589 265.544 343.463 266.528 343.463 267.632L341.591 267.218C341.591 265.226 341.939 263.552 342.635 262.196C343.331 260.84 344.291 259.814 345.515 259.118C346.739 258.422 348.143 258.074 349.727 258.074C350.891 258.074 351.905 258.254 352.769 258.614C353.645 258.974 354.383 259.46 354.983 260.072C355.595 260.684 356.087 261.386 356.459 262.178C356.831 262.958 357.101 263.792 357.269 264.68C357.437 265.556 357.521 266.432 357.521 267.308V278H354.857ZM340.799 278V258.56H343.193V263.348H343.463V278H340.799ZM371.696 278C370.604 278.228 369.524 278.318 368.456 278.27C367.4 278.222 366.452 277.994 365.612 277.586C364.784 277.178 364.154 276.542 363.722 275.678C363.374 274.958 363.182 274.232 363.146 273.5C363.122 272.756 363.11 271.91 363.11 270.962V253.16H365.738V270.854C365.738 271.67 365.744 272.354 365.756 272.906C365.78 273.446 365.906 273.926 366.134 274.346C366.566 275.15 367.25 275.63 368.186 275.786C369.134 275.942 370.304 275.906 371.696 275.678V278ZM358.952 260.828V258.56H371.696V260.828H358.952ZM374.446 278V258.56H376.822V263.24L376.354 262.628C376.57 262.052 376.852 261.524 377.2 261.044C377.548 260.552 377.926 260.15 378.334 259.838C378.838 259.394 379.426 259.058 380.098 258.83C380.77 258.59 381.448 258.452 382.132 258.416C382.816 258.368 383.44 258.416 384.004 258.56V261.044C383.296 260.864 382.522 260.822 381.682 260.918C380.842 261.014 380.068 261.35 379.36 261.926C378.712 262.43 378.226 263.036 377.902 263.744C377.578 264.44 377.362 265.184 377.254 265.976C377.146 266.756 377.092 267.53 377.092 268.298V278H374.446ZM391.163 278.54C389.699 278.54 388.469 278.276 387.473 277.748C386.489 277.22 385.751 276.518 385.259 275.642C384.767 274.766 384.521 273.812 384.521 272.78C384.521 271.724 384.731 270.824 385.151 270.08C385.583 269.324 386.165 268.706 386.897 268.226C387.641 267.746 388.499 267.38 389.471 267.128C390.455 266.888 391.541 266.678 392.729 266.498C393.929 266.306 395.099 266.144 396.239 266.012C397.391 265.868 398.399 265.73 399.263 265.598L398.327 266.174C398.363 264.254 397.991 262.832 397.211 261.908C396.431 260.984 395.075 260.522 393.143 260.522C391.811 260.522 390.683 260.822 389.759 261.422C388.847 262.022 388.205 262.97 387.833 264.266L385.259 263.51C385.703 261.77 386.597 260.42 387.941 259.46C389.285 258.5 391.031 258.02 393.179 258.02C394.955 258.02 396.461 258.356 397.697 259.028C398.945 259.688 399.827 260.648 400.343 261.908C400.583 262.472 400.739 263.102 400.811 263.798C400.883 264.494 400.919 265.202 400.919 265.922V278H398.561V273.122L399.245 273.41C398.585 275.078 397.559 276.35 396.167 277.226C394.775 278.102 393.107 278.54 391.163 278.54ZM391.469 276.254C392.705 276.254 393.785 276.032 394.709 275.588C395.633 275.144 396.377 274.538 396.941 273.77C397.505 272.99 397.871 272.114 398.039 271.142C398.183 270.518 398.261 269.834 398.273 269.09C398.285 268.334 398.291 267.77 398.291 267.398L399.299 267.92C398.399 268.04 397.421 268.16 396.365 268.28C395.321 268.4 394.289 268.538 393.269 268.694C392.261 268.85 391.349 269.036 390.533 269.252C389.981 269.408 389.447 269.63 388.931 269.918C388.415 270.194 387.989 270.566 387.653 271.034C387.329 271.502 387.167 272.084 387.167 272.78C387.167 273.344 387.305 273.89 387.581 274.418C387.869 274.946 388.325 275.384 388.949 275.732C389.585 276.08 390.425 276.254 391.469 276.254ZM404.885 278V251.54H407.531V278H404.885ZM412.207 254.87V251.9H414.853V254.87H412.207ZM412.207 278V258.56H414.853V278H412.207ZM417.369 278V277.442L429.915 261.026H418.305V258.56H434.271V259.172L421.743 275.534H433.587V278H417.369ZM443.929 278.54C442.033 278.54 440.389 278.12 438.997 277.28C437.617 276.44 436.543 275.258 435.775 273.734C435.007 272.21 434.623 270.422 434.623 268.37C434.623 266.246 435.001 264.41 435.757 262.862C436.513 261.314 437.575 260.12 438.943 259.28C440.323 258.44 441.949 258.02 443.821 258.02C445.741 258.02 447.379 258.464 448.735 259.352C450.091 260.228 451.117 261.488 451.813 263.132C452.509 264.776 452.827 266.738 452.767 269.018H450.067V268.082C450.019 265.562 449.473 263.66 448.429 262.376C447.397 261.092 445.885 260.45 443.893 260.45C441.805 260.45 440.203 261.128 439.087 262.484C437.983 263.84 437.431 265.772 437.431 268.28C437.431 270.728 437.983 272.63 439.087 273.986C440.203 275.33 441.781 276.002 443.821 276.002C445.213 276.002 446.425 275.684 447.457 275.048C448.501 274.4 449.323 273.47 449.923 272.258L452.389 273.212C451.621 274.904 450.487 276.218 448.987 277.154C447.499 278.078 445.813 278.54 443.929 278.54ZM436.495 269.018V266.804H451.345V269.018H436.495ZM463.223 278.54C461.411 278.54 459.863 278.09 458.579 277.19C457.295 276.278 456.311 275.048 455.627 273.5C454.943 271.952 454.601 270.206 454.601 268.262C454.601 266.33 454.937 264.59 455.609 263.042C456.293 261.494 457.271 260.27 458.543 259.37C459.815 258.47 461.339 258.02 463.115 258.02C464.939 258.02 466.475 258.464 467.723 259.352C468.971 260.24 469.913 261.458 470.549 263.006C471.197 264.542 471.521 266.294 471.521 268.262C471.521 270.194 471.203 271.94 470.567 273.5C469.931 275.048 468.995 276.278 467.759 277.19C466.523 278.09 465.011 278.54 463.223 278.54ZM463.493 276.074C464.873 276.074 466.013 275.738 466.913 275.066C467.813 274.394 468.485 273.47 468.929 272.294C469.373 271.106 469.595 269.762 469.595 268.262C469.595 266.738 469.373 265.394 468.929 264.23C468.485 263.054 467.813 262.136 466.913 261.476C466.025 260.816 464.903 260.486 463.547 260.486C462.155 260.486 461.003 260.828 460.091 261.512C459.179 262.196 458.501 263.126 458.057 264.302C457.625 265.478 457.409 266.798 457.409 268.262C457.409 269.738 457.631 271.07 458.075 272.258C458.531 273.434 459.209 274.364 460.109 275.048C461.009 275.732 462.137 276.074 463.493 276.074ZM469.595 278V263.366H469.307V252.08H471.971V278H469.595ZM482.428 278V251.54H485.074V278H482.428ZM497.508 278.54C495.576 278.54 493.926 278.102 492.558 277.226C491.19 276.35 490.14 275.138 489.408 273.59C488.676 272.042 488.31 270.266 488.31 268.262C488.31 266.222 488.682 264.434 489.426 262.898C490.17 261.362 491.226 260.168 492.594 259.316C493.974 258.452 495.612 258.02 497.508 258.02C499.452 258.02 501.108 258.458 502.476 259.334C503.856 260.198 504.906 261.404 505.626 262.952C506.358 264.488 506.724 266.258 506.724 268.262C506.724 270.302 506.358 272.096 505.626 273.644C504.894 275.18 503.838 276.38 502.458 277.244C501.078 278.108 499.428 278.54 497.508 278.54ZM497.508 276.002C499.668 276.002 501.276 275.288 502.332 273.86C503.388 272.42 503.916 270.554 503.916 268.262C503.916 265.91 503.382 264.038 502.314 262.646C501.258 261.254 499.656 260.558 497.508 260.558C496.056 260.558 494.856 260.888 493.908 261.548C492.972 262.196 492.27 263.102 491.802 264.266C491.346 265.418 491.118 266.75 491.118 268.262C491.118 270.602 491.658 272.48 492.738 273.896C493.818 275.3 495.408 276.002 497.508 276.002ZM517.679 278.54C515.723 278.54 514.067 278.102 512.711 277.226C511.355 276.35 510.323 275.144 509.615 273.608C508.919 272.06 508.559 270.284 508.535 268.28C508.559 266.24 508.931 264.452 509.651 262.916C510.371 261.368 511.409 260.168 512.765 259.316C514.121 258.452 515.765 258.02 517.697 258.02C519.665 258.02 521.375 258.5 522.827 259.46C524.291 260.42 525.293 261.734 525.833 263.402L523.241 264.23C522.785 263.066 522.059 262.166 521.063 261.53C520.079 260.882 518.951 260.558 517.679 260.558C516.251 260.558 515.069 260.888 514.133 261.548C513.197 262.196 512.501 263.102 512.045 264.266C511.589 265.43 511.355 266.768 511.343 268.28C511.367 270.608 511.907 272.48 512.963 273.896C514.019 275.3 515.591 276.002 517.679 276.002C518.999 276.002 520.121 275.702 521.045 275.102C521.981 274.49 522.689 273.602 523.169 272.438L525.833 273.23C525.113 274.958 524.057 276.278 522.665 277.19C521.273 278.09 519.611 278.54 517.679 278.54ZM533.925 278.54C532.461 278.54 531.231 278.276 530.235 277.748C529.251 277.22 528.513 276.518 528.021 275.642C527.529 274.766 527.283 273.812 527.283 272.78C527.283 271.724 527.493 270.824 527.913 270.08C528.345 269.324 528.927 268.706 529.659 268.226C530.403 267.746 531.261 267.38 532.233 267.128C533.217 266.888 534.303 266.678 535.491 266.498C536.691 266.306 537.861 266.144 539.001 266.012C540.153 265.868 541.161 265.73 542.025 265.598L541.089 266.174C541.125 264.254 540.753 262.832 539.973 261.908C539.193 260.984 537.837 260.522 535.905 260.522C534.573 260.522 533.445 260.822 532.521 261.422C531.609 262.022 530.967 262.97 530.595 264.266L528.021 263.51C528.465 261.77 529.359 260.42 530.703 259.46C532.047 258.5 533.793 258.02 535.941 258.02C537.717 258.02 539.223 258.356 540.459 259.028C541.707 259.688 542.589 260.648 543.105 261.908C543.345 262.472 543.501 263.102 543.573 263.798C543.645 264.494 543.681 265.202 543.681 265.922V278H541.323V273.122L542.007 273.41C541.347 275.078 540.321 276.35 538.929 277.226C537.537 278.102 535.869 278.54 533.925 278.54ZM534.231 276.254C535.467 276.254 536.547 276.032 537.471 275.588C538.395 275.144 539.139 274.538 539.703 273.77C540.267 272.99 540.633 272.114 540.801 271.142C540.945 270.518 541.023 269.834 541.035 269.09C541.047 268.334 541.053 267.77 541.053 267.398L542.061 267.92C541.161 268.04 540.183 268.16 539.127 268.28C538.083 268.4 537.051 268.538 536.031 268.694C535.023 268.85 534.111 269.036 533.295 269.252C532.743 269.408 532.209 269.63 531.693 269.918C531.177 270.194 530.751 270.566 530.415 271.034C530.091 271.502 529.929 272.084 529.929 272.78C529.929 273.344 530.067 273.89 530.343 274.418C530.631 274.946 531.087 275.384 531.711 275.732C532.347 276.08 533.187 276.254 534.231 276.254ZM557.871 278C556.779 278.228 555.699 278.318 554.631 278.27C553.575 278.222 552.627 277.994 551.787 277.586C550.959 277.178 550.329 276.542 549.897 275.678C549.549 274.958 549.357 274.232 549.321 273.5C549.297 272.756 549.285 271.91 549.285 270.962V253.16H551.913V270.854C551.913 271.67 551.919 272.354 551.931 272.906C551.955 273.446 552.081 273.926 552.309 274.346C552.741 275.15 553.425 275.63 554.361 275.786C555.309 275.942 556.479 275.906 557.871 275.678V278ZM545.127 260.828V258.56H557.871V260.828H545.127ZM560.981 254.87V251.9H563.627V254.87H560.981ZM560.981 278V258.56H563.627V278H560.981ZM576.062 278.54C574.13 278.54 572.48 278.102 571.112 277.226C569.744 276.35 568.694 275.138 567.962 273.59C567.23 272.042 566.864 270.266 566.864 268.262C566.864 266.222 567.236 264.434 567.98 262.898C568.724 261.362 569.78 260.168 571.148 259.316C572.528 258.452 574.166 258.02 576.062 258.02C578.006 258.02 579.662 258.458 581.03 259.334C582.41 260.198 583.46 261.404 584.18 262.952C584.912 264.488 585.278 266.258 585.278 268.262C585.278 270.302 584.912 272.096 584.18 273.644C583.448 275.18 582.392 276.38 581.012 277.244C579.632 278.108 577.982 278.54 576.062 278.54ZM576.062 276.002C578.222 276.002 579.83 275.288 580.886 273.86C581.942 272.42 582.47 270.554 582.47 268.262C582.47 265.91 581.936 264.038 580.868 262.646C579.812 261.254 578.21 260.558 576.062 260.558C574.61 260.558 573.41 260.888 572.462 261.548C571.526 262.196 570.824 263.102 570.356 264.266C569.9 265.418 569.672 266.75 569.672 268.262C569.672 270.602 570.212 272.48 571.292 273.896C572.372 275.3 573.962 276.002 576.062 276.002ZM602.208 278V268.082C602.208 267.002 602.106 266.012 601.902 265.112C601.698 264.2 601.368 263.408 600.912 262.736C600.468 262.052 599.886 261.524 599.166 261.152C598.458 260.78 597.594 260.594 596.574 260.594C595.638 260.594 594.81 260.756 594.09 261.08C593.382 261.404 592.782 261.872 592.29 262.484C591.81 263.084 591.444 263.816 591.192 264.68C590.94 265.544 590.814 266.528 590.814 267.632L588.942 267.218C588.942 265.226 589.29 263.552 589.986 262.196C590.682 260.84 591.642 259.814 592.866 259.118C594.09 258.422 595.494 258.074 597.078 258.074C598.242 258.074 599.256 258.254 600.12 258.614C600.996 258.974 601.734 259.46 602.334 260.072C602.946 260.684 603.438 261.386 603.81 262.178C604.182 262.958 604.452 263.792 604.62 264.68C604.788 265.556 604.872 266.432 604.872 267.308V278H602.208ZM588.15 278V258.56H590.544V263.348H590.814V278H588.15ZM608.967 278V274.922H612.045V278H608.967Z" fill="#F7EEE3"/>
</g>
<defs>
<filter id="filter0_b_901_1477" x="-176.859" y="-176.859" width="1986.72" height="1108.72" filterUnits="userSpaceOnUse" color-interpolation-filters="sRGB">
<feFlood flood-opacity="0" result="BackgroundImageFix"/>
<feGaussianBlur in="BackgroundImageFix" stdDeviation="88.4293"/>
<feComposite in2="SourceAlpha" operator="in" result="effect1_backgroundBlur_901_1477"/>
<feBlend mode="normal" in="SourceGraphic" in2="effect1_backgroundBlur_901_1477" result="shape"/>
</filter>
</defs>
</svg>
