<svg width="1633" height="728" viewBox="0 0 1633 728" fill="none" xmlns="http://www.w3.org/2000/svg">
<g filter="url(#filter0_b_901_1477)">
<rect x="1" y="1" width="1631" height="753" rx="18.1084" fill="#08090A" fill-opacity="0.8"/>
<rect x="0.5" y="0.5" width="1632" height="754" rx="18.6084" stroke="white"/>
<rect x="228" y="601" width="1105.07" height="99.3979" rx="23.3878" fill="#1F1F1F" fill-opacity="0.6"/>
<path d="M258.695 630.71C258.695 625.604 262.835 621.464 267.942 621.464H400.613C405.719 621.464 409.859 625.604 409.859 630.71V670.687C409.859 675.794 405.719 679.934 400.613 679.934H267.942C262.835 679.934 258.695 675.794 258.695 670.687V630.71Z" fill="#1F1F1F"/>
<path d="M278.296 659.198V642.189H280.356V649.763H289.425V642.189H291.485V659.198H289.425V651.591H280.356V659.198H278.296ZM300.691 659.464C299.462 659.464 298.402 659.193 297.51 658.65C296.625 658.102 295.941 657.338 295.459 656.358C294.983 655.372 294.745 654.226 294.745 652.919C294.745 651.613 294.983 650.461 295.459 649.464C295.941 648.462 296.611 647.681 297.469 647.122C298.333 646.557 299.34 646.275 300.492 646.275C301.157 646.275 301.813 646.386 302.46 646.607C303.108 646.829 303.698 647.189 304.23 647.687C304.761 648.18 305.185 648.833 305.5 649.647C305.816 650.461 305.974 651.463 305.974 652.654V653.484H296.14V651.79H303.98C303.98 651.07 303.836 650.428 303.548 649.863C303.266 649.298 302.862 648.853 302.336 648.526C301.815 648.199 301.201 648.036 300.492 648.036C299.711 648.036 299.036 648.23 298.466 648.617C297.901 648.999 297.466 649.498 297.162 650.112C296.857 650.727 296.705 651.386 296.705 652.089V653.218C296.705 654.182 296.871 654.999 297.203 655.668C297.541 656.333 298.009 656.84 298.607 657.188C299.205 657.532 299.9 657.703 300.691 657.703C301.206 657.703 301.671 657.631 302.087 657.487C302.508 657.338 302.87 657.116 303.175 656.823C303.479 656.524 303.715 656.153 303.881 655.71L305.774 656.242C305.575 656.884 305.24 657.449 304.769 657.936C304.299 658.418 303.717 658.794 303.025 659.065C302.333 659.331 301.555 659.464 300.691 659.464ZM312.709 659.497C311.901 659.497 311.167 659.345 310.508 659.04C309.849 658.73 309.326 658.285 308.939 657.703C308.551 657.116 308.357 656.408 308.357 655.577C308.357 654.846 308.501 654.254 308.789 653.8C309.077 653.34 309.462 652.98 309.944 652.72C310.425 652.46 310.957 652.266 311.538 652.139C312.125 652.006 312.715 651.901 313.307 651.823C314.082 651.723 314.711 651.649 315.193 651.599C315.68 651.543 316.034 651.452 316.256 651.325C316.483 651.197 316.596 650.976 316.596 650.66V650.594C316.596 649.774 316.372 649.138 315.923 648.684C315.48 648.23 314.808 648.003 313.905 648.003C312.97 648.003 312.236 648.207 311.704 648.617C311.173 649.027 310.799 649.464 310.583 649.929L308.723 649.265C309.055 648.49 309.498 647.886 310.052 647.454C310.611 647.017 311.22 646.713 311.879 646.541C312.543 646.364 313.197 646.275 313.839 646.275C314.249 646.275 314.719 646.325 315.251 646.425C315.788 646.519 316.305 646.715 316.804 647.014C317.308 647.313 317.726 647.765 318.058 648.368C318.39 648.972 318.556 649.78 318.556 650.793V659.198H316.596V657.471H316.497C316.364 657.748 316.142 658.044 315.832 658.359C315.522 658.675 315.11 658.944 314.595 659.165C314.08 659.386 313.451 659.497 312.709 659.497ZM313.008 657.737C313.783 657.737 314.437 657.584 314.968 657.28C315.505 656.975 315.91 656.582 316.181 656.1C316.458 655.619 316.596 655.112 316.596 654.58V652.787C316.513 652.886 316.33 652.978 316.048 653.061C315.771 653.138 315.45 653.207 315.085 653.268C314.725 653.324 314.373 653.373 314.03 653.418C313.692 653.456 313.418 653.49 313.208 653.517C312.698 653.584 312.222 653.692 311.779 653.841C311.342 653.985 310.987 654.204 310.716 654.497C310.45 654.785 310.317 655.178 310.317 655.677C310.317 656.358 310.569 656.873 311.073 657.222C311.583 657.565 312.228 657.737 313.008 657.737ZM326.951 659.464C325.888 659.464 324.949 659.195 324.135 658.658C323.321 658.116 322.685 657.352 322.225 656.366C321.766 655.375 321.536 654.204 321.536 652.853C321.536 651.513 321.766 650.35 322.225 649.365C322.685 648.379 323.324 647.618 324.144 647.081C324.963 646.544 325.91 646.275 326.984 646.275C327.815 646.275 328.471 646.414 328.952 646.69C329.44 646.962 329.811 647.272 330.065 647.621C330.326 647.964 330.528 648.246 330.672 648.468H330.838V642.189H332.798V659.198H330.904V657.238H330.672C330.528 657.471 330.323 657.764 330.057 658.119C329.791 658.467 329.412 658.78 328.919 659.057C328.426 659.328 327.77 659.464 326.951 659.464ZM327.217 657.703C328.003 657.703 328.667 657.498 329.21 657.089C329.753 656.673 330.165 656.1 330.447 655.369C330.73 654.633 330.871 653.783 330.871 652.82C330.871 651.867 330.733 651.034 330.456 650.32C330.179 649.6 329.769 649.041 329.227 648.642C328.684 648.238 328.014 648.036 327.217 648.036C326.386 648.036 325.694 648.249 325.14 648.675C324.592 649.096 324.18 649.669 323.903 650.395C323.632 651.114 323.496 651.923 323.496 652.82C323.496 653.728 323.634 654.553 323.911 655.295C324.194 656.031 324.609 656.618 325.157 657.055C325.711 657.487 326.397 657.703 327.217 657.703ZM342.008 659.464C340.779 659.464 339.719 659.193 338.828 658.65C337.942 658.102 337.258 657.338 336.776 656.358C336.3 655.372 336.062 654.226 336.062 652.919C336.062 651.613 336.3 650.461 336.776 649.464C337.258 648.462 337.928 647.681 338.786 647.122C339.65 646.557 340.657 646.275 341.809 646.275C342.474 646.275 343.13 646.386 343.778 646.607C344.425 646.829 345.015 647.189 345.547 647.687C346.078 648.18 346.502 648.833 346.817 649.647C347.133 650.461 347.291 651.463 347.291 652.654V653.484H337.457V651.79H345.297C345.297 651.07 345.153 650.428 344.866 649.863C344.583 649.298 344.179 648.853 343.653 648.526C343.132 648.199 342.518 648.036 341.809 648.036C341.028 648.036 340.353 648.23 339.783 648.617C339.218 648.999 338.783 649.498 338.479 650.112C338.174 650.727 338.022 651.386 338.022 652.089V653.218C338.022 654.182 338.188 654.999 338.52 655.668C338.858 656.333 339.326 656.84 339.924 657.188C340.522 657.532 341.217 657.703 342.008 657.703C342.523 657.703 342.989 657.631 343.404 657.487C343.825 657.338 344.187 657.116 344.492 656.823C344.796 656.524 345.032 656.153 345.198 655.71L347.091 656.242C346.892 656.884 346.557 657.449 346.086 657.936C345.616 658.418 345.034 658.794 344.342 659.065C343.65 659.331 342.872 659.464 342.008 659.464ZM350.272 659.198V646.441H352.166V648.368H352.299C352.531 647.737 352.952 647.225 353.561 646.832C354.17 646.438 354.857 646.242 355.621 646.242C355.765 646.242 355.945 646.245 356.161 646.25C356.377 646.256 356.54 646.264 356.651 646.275V648.268C356.584 648.252 356.432 648.227 356.194 648.194C355.961 648.155 355.715 648.136 355.455 648.136C354.835 648.136 354.281 648.266 353.794 648.526C353.312 648.781 352.93 649.135 352.648 649.589C352.371 650.037 352.232 650.55 352.232 651.125V659.198H350.272Z" fill="#F5F5F5"/>
<path d="M374.777 647.775L380.624 653.622L386.471 647.775" stroke="#F5F5F5" stroke-width="2.33879" stroke-linecap="round" stroke-linejoin="round"/>
<path d="M526.197 650.698L532.044 656.545L537.891 650.698" stroke="#F5F5F5" stroke-width="2.33879" stroke-linecap="round" stroke-linejoin="round"/>
<circle cx="475.032" cy="650.699" r="21.9261" fill="#FF5E00"/>
<path d="M627.069 662.444H614.996V638.952H626.09C627.398 638.952 628.678 639.327 629.78 640.031C630.882 640.736 631.759 641.741 632.308 642.928C632.857 644.115 633.055 645.435 632.878 646.731C632.701 648.027 632.157 649.245 631.31 650.241C632.417 651.126 633.221 652.332 633.614 653.694C634.007 655.055 633.968 656.504 633.503 657.842C633.038 659.18 632.169 660.341 631.017 661.166C629.865 661.99 628.485 662.437 627.069 662.444ZM618.911 658.529H627.042C627.428 658.529 627.81 658.453 628.166 658.306C628.522 658.158 628.846 657.942 629.119 657.669C629.392 657.396 629.608 657.073 629.755 656.716C629.903 656.36 629.979 655.978 629.979 655.593C629.979 655.207 629.903 654.825 629.755 654.469C629.608 654.112 629.392 653.789 629.119 653.516C628.846 653.243 628.522 653.027 628.166 652.88C627.81 652.732 627.428 652.656 627.042 652.656H618.911V658.529ZM618.911 648.741H626.09C626.475 648.741 626.857 648.665 627.213 648.517C627.57 648.369 627.893 648.153 628.166 647.881C628.439 647.608 628.655 647.284 628.803 646.928C628.95 646.572 629.026 646.19 629.026 645.804C629.026 645.418 628.95 645.037 628.803 644.68C628.655 644.324 628.439 644 628.166 643.728C627.893 643.455 627.57 643.239 627.213 643.091C626.857 642.943 626.475 642.868 626.09 642.868H618.911V648.741Z" fill="white"/>
<path d="M698.524 641.562V638.952H681.557V641.562H688.265L682.562 659.834H675.031V662.444H691.998V659.834H685.29L690.993 641.562H698.524Z" fill="white"/>
<path d="M733.764 663.749H765.087V666.36H733.764V663.749ZM749.425 659.834C747.002 659.834 744.678 658.872 742.965 657.158C741.252 655.445 740.289 653.121 740.289 650.698V636.342H742.9V650.698C742.9 652.429 743.587 654.089 744.811 655.313C746.035 656.536 747.694 657.224 749.425 657.224C751.156 657.224 752.816 656.536 754.04 655.313C755.263 654.089 755.951 652.429 755.951 650.698V636.342H758.561V650.698C758.561 653.121 757.599 655.445 755.885 657.158C754.172 658.872 751.848 659.834 749.425 659.834Z" fill="white"/>
<path d="M827.731 649.393H814.623C814.043 649.237 813.461 649.091 812.876 648.956C809.211 648.089 807.139 647.455 807.139 644.488C807.109 643.976 807.185 643.463 807.362 642.982C807.538 642.5 807.812 642.06 808.166 641.689C809.275 640.777 810.663 640.275 812.098 640.266C815.792 640.175 817.495 641.428 818.888 643.333L820.995 641.793C820.009 640.376 818.664 639.247 817.098 638.52C815.532 637.793 813.801 637.495 812.081 637.656C809.97 637.669 807.933 638.438 806.339 639.824C805.735 640.436 805.263 641.166 804.952 641.969C804.64 642.771 804.497 643.628 804.53 644.488C804.473 645.429 804.65 646.369 805.044 647.225C805.439 648.081 806.04 648.826 806.793 649.393H796.408V652.003H814.226C816.793 652.747 818.328 653.715 818.367 656.386C818.409 656.956 818.331 657.529 818.137 658.067C817.943 658.605 817.638 659.097 817.242 659.509C815.861 660.598 814.145 661.174 812.387 661.139C811.075 661.101 809.788 660.765 808.625 660.157C807.461 659.548 806.452 658.683 805.672 657.627L803.671 659.303C804.685 660.654 805.993 661.756 807.496 662.526C808.999 663.297 810.658 663.715 812.346 663.749H812.477C814.887 663.777 817.227 662.934 819.065 661.375C819.718 660.717 820.225 659.93 820.554 659.064C820.884 658.197 821.028 657.272 820.977 656.347C821.026 654.764 820.492 653.218 819.476 652.003H827.731V649.393Z" fill="white"/>
<path d="M894.292 650.698L885.157 659.834L883.316 657.994L890.599 650.698L883.316 643.403L885.157 641.562L894.292 650.698ZM855.139 650.698L864.275 641.562L866.115 643.403L858.832 650.698L866.115 657.994L864.275 659.834L855.139 650.698Z" fill="white"/>
<path d="M1018.54 641.067H1034.07V643.286H1018.54V641.067ZM1018.54 647.723H1029.63V649.942H1018.54V647.723ZM1018.54 654.38H1034.07V656.598H1018.54V654.38ZM1018.54 661.036H1029.63V663.254H1018.54V661.036ZM1011.88 638.849H1014.1V665.473H1011.88V638.849Z" fill="white"/>
<path d="M1058.47 657.486L1049.6 648.611L1050.84 647.368L1058.47 655.001L1066.1 647.368L1067.35 648.611L1058.47 657.486Z" fill="white"/>
<rect x="1238.79" y="618.565" width="62.8549" height="62.8549" rx="13.8865" fill="#FF5E00"/>
<rect x="1238.79" y="618.565" width="62.8549" height="62.8549" rx="13.8865" stroke="#FF5E00" stroke-width="1.46174" stroke-linecap="round"/>
<path d="M1271.43 637.811L1259.25 652.428H1270.22L1269 662.173L1281.18 647.555H1270.22L1271.43 637.811Z" stroke="#F5F5F5" stroke-width="2.92348" stroke-linecap="round" stroke-linejoin="round"/>
<path d="M1103.24 648.924C1105.18 648.924 1106.76 647.346 1106.76 645.4C1106.76 643.454 1105.18 641.876 1103.24 641.876C1101.29 641.876 1099.71 643.454 1099.71 645.4C1099.71 647.346 1101.29 648.924 1103.24 648.924Z" fill="white"/>
<path d="M1103.24 665.368C1105.18 665.368 1106.76 663.791 1106.76 661.844C1106.76 659.898 1105.18 658.321 1103.24 658.321C1101.29 658.321 1099.71 659.898 1099.71 661.844C1099.71 663.791 1101.29 665.368 1103.24 665.368Z" fill="white"/>
<path d="M1113.81 660.67H1130.25V663.019H1113.81V660.67ZM1113.81 644.225H1130.25V646.574H1113.81V644.225Z" fill="white"/>
<path d="M1170.19 660.669H1186.64V663.019H1170.19V660.669ZM1170.19 644.225H1186.64V646.574H1170.19V644.225ZM1160.79 648.923V639.526H1158.44V640.701H1156.1V643.05H1158.44V648.923H1156.1V651.273H1163.14V648.923H1160.79ZM1163.14 667.717H1156.1V663.019C1156.1 662.396 1156.34 661.798 1156.78 661.357C1157.22 660.917 1157.82 660.669 1158.44 660.669H1160.79V658.32H1156.1V655.971H1160.79C1161.42 655.971 1162.01 656.218 1162.46 656.659C1162.9 657.1 1163.14 657.697 1163.14 658.32V660.669C1163.14 661.292 1162.9 661.89 1162.46 662.331C1162.01 662.771 1161.42 663.019 1160.79 663.019H1158.44V665.368H1163.14V667.717Z" fill="white"/>
<rect x="423.869" y="617.079" width="2.92348" height="67.2401" rx="1.46174" fill="white" fill-opacity="0.6"/>
<rect x="568.58" y="617.079" width="2.92348" height="67.2401" rx="1.46174" fill="white" fill-opacity="0.6"/>
<rect x="980.795" y="617.079" width="2.92348" height="67.2401" rx="1.46174" fill="white" fill-opacity="0.6"/>
<rect x="1204.44" y="617.079" width="2.92348" height="67.2401" rx="1.46174" fill="white" fill-opacity="0.6"/>
<path d="M959.277 642.257C958.768 641.746 958.163 641.34 957.497 641.064C956.831 640.787 956.116 640.645 955.395 640.645C954.673 640.645 953.959 640.787 953.293 641.064C952.626 641.34 952.021 641.746 951.512 642.257L952.809 643.554C953.149 643.214 953.553 642.944 953.998 642.76C954.442 642.576 954.918 642.481 955.399 642.481C955.88 642.481 956.357 642.576 956.801 642.76C957.245 642.944 957.649 643.214 957.989 643.554C958.329 643.894 958.599 644.298 958.783 644.742C958.967 645.187 959.062 645.663 959.062 646.144C959.062 646.625 958.967 647.101 958.783 647.546C958.599 647.99 958.329 648.394 957.989 648.734L950.681 656.043C949.995 656.73 949.064 657.116 948.094 657.117C947.123 657.118 946.192 656.733 945.505 656.047C944.818 655.362 944.432 654.431 944.431 653.461C944.43 652.49 944.815 651.559 945.501 650.872L946.789 649.575L945.501 648.277L944.203 649.575C943.692 650.084 943.287 650.689 943.01 651.355C942.733 652.022 942.591 652.736 942.591 653.457C942.591 654.179 942.733 654.893 943.01 655.559C943.287 656.226 943.692 656.831 944.203 657.34C945.237 658.361 946.633 658.929 948.086 658.921C948.81 658.924 949.528 658.783 950.197 658.507C950.867 658.231 951.475 657.825 951.987 657.313L959.296 650.004C960.32 648.974 960.893 647.579 960.89 646.127C960.886 644.674 960.306 643.282 959.277 642.257Z" fill="white"/>
<path d="M936.383 658.756C936.042 658.417 935.771 658.013 935.586 657.569C935.402 657.124 935.307 656.647 935.307 656.166C935.307 655.685 935.402 655.208 935.586 654.764C935.771 654.319 936.042 653.916 936.383 653.576L943.692 646.267C944.031 645.926 944.435 645.656 944.879 645.471C945.324 645.286 945.8 645.191 946.282 645.191C946.763 645.191 947.24 645.286 947.684 645.471C948.129 645.656 948.532 645.926 948.872 646.267C949.211 646.61 949.478 647.016 949.656 647.464C949.835 647.911 949.923 648.39 949.913 648.871C949.916 649.354 949.823 649.833 949.639 650.28C949.456 650.727 949.186 651.133 948.844 651.475L946.907 653.439L948.205 654.736L950.142 652.8C951.173 651.769 951.752 650.37 951.752 648.912C951.752 647.454 951.173 646.056 950.142 645.025C949.111 643.994 947.712 643.415 946.254 643.415C944.796 643.415 943.398 643.994 942.367 645.025L935.058 652.334C934.546 652.843 934.139 653.449 933.862 654.116C933.584 654.783 933.441 655.498 933.441 656.221C933.441 656.944 933.584 657.659 933.862 658.326C934.139 658.993 934.546 659.599 935.058 660.108C936.099 661.121 937.498 661.68 938.95 661.661C940.415 661.663 941.82 661.085 942.86 660.053L941.563 658.756C941.223 659.097 940.82 659.368 940.375 659.553C939.931 659.737 939.454 659.833 938.973 659.833C938.492 659.833 938.015 659.737 937.571 659.553C937.126 659.368 936.722 659.097 936.383 658.756Z" fill="white"/>
<path d="M235.29 153C234.322 153 233.838 152.645 233.838 151.936C233.838 151.355 234.258 150.968 235.096 150.775L237.322 150.387C238.676 150.129 239.547 149.775 239.934 149.323C240.386 148.872 240.612 147.968 240.612 146.614V89.7188C240.612 88.3641 240.386 87.461 239.934 87.0095C239.547 86.5579 238.676 86.2031 237.322 85.9451L235.096 85.5581C234.258 85.3645 233.838 84.9775 233.838 84.3969C233.838 83.6874 234.322 83.3326 235.29 83.3326H267.801C269.285 83.3326 270.091 84.0744 270.22 85.5581L270.994 101.62C271.123 102.717 270.704 103.265 269.737 103.265C268.962 103.265 268.511 102.846 268.382 102.007L267.801 98.4272C267.092 94.0407 265.64 90.8476 263.447 88.8479C261.254 86.7837 258.222 85.7516 254.352 85.7516C251.771 85.7516 249.965 86.1386 248.933 86.9127C247.965 87.6223 247.482 88.9124 247.482 90.7831V114.102C247.482 115.005 247.933 115.457 248.836 115.457H253.674C256.513 115.457 258.254 113.941 258.899 110.909L259.867 106.071C260.125 105.104 260.673 104.684 261.512 104.813C262.221 104.942 262.576 105.491 262.576 106.458V128.229C262.576 129.197 262.221 129.745 261.512 129.874C260.673 130.003 260.125 129.584 259.867 128.616L258.899 123.875C258.448 121.617 257.803 120.134 256.964 119.424C256.19 118.715 255.061 118.36 253.578 118.36H248.836C247.933 118.36 247.482 118.811 247.482 119.714V144.001C247.482 146.324 248.062 148.001 249.223 149.033C250.449 150.065 252.642 150.581 255.803 150.581C259.028 150.581 261.77 149.775 264.028 148.162C266.35 146.485 267.963 143.388 268.866 138.873L270.027 133.164C270.22 132.326 270.704 131.906 271.478 131.906C272.381 131.906 272.768 132.455 272.639 133.551L271.672 150.775C271.543 152.258 270.736 153 269.253 153H235.29ZM290.455 153.871C287.617 153.871 285.069 152.903 282.811 150.968C280.618 148.968 278.909 146.227 277.683 142.743C276.457 139.196 275.845 135.099 275.845 130.455C275.845 125.036 276.683 120.295 278.36 116.231C280.037 112.103 282.36 108.877 285.327 106.555C288.294 104.233 291.649 103.072 295.39 103.072C296.293 103.072 297.196 103.168 298.099 103.362C299.002 103.491 299.873 103.749 300.712 104.136C301.744 104.652 302.26 104.426 302.26 103.459V91.0734C302.26 89.9123 302.067 89.1059 301.68 88.6544C301.357 88.2028 300.744 87.9448 299.841 87.8803L297.325 87.59C296.616 87.461 296.261 87.074 296.261 86.4289C296.261 85.7838 296.616 85.3968 297.325 85.2678C299.39 84.8807 301.034 84.4292 302.26 83.9131C303.55 83.3971 304.615 82.881 305.453 82.365C306.485 81.7199 307.259 81.3974 307.775 81.3974C308.485 81.3974 308.84 81.9134 308.84 82.9455V143.808C308.84 146.517 309.517 147.872 310.872 147.872C311.71 147.872 312.484 147.323 313.194 146.227C313.904 145.066 314.258 143.13 314.258 140.421C314.258 139.389 314.678 138.873 315.516 138.873C316.29 138.873 316.677 139.421 316.677 140.518C316.677 145.227 315.871 148.646 314.258 150.775C312.646 152.839 310.807 153.871 308.743 153.871C306.872 153.871 305.453 153.258 304.486 152.032C303.518 150.742 302.873 149.226 302.55 147.485C302.486 146.969 302.26 146.711 301.873 146.711C301.486 146.646 301.131 146.872 300.809 147.388C299.002 149.904 297.358 151.613 295.874 152.516C294.39 153.419 292.584 153.871 290.455 153.871ZM292.584 149.42C294.261 149.42 295.809 148.872 297.229 147.775C298.712 146.614 299.906 145.066 300.809 143.13C301.776 141.195 302.26 139.034 302.26 136.648V114.876C302.26 111.974 301.583 109.684 300.228 108.006C298.938 106.329 297.229 105.491 295.1 105.491C291.487 105.491 288.552 107.619 286.295 111.877C284.101 116.07 283.005 121.811 283.005 129.1C283.005 135.744 283.843 140.808 285.521 144.292C287.262 147.71 289.617 149.42 292.584 149.42ZM325.292 94.46C323.937 94.46 322.776 93.9762 321.809 93.0086C320.906 92.041 320.454 90.8154 320.454 89.3317C320.454 87.8481 320.906 86.6547 321.809 85.7516C322.776 84.784 323.937 84.3002 325.292 84.3002C326.647 84.3002 327.776 84.784 328.679 85.7516C329.582 86.6547 330.033 87.8481 330.033 89.3317C330.033 90.8154 329.582 92.041 328.679 93.0086C327.776 93.9762 326.647 94.46 325.292 94.46ZM317.164 153C316.197 153 315.713 152.645 315.713 151.936C315.713 151.355 316.132 150.968 316.971 150.775L318.132 150.581C319.744 150.323 320.777 149.936 321.228 149.42C321.68 148.839 321.905 147.872 321.905 146.517V114.006C321.905 112.844 321.712 112.07 321.325 111.683C321.002 111.232 320.39 110.942 319.486 110.813L317.454 110.522C316.616 110.458 316.197 110.103 316.197 109.458C316.197 108.942 316.713 108.587 317.745 108.393C319.744 108.071 321.357 107.555 322.583 106.845C323.808 106.136 325.002 105.265 326.163 104.233C326.743 103.652 327.227 103.362 327.614 103.362C328.195 103.362 328.485 103.749 328.485 104.523V146.517C328.485 147.872 328.679 148.839 329.066 149.42C329.453 150 330.195 150.355 331.291 150.484L333.71 150.775C334.42 150.904 334.775 151.258 334.775 151.839C334.775 152.613 334.291 153 333.323 153H317.164ZM347.127 153.871C344.869 153.871 342.998 153.097 341.515 151.549C340.095 149.936 339.386 147.323 339.386 143.711V107.523C339.386 106.749 338.999 106.362 338.225 106.362H335.419C334.387 106.362 333.87 105.974 333.87 105.2C333.87 104.684 334.161 104.233 334.741 103.846C336.87 102.362 338.579 100.782 339.87 99.1045C341.16 97.3628 342.289 95.0083 343.256 92.041C343.708 90.6864 344.256 90.009 344.901 90.009C345.611 90.009 345.965 90.5251 345.965 91.5572V102.298C345.965 103.201 346.417 103.652 347.32 103.652H353.61C354.642 103.652 355.158 104.104 355.158 105.007C355.158 105.91 354.642 106.362 353.61 106.362H347.32C346.417 106.362 345.965 106.813 345.965 107.716V143.808C345.965 145.227 346.191 146.356 346.643 147.194C347.094 147.968 347.933 148.356 349.159 148.356C350.513 148.356 351.61 147.678 352.448 146.324C353.352 144.969 353.932 142.776 354.19 139.744C354.319 138.841 354.738 138.389 355.448 138.389C356.222 138.389 356.609 138.873 356.609 139.841C356.416 144.808 355.383 148.388 353.513 150.581C351.707 152.774 349.578 153.871 347.127 153.871ZM374.683 153.871C371.393 153.871 368.426 152.774 365.781 150.581C363.201 148.323 361.136 145.259 359.588 141.389C358.04 137.518 357.266 133.196 357.266 128.423C357.266 123.649 358.04 119.36 359.588 115.554C361.136 111.748 363.233 108.716 365.878 106.458C368.522 104.201 371.458 103.072 374.683 103.072C377.973 103.072 380.908 104.201 383.488 106.458C386.133 108.716 388.229 111.748 389.777 115.554C391.326 119.36 392.1 123.649 392.1 128.423C392.1 133.196 391.326 137.518 389.777 141.389C388.294 145.259 386.23 148.323 383.585 150.581C380.94 152.774 377.973 153.871 374.683 153.871ZM374.683 151.452C381.392 151.452 384.746 143.776 384.746 128.423C384.746 113.135 381.392 105.491 374.683 105.491C367.974 105.491 364.62 113.135 364.62 128.423C364.62 143.776 367.974 151.452 374.683 151.452ZM406.537 109.845C409.181 105.329 412.375 103.072 416.116 103.072C418.245 103.072 419.825 103.717 420.857 105.007C421.889 106.233 422.405 107.619 422.405 109.168C422.405 110.393 422.083 111.393 421.438 112.167C420.857 112.941 419.922 113.328 418.632 113.328C417.6 113.328 416.826 113.103 416.309 112.651C415.858 112.135 415.471 111.554 415.148 110.909C414.89 110.264 414.568 109.716 414.181 109.264C413.794 108.748 413.149 108.49 412.246 108.49C411.084 108.49 409.988 109.2 408.956 110.619C407.924 111.974 407.053 113.812 406.343 116.134C405.698 118.457 405.376 121.101 405.376 124.069V146.517C405.376 147.872 405.569 148.839 405.956 149.42C406.408 150 407.311 150.355 408.665 150.484L411.278 150.775C411.988 150.904 412.342 151.258 412.342 151.839C412.342 152.613 411.858 153 410.891 153H394.538C393.571 153 393.087 152.645 393.087 151.936C393.087 151.355 393.506 150.968 394.345 150.775L395.506 150.581C396.861 150.323 397.731 149.936 398.119 149.42C398.57 148.839 398.796 147.872 398.796 146.517V114.006C398.796 112.844 398.602 112.07 398.215 111.683C397.893 111.232 397.28 110.942 396.377 110.813L394.345 110.522C393.506 110.458 393.087 110.103 393.087 109.458C393.087 108.942 393.603 108.587 394.635 108.393C396.635 108.071 398.151 107.555 399.183 106.845C400.28 106.136 401.408 105.265 402.57 104.233C403.15 103.652 403.634 103.362 404.021 103.362C404.601 103.362 404.892 103.749 404.892 104.523V109.748C404.892 110.2 405.085 110.49 405.472 110.619C405.859 110.683 406.214 110.425 406.537 109.845Z" fill="#F7EEE3"/>
<path d="M426.394 153.871C424.975 153.871 423.75 153.419 422.718 152.516C421.75 151.549 421.266 150.291 421.266 148.743C421.266 147.259 421.75 146.066 422.718 145.162C423.75 144.195 424.975 143.711 426.394 143.711C427.685 143.711 428.846 144.195 429.878 145.162C430.91 146.066 431.426 147.259 431.426 148.743C431.426 150.291 430.91 151.549 429.878 152.516C428.846 153.419 427.685 153.871 426.394 153.871Z" fill="#FF5E00"/>
<path d="M246.051 218.659C243.841 218.659 241.85 218.293 240.079 217.561C238.323 216.814 236.866 215.761 235.71 214.4C234.569 213.038 233.822 211.421 233.471 209.548L236.764 208.999C237.291 211.048 238.403 212.658 240.101 213.829C241.799 214.985 243.826 215.563 246.182 215.563C247.734 215.563 249.124 215.322 250.354 214.839C251.583 214.341 252.549 213.638 253.251 212.731C253.954 211.824 254.305 210.748 254.305 209.504C254.305 208.684 254.159 207.989 253.866 207.418C253.573 206.833 253.186 206.35 252.703 205.969C252.22 205.589 251.693 205.274 251.122 205.025C250.551 204.762 249.995 204.55 249.453 204.389L241.44 201.996C240.474 201.717 239.581 201.366 238.762 200.942C237.942 200.503 237.225 199.983 236.61 199.383C236.01 198.768 235.542 198.051 235.205 197.232C234.869 196.412 234.7 195.475 234.7 194.421C234.7 192.636 235.169 191.092 236.105 189.789C237.042 188.487 238.323 187.484 239.947 186.781C241.572 186.079 243.423 185.735 245.502 185.75C247.609 185.75 249.49 186.123 251.144 186.869C252.812 187.616 254.188 188.684 255.271 190.075C256.354 191.45 257.071 193.082 257.423 194.97L254.042 195.585C253.822 194.209 253.317 193.016 252.527 192.006C251.737 190.997 250.727 190.221 249.497 189.679C248.283 189.123 246.943 188.838 245.48 188.823C244.06 188.823 242.794 189.065 241.682 189.548C240.584 190.016 239.713 190.66 239.069 191.48C238.425 192.299 238.103 193.236 238.103 194.29C238.103 195.358 238.396 196.214 238.981 196.858C239.581 197.502 240.313 198.007 241.177 198.373C242.055 198.739 242.904 199.039 243.723 199.273L249.914 201.095C250.558 201.271 251.312 201.527 252.176 201.864C253.054 202.186 253.903 202.654 254.722 203.269C255.557 203.869 256.245 204.659 256.786 205.64C257.328 206.621 257.598 207.865 257.598 209.372C257.598 210.836 257.306 212.146 256.72 213.302C256.149 214.458 255.337 215.431 254.283 216.222C253.244 217.012 252.022 217.612 250.617 218.022C249.227 218.446 247.704 218.659 246.051 218.659ZM273.722 218C272.39 218.278 271.073 218.388 269.77 218.329C268.482 218.271 267.326 217.993 266.301 217.495C265.291 216.997 264.523 216.222 263.996 215.168C263.572 214.29 263.338 213.404 263.294 212.512C263.264 211.604 263.25 210.572 263.25 209.416V187.704H266.455V209.284C266.455 210.28 266.462 211.114 266.477 211.787C266.506 212.446 266.66 213.031 266.938 213.543C267.465 214.524 268.299 215.109 269.441 215.3C270.597 215.49 272.024 215.446 273.722 215.168V218ZM258.178 197.056V194.29H273.722V197.056H258.178ZM283.86 218.659C282.074 218.659 280.574 218.337 279.359 217.693C278.159 217.049 277.259 216.192 276.659 215.124C276.059 214.056 275.759 212.892 275.759 211.633C275.759 210.345 276.015 209.248 276.527 208.34C277.054 207.418 277.764 206.664 278.657 206.079C279.564 205.494 280.611 205.047 281.796 204.74C282.996 204.447 284.321 204.191 285.77 203.971C287.233 203.737 288.66 203.54 290.051 203.379C291.456 203.203 292.685 203.035 293.739 202.874L292.597 203.576C292.641 201.234 292.188 199.5 291.236 198.373C290.285 197.246 288.631 196.683 286.275 196.683C284.65 196.683 283.274 197.049 282.147 197.78C281.035 198.512 280.252 199.668 279.798 201.249L276.659 200.327C277.2 198.205 278.291 196.558 279.93 195.387C281.569 194.217 283.699 193.631 286.319 193.631C288.485 193.631 290.322 194.041 291.829 194.861C293.351 195.665 294.427 196.836 295.056 198.373C295.349 199.061 295.539 199.829 295.627 200.678C295.715 201.527 295.759 202.391 295.759 203.269V218H292.883V212.05L293.717 212.402C292.912 214.436 291.661 215.988 289.963 217.056C288.265 218.124 286.231 218.659 283.86 218.659ZM284.233 215.87C285.74 215.87 287.058 215.6 288.185 215.058C289.312 214.517 290.219 213.778 290.907 212.841C291.595 211.889 292.041 210.821 292.246 209.636C292.422 208.874 292.517 208.04 292.532 207.133C292.546 206.211 292.554 205.523 292.554 205.069L293.783 205.706C292.685 205.852 291.492 205.998 290.204 206.145C288.931 206.291 287.672 206.46 286.428 206.65C285.199 206.84 284.087 207.067 283.091 207.33C282.418 207.521 281.767 207.791 281.137 208.143C280.508 208.479 279.989 208.933 279.579 209.504C279.184 210.075 278.986 210.784 278.986 211.633C278.986 212.321 279.154 212.987 279.491 213.631C279.842 214.275 280.398 214.809 281.159 215.234C281.935 215.658 282.96 215.87 284.233 215.87ZM300.157 218V194.29H303.055V199.998L302.484 199.251C302.747 198.549 303.091 197.905 303.516 197.319C303.94 196.719 304.401 196.229 304.899 195.848C305.514 195.307 306.231 194.897 307.05 194.619C307.87 194.326 308.697 194.158 309.531 194.114C310.365 194.056 311.126 194.114 311.814 194.29V197.319C310.951 197.1 310.007 197.049 308.982 197.166C307.958 197.283 307.014 197.693 306.15 198.395C305.36 199.01 304.767 199.749 304.372 200.612C303.977 201.461 303.713 202.369 303.582 203.335C303.45 204.286 303.384 205.23 303.384 206.167V218H300.157ZM327.571 218C326.239 218.278 324.922 218.388 323.619 218.329C322.331 218.271 321.175 217.993 320.15 217.495C319.14 216.997 318.372 216.222 317.845 215.168C317.421 214.29 317.187 213.404 317.143 212.512C317.113 211.604 317.099 210.572 317.099 209.416V187.704H320.304V209.284C320.304 210.28 320.311 211.114 320.326 211.787C320.355 212.446 320.509 213.031 320.787 213.543C321.314 214.524 322.148 215.109 323.29 215.3C324.446 215.49 325.873 215.446 327.571 215.168V218ZM312.027 197.056V194.29H327.571V197.056H312.027ZM343.447 218L336.202 194.268L339.43 194.29L345.05 212.709L350.692 194.29H353.634L359.276 212.709L364.94 194.29H368.146L360.901 218H358.091L352.163 199.12L346.257 218H343.447ZM370.783 218V194.29H373.681V199.998L373.111 199.251C373.374 198.549 373.718 197.905 374.142 197.319C374.567 196.719 375.028 196.229 375.526 195.848C376.14 195.307 376.857 194.897 377.677 194.619C378.497 194.326 379.324 194.158 380.158 194.114C380.992 194.056 381.753 194.114 382.441 194.29V197.319C381.577 197.1 380.633 197.049 379.609 197.166C378.584 197.283 377.64 197.693 376.777 198.395C375.987 199.01 375.394 199.749 374.999 200.612C374.603 201.461 374.34 202.369 374.208 203.335C374.077 204.286 374.011 205.23 374.011 206.167V218H370.783ZM385.728 189.789V186.167H388.955V189.789H385.728ZM385.728 218V194.29H388.955V218H385.728ZM407.128 218C405.796 218.278 404.479 218.388 403.177 218.329C401.889 218.271 400.732 217.993 399.708 217.495C398.698 216.997 397.93 216.222 397.403 215.168C396.978 214.29 396.744 213.404 396.7 212.512C396.671 211.604 396.656 210.572 396.656 209.416V187.704H399.861V209.284C399.861 210.28 399.869 211.114 399.883 211.787C399.913 212.446 400.066 213.031 400.344 213.543C400.871 214.524 401.706 215.109 402.847 215.3C404.003 215.49 405.43 215.446 407.128 215.168V218ZM391.585 197.056V194.29H407.128V197.056H391.585ZM410.921 189.789V186.167H414.149V189.789H410.921ZM410.921 218V194.29H414.149V218H410.921ZM436.537 218V205.903C436.537 204.586 436.413 203.379 436.164 202.281C435.915 201.169 435.513 200.203 434.957 199.383C434.415 198.549 433.705 197.905 432.827 197.451C431.964 196.997 430.91 196.771 429.666 196.771C428.524 196.771 427.514 196.968 426.636 197.363C425.773 197.758 425.041 198.329 424.441 199.076C423.855 199.807 423.409 200.7 423.101 201.754C422.794 202.808 422.64 204.008 422.64 205.355L420.357 204.85C420.357 202.42 420.782 200.378 421.631 198.724C422.479 197.071 423.65 195.819 425.143 194.97C426.636 194.121 428.348 193.697 430.28 193.697C431.7 193.697 432.937 193.916 433.991 194.356C435.059 194.795 435.959 195.387 436.691 196.134C437.437 196.88 438.038 197.736 438.491 198.702C438.945 199.654 439.274 200.671 439.479 201.754C439.684 202.822 439.787 203.891 439.787 204.959V218H436.537ZM419.391 218V194.29H422.311V200.129H422.64V218H419.391ZM453.585 229.197C452.37 229.197 451.17 229.014 449.984 228.648C448.813 228.296 447.73 227.733 446.735 226.957C445.74 226.196 444.905 225.201 444.232 223.971L447.152 222.347C447.811 223.664 448.733 224.608 449.918 225.179C451.118 225.764 452.341 226.057 453.585 226.057C455.297 226.057 456.68 225.735 457.734 225.091C458.802 224.462 459.578 223.525 460.061 222.281C460.544 221.037 460.778 219.486 460.764 217.627V211.304H461.137V194.29H464.013V217.671C464.013 218.344 463.991 218.988 463.947 219.603C463.918 220.232 463.852 220.847 463.749 221.447C463.471 223.218 462.893 224.674 462.015 225.816C461.151 226.957 460.01 227.806 458.59 228.362C457.185 228.918 455.517 229.197 453.585 229.197ZM453.365 218.659C451.155 218.659 449.267 218.11 447.701 217.012C446.135 215.9 444.935 214.4 444.1 212.512C443.266 210.623 442.849 208.494 442.849 206.123C442.849 203.767 443.259 201.644 444.079 199.756C444.913 197.868 446.106 196.375 447.657 195.278C449.208 194.18 451.067 193.631 453.233 193.631C455.458 193.631 457.331 194.173 458.854 195.256C460.376 196.339 461.525 197.824 462.3 199.712C463.091 201.586 463.486 203.723 463.486 206.123C463.486 208.479 463.098 210.609 462.322 212.512C461.547 214.4 460.405 215.9 458.897 217.012C457.39 218.11 455.546 218.659 453.365 218.659ZM453.694 215.651C455.377 215.651 456.768 215.241 457.866 214.422C458.963 213.602 459.783 212.475 460.324 211.041C460.866 209.592 461.137 207.952 461.137 206.123C461.137 204.264 460.866 202.625 460.324 201.205C459.783 199.771 458.963 198.651 457.866 197.846C456.783 197.041 455.414 196.639 453.76 196.639C452.062 196.639 450.657 197.056 449.545 197.89C448.433 198.724 447.606 199.859 447.064 201.293C446.537 202.727 446.274 204.337 446.274 206.123C446.274 207.923 446.545 209.548 447.086 210.997C447.642 212.431 448.469 213.565 449.567 214.4C450.665 215.234 452.04 215.651 453.694 215.651ZM500.904 218V205.903C500.904 204.586 500.779 203.379 500.53 202.281C500.282 201.169 499.879 200.203 499.323 199.383C498.781 198.549 498.072 197.905 497.193 197.451C496.33 196.997 495.276 196.771 494.032 196.771C492.89 196.771 491.881 196.968 491.002 197.363C490.139 197.758 489.407 198.329 488.807 199.076C488.222 199.807 487.775 200.7 487.468 201.754C487.16 202.808 487.007 204.008 487.007 205.355L484.724 204.85C484.724 202.42 485.148 200.378 485.997 198.724C486.846 197.071 488.017 195.819 489.51 194.97C491.002 194.121 492.715 193.697 494.647 193.697C496.066 193.697 497.303 193.916 498.357 194.356C499.425 194.795 500.326 195.387 501.057 196.134C501.804 196.88 502.404 197.736 502.858 198.702C503.311 199.654 503.641 200.671 503.845 201.754C504.05 202.822 504.153 203.891 504.153 204.959V218H500.904ZM483.758 218V186.386H486.677V204.235H487.007V218H483.758ZM518.566 218.659C516.253 218.659 514.248 218.146 512.55 217.122C510.867 216.097 509.557 214.656 508.62 212.797C507.684 210.938 507.215 208.757 507.215 206.255C507.215 203.664 507.676 201.425 508.598 199.537C509.521 197.649 510.816 196.192 512.484 195.168C514.167 194.143 516.151 193.631 518.434 193.631C520.776 193.631 522.773 194.173 524.427 195.256C526.081 196.324 527.333 197.861 528.181 199.866C529.03 201.871 529.418 204.264 529.345 207.045H526.052V205.903C525.993 202.83 525.327 200.51 524.054 198.944C522.795 197.378 520.951 196.595 518.522 196.595C515.975 196.595 514.021 197.422 512.66 199.076C511.313 200.73 510.64 203.086 510.64 206.145C510.64 209.131 511.313 211.45 512.66 213.104C514.021 214.743 515.946 215.563 518.434 215.563C520.132 215.563 521.61 215.175 522.869 214.4C524.142 213.609 525.144 212.475 525.876 210.997L528.884 212.16C527.947 214.224 526.564 215.827 524.735 216.968C522.92 218.095 520.863 218.659 518.566 218.659ZM509.499 207.045V204.345H527.611V207.045H509.499ZM532.9 218V194.29H535.798V199.998L535.227 199.251C535.49 198.549 535.834 197.905 536.259 197.319C536.683 196.719 537.144 196.229 537.642 195.848C538.257 195.307 538.974 194.897 539.793 194.619C540.613 194.326 541.44 194.158 542.274 194.114C543.108 194.056 543.87 194.114 544.557 194.29V197.319C543.694 197.1 542.75 197.049 541.725 197.166C540.701 197.283 539.757 197.693 538.893 198.395C538.103 199.01 537.51 199.749 537.115 200.612C536.72 201.461 536.456 202.369 536.325 203.335C536.193 204.286 536.127 205.23 536.127 206.167V218H532.9ZM557.009 218.659C554.697 218.659 552.691 218.146 550.994 217.122C549.311 216.097 548.001 214.656 547.064 212.797C546.127 210.938 545.659 208.757 545.659 206.255C545.659 203.664 546.12 201.425 547.042 199.537C547.964 197.649 549.259 196.192 550.928 195.168C552.611 194.143 554.594 193.631 556.877 193.631C559.219 193.631 561.217 194.173 562.871 195.256C564.525 196.324 565.776 197.861 566.625 199.866C567.474 201.871 567.862 204.264 567.788 207.045H564.495V205.903C564.437 202.83 563.771 200.51 562.498 198.944C561.239 197.378 559.395 196.595 556.965 196.595C554.419 196.595 552.465 197.422 551.103 199.076C549.757 200.73 549.084 203.086 549.084 206.145C549.084 209.131 549.757 211.45 551.103 213.104C552.465 214.743 554.389 215.563 556.877 215.563C558.575 215.563 560.053 215.175 561.312 214.4C562.585 213.609 563.588 212.475 564.32 210.997L567.327 212.16C566.391 214.224 565.008 215.827 563.178 216.968C561.363 218.095 559.307 218.659 557.009 218.659ZM547.942 207.045V204.345H566.054V207.045H547.942ZM596.19 218.659C593.834 218.659 591.822 218.124 590.153 217.056C588.485 215.988 587.204 214.509 586.311 212.621C585.418 210.733 584.972 208.567 584.972 206.123C584.972 203.635 585.426 201.454 586.333 199.581C587.241 197.707 588.528 196.251 590.197 195.212C591.88 194.158 593.878 193.631 596.19 193.631C598.561 193.631 600.581 194.165 602.25 195.234C603.933 196.288 605.213 197.758 606.092 199.646C606.984 201.52 607.431 203.679 607.431 206.123C607.431 208.611 606.984 210.799 606.092 212.687C605.199 214.561 603.911 216.024 602.228 217.078C600.545 218.132 598.532 218.659 596.19 218.659ZM596.19 215.563C598.825 215.563 600.786 214.692 602.074 212.951C603.362 211.194 604.006 208.918 604.006 206.123C604.006 203.254 603.355 200.971 602.052 199.273C600.764 197.575 598.81 196.727 596.19 196.727C594.419 196.727 592.956 197.129 591.8 197.934C590.658 198.724 589.802 199.829 589.231 201.249C588.675 202.654 588.397 204.279 588.397 206.123C588.397 208.977 589.055 211.267 590.373 212.994C591.69 214.707 593.629 215.563 596.19 215.563ZM610.957 218V194.29H613.854V199.998L613.284 199.251C613.547 198.549 613.891 197.905 614.315 197.319C614.74 196.719 615.201 196.229 615.699 195.848C616.313 195.307 617.03 194.897 617.85 194.619C618.67 194.326 619.497 194.158 620.331 194.114C621.165 194.056 621.926 194.114 622.614 194.29V197.319C621.751 197.1 620.807 197.049 619.782 197.166C618.758 197.283 617.813 197.693 616.95 198.395C616.16 199.01 615.567 199.749 615.172 200.612C614.777 201.461 614.513 202.369 614.381 203.335C614.25 204.286 614.184 205.23 614.184 206.167V218H610.957ZM643.582 218.659C641.401 218.659 639.557 218.11 638.05 217.012C636.542 215.9 635.401 214.4 634.625 212.512C633.849 210.609 633.461 208.479 633.461 206.123C633.461 203.723 633.849 201.586 634.625 199.712C635.415 197.824 636.572 196.339 638.094 195.256C639.616 194.173 641.489 193.631 643.714 193.631C645.88 193.631 647.739 194.18 649.29 195.278C650.842 196.375 652.027 197.868 652.847 199.756C653.681 201.644 654.098 203.767 654.098 206.123C654.098 208.494 653.681 210.623 652.847 212.512C652.013 214.4 650.812 215.9 649.246 217.012C647.68 218.11 645.792 218.659 643.582 218.659ZM632.913 228.538V194.29H635.81V212.138H636.162V228.538H632.913ZM643.253 215.651C644.907 215.651 646.283 215.234 647.38 214.4C648.478 213.565 649.298 212.431 649.839 210.997C650.395 209.548 650.673 207.923 650.673 206.123C650.673 204.337 650.403 202.727 649.861 201.293C649.32 199.859 648.493 198.724 647.38 197.89C646.283 197.056 644.885 196.639 643.187 196.639C641.533 196.639 640.157 197.041 639.06 197.846C637.977 198.651 637.164 199.771 636.623 201.205C636.081 202.625 635.81 204.264 635.81 206.123C635.81 207.952 636.081 209.592 636.623 211.041C637.164 212.475 637.984 213.602 639.082 214.422C640.179 215.241 641.57 215.651 643.253 215.651ZM657.602 218V194.29H660.5V199.998L659.929 199.251C660.192 198.549 660.536 197.905 660.961 197.319C661.385 196.719 661.846 196.229 662.344 195.848C662.959 195.307 663.676 194.897 664.495 194.619C665.315 194.326 666.142 194.158 666.976 194.114C667.81 194.056 668.572 194.114 669.259 194.29V197.319C668.396 197.1 667.452 197.049 666.427 197.166C665.403 197.283 664.459 197.693 663.595 198.395C662.805 199.01 662.212 199.749 661.817 200.612C661.422 201.461 661.158 202.369 661.027 203.335C660.895 204.286 660.829 205.23 660.829 206.167V218H657.602ZM681.711 218.659C679.399 218.659 677.393 218.146 675.696 217.122C674.013 216.097 672.703 214.656 671.766 212.797C670.829 210.938 670.361 208.757 670.361 206.255C670.361 203.664 670.822 201.425 671.744 199.537C672.666 197.649 673.961 196.192 675.63 195.168C677.313 194.143 679.296 193.631 681.579 193.631C683.921 193.631 685.919 194.173 687.573 195.256C689.227 196.324 690.478 197.861 691.327 199.866C692.176 201.871 692.564 204.264 692.491 207.045H689.197V205.903C689.139 202.83 688.473 200.51 687.2 198.944C685.941 197.378 684.097 196.595 681.667 196.595C679.121 196.595 677.167 197.422 675.805 199.076C674.459 200.73 673.786 203.086 673.786 206.145C673.786 209.131 674.459 211.45 675.805 213.104C677.167 214.743 679.091 215.563 681.579 215.563C683.277 215.563 684.755 215.175 686.014 214.4C687.287 213.609 688.29 212.475 689.022 210.997L692.029 212.16C691.093 214.224 689.71 215.827 687.88 216.968C686.065 218.095 684.009 218.659 681.711 218.659ZM672.644 207.045V204.345H690.756V207.045H672.644ZM704.893 218.637C702.112 218.637 699.821 218.037 698.021 216.836C696.236 215.636 695.138 213.968 694.728 211.831L698.021 211.282C698.372 212.629 699.17 213.704 700.414 214.509C701.673 215.3 703.224 215.695 705.068 215.695C706.869 215.695 708.288 215.322 709.327 214.575C710.367 213.814 710.886 212.782 710.886 211.48C710.886 210.748 710.718 210.155 710.381 209.701C710.059 209.233 709.393 208.801 708.383 208.406C707.374 208.011 705.866 207.543 703.861 207.001C701.709 206.416 700.026 205.83 698.812 205.245C697.597 204.659 696.733 203.986 696.221 203.225C695.709 202.449 695.453 201.505 695.453 200.393C695.453 199.046 695.833 197.868 696.594 196.858C697.355 195.834 698.409 195.043 699.756 194.487C701.102 193.916 702.668 193.631 704.454 193.631C706.239 193.631 707.835 193.924 709.24 194.509C710.659 195.08 711.801 195.885 712.664 196.924C713.528 197.963 714.04 199.171 714.201 200.547L710.908 201.139C710.689 199.749 709.993 198.651 708.823 197.846C707.666 197.027 706.195 196.602 704.41 196.573C702.727 196.529 701.358 196.851 700.304 197.539C699.251 198.212 698.724 199.112 698.724 200.239C698.724 200.869 698.914 201.41 699.295 201.864C699.675 202.303 700.363 202.72 701.358 203.115C702.368 203.51 703.802 203.942 705.661 204.41C707.842 204.967 709.554 205.552 710.798 206.167C712.042 206.782 712.928 207.506 713.455 208.34C713.982 209.175 714.245 210.206 714.245 211.436C714.245 213.675 713.411 215.439 711.742 216.727C710.089 218 707.805 218.637 704.893 218.637ZM726.644 218.637C723.864 218.637 721.573 218.037 719.773 216.836C717.987 215.636 716.889 213.968 716.48 211.831L719.773 211.282C720.124 212.629 720.922 213.704 722.166 214.509C723.424 215.3 724.976 215.695 726.82 215.695C728.62 215.695 730.04 215.322 731.079 214.575C732.118 213.814 732.638 212.782 732.638 211.48C732.638 210.748 732.469 210.155 732.133 209.701C731.811 209.233 731.145 208.801 730.135 208.406C729.125 208.011 727.618 207.543 725.613 207.001C723.461 206.416 721.778 205.83 720.563 205.245C719.348 204.659 718.485 203.986 717.973 203.225C717.46 202.449 717.204 201.505 717.204 200.393C717.204 199.046 717.585 197.868 718.346 196.858C719.107 195.834 720.161 195.043 721.507 194.487C722.854 193.916 724.42 193.631 726.205 193.631C727.991 193.631 729.586 193.924 730.991 194.509C732.411 195.08 733.553 195.885 734.416 196.924C735.28 197.963 735.792 199.171 735.953 200.547L732.66 201.139C732.44 199.749 731.745 198.651 730.574 197.846C729.418 197.027 727.947 196.602 726.161 196.573C724.478 196.529 723.11 196.851 722.056 197.539C721.002 198.212 720.475 199.112 720.475 200.239C720.475 200.869 720.666 201.41 721.046 201.864C721.427 202.303 722.115 202.72 723.11 203.115C724.12 203.51 725.554 203.942 727.413 204.41C729.594 204.967 731.306 205.552 732.55 206.167C733.794 206.782 734.68 207.506 735.206 208.34C735.733 209.175 735.997 210.206 735.997 211.436C735.997 213.675 735.163 215.439 733.494 216.727C731.84 218 729.557 218.637 726.644 218.637ZM762.486 186.386H765.801L757.37 218H754.055L762.486 186.386ZM780.022 218V192.533C780.022 191.919 780.051 191.311 780.11 190.711C780.183 190.111 780.322 189.54 780.527 188.999C780.732 188.443 781.054 187.93 781.493 187.462C781.976 186.935 782.503 186.555 783.074 186.32C783.644 186.072 784.237 185.911 784.852 185.837C785.481 185.764 786.096 185.728 786.696 185.728H789.726V188.45H786.916C785.686 188.45 784.764 188.75 784.149 189.35C783.549 189.95 783.249 190.894 783.249 192.182V218H780.022ZM775.917 197.056V194.29H789.726V197.056H775.917ZM800.964 218.659C798.608 218.659 796.596 218.124 794.927 217.056C793.259 215.988 791.978 214.509 791.085 212.621C790.192 210.733 789.746 208.567 789.746 206.123C789.746 203.635 790.2 201.454 791.107 199.581C792.015 197.707 793.302 196.251 794.971 195.212C796.654 194.158 798.652 193.631 800.964 193.631C803.335 193.631 805.355 194.165 807.024 195.234C808.707 196.288 809.988 197.758 810.866 199.646C811.758 201.52 812.205 203.679 812.205 206.123C812.205 208.611 811.758 210.799 810.866 212.687C809.973 214.561 808.685 216.024 807.002 217.078C805.319 218.132 803.306 218.659 800.964 218.659ZM800.964 215.563C803.599 215.563 805.56 214.692 806.848 212.951C808.136 211.194 808.78 208.918 808.78 206.123C808.78 203.254 808.129 200.971 806.826 199.273C805.538 197.575 803.584 196.727 800.964 196.727C799.193 196.727 797.73 197.129 796.574 197.934C795.432 198.724 794.576 199.829 794.005 201.249C793.449 202.654 793.171 204.279 793.171 206.123C793.171 208.977 793.829 211.267 795.147 212.994C796.464 214.707 798.403 215.563 800.964 215.563ZM815.731 218V194.29H818.628V199.998L818.058 199.251C818.321 198.549 818.665 197.905 819.089 197.319C819.514 196.719 819.975 196.229 820.473 195.848C821.087 195.307 821.804 194.897 822.624 194.619C823.444 194.326 824.271 194.158 825.105 194.114C825.939 194.056 826.7 194.114 827.388 194.29V197.319C826.525 197.1 825.581 197.049 824.556 197.166C823.532 197.283 822.587 197.693 821.724 198.395C820.934 199.01 820.341 199.749 819.946 200.612C819.551 201.461 819.287 202.369 819.155 203.335C819.024 204.286 818.958 205.23 818.958 206.167V218H815.731ZM847.544 218.659C845.158 218.659 843.138 218.124 841.485 217.056C839.831 215.988 838.572 214.517 837.709 212.643C836.86 210.755 836.421 208.589 836.391 206.145C836.421 203.657 836.874 201.476 837.752 199.603C838.631 197.715 839.897 196.251 841.55 195.212C843.204 194.158 845.209 193.631 847.566 193.631C849.966 193.631 852.052 194.217 853.823 195.387C855.608 196.558 856.83 198.161 857.489 200.195L854.328 201.205C853.771 199.786 852.886 198.688 851.671 197.912C850.471 197.122 849.095 196.727 847.544 196.727C845.802 196.727 844.361 197.129 843.219 197.934C842.077 198.724 841.228 199.829 840.672 201.249C840.116 202.669 839.831 204.301 839.816 206.145C839.845 208.984 840.504 211.267 841.792 212.994C843.08 214.707 844.997 215.563 847.544 215.563C849.154 215.563 850.522 215.197 851.649 214.465C852.791 213.719 853.654 212.636 854.24 211.216L857.489 212.182C856.611 214.29 855.323 215.9 853.625 217.012C851.927 218.11 849.9 218.659 847.544 218.659ZM888.98 218L889.002 202.435C889.002 200.605 888.49 199.171 887.466 198.132C886.456 197.078 885.168 196.551 883.602 196.551C882.709 196.551 881.838 196.756 880.989 197.166C880.14 197.575 879.438 198.234 878.882 199.142C878.34 200.049 878.069 201.234 878.069 202.698L876.159 202.149C876.115 200.451 876.445 198.966 877.147 197.693C877.864 196.419 878.845 195.431 880.089 194.729C881.348 194.012 882.767 193.653 884.348 193.653C886.734 193.653 888.644 194.392 890.078 195.87C891.512 197.334 892.23 199.317 892.23 201.82L892.208 218H888.98ZM860.682 218V194.29H863.58V200.129H863.931V218H860.682ZM874.864 218L874.886 202.654C874.886 200.766 874.381 199.281 873.371 198.198C872.376 197.1 871.059 196.551 869.419 196.551C867.78 196.551 866.456 197.114 865.446 198.241C864.436 199.354 863.931 200.839 863.931 202.698L861.999 201.644C861.999 200.122 862.357 198.761 863.075 197.561C863.792 196.346 864.772 195.395 866.016 194.707C867.261 194.004 868.673 193.653 870.254 193.653C871.761 193.653 873.1 193.975 874.271 194.619C875.457 195.263 876.386 196.2 877.059 197.429C877.733 198.659 878.069 200.151 878.069 201.908L878.047 218H874.864ZM905.675 218.659C903.465 218.659 901.577 218.11 900.011 217.012C898.445 215.9 897.245 214.4 896.411 212.512C895.576 210.623 895.159 208.494 895.159 206.123C895.159 203.767 895.569 201.644 896.389 199.756C897.223 197.868 898.416 196.375 899.967 195.278C901.519 194.18 903.377 193.631 905.544 193.631C907.768 193.631 909.642 194.173 911.164 195.256C912.686 196.339 913.835 197.824 914.611 199.712C915.401 201.586 915.796 203.723 915.796 206.123C915.796 208.479 915.408 210.609 914.633 212.512C913.857 214.4 912.715 215.9 911.208 217.012C909.7 218.11 907.856 218.659 905.675 218.659ZM906.005 215.651C907.688 215.651 909.078 215.241 910.176 214.422C911.274 213.602 912.093 212.475 912.635 211.041C913.176 209.592 913.447 207.952 913.447 206.123C913.447 204.264 913.176 202.625 912.635 201.205C912.093 199.771 911.274 198.651 910.176 197.846C909.093 197.041 907.724 196.639 906.07 196.639C904.373 196.639 902.968 197.056 901.855 197.89C900.743 198.724 899.916 199.859 899.374 201.293C898.848 202.727 898.584 204.337 898.584 206.123C898.584 207.923 898.855 209.548 899.396 210.997C899.953 212.431 900.78 213.565 901.877 214.4C902.975 215.234 904.351 215.651 906.005 215.651ZM913.447 218V200.151H913.096V186.386H916.345V218H913.447Z" fill="#414141"/>
<g style="mix-blend-mode:hard-light">
<path d="M921.14 219.398L978.119 241.255L952.426 253.408L938.176 278L921.14 219.398Z" fill="url(#paint0_angular_901_1477)"/>
</g>
</g>
<defs>
<filter id="filter0_b_901_1477" x="-176.859" y="-176.859" width="1986.72" height="1108.72" filterUnits="userSpaceOnUse" color-interpolation-filters="sRGB">
<feFlood flood-opacity="0" result="BackgroundImageFix"/>
<feGaussianBlur in="BackgroundImageFix" stdDeviation="88.4293"/>
<feComposite in2="SourceAlpha" operator="in" result="effect1_backgroundBlur_901_1477"/>
<feBlend mode="normal" in="SourceGraphic" in2="effect1_backgroundBlur_901_1477" result="shape"/>
</filter>
<radialGradient id="paint0_angular_901_1477" cx="0" cy="0" r="1" gradientUnits="userSpaceOnUse" gradientTransform="translate(951.98 252.922) rotate(-133.292) scale(18.2221 31.3344)">
<stop stop-color="#D9D9D9"/>
<stop offset="1" stop-color="#737373"/>
</radialGradient>
</defs>
</svg>
