<svg width="782" height="533" viewBox="0 0 782 533" fill="none" xmlns="http://www.w3.org/2000/svg">
<g clip-path="url(#clip0_926_1612)">
<rect width="782" height="533" fill="#0C0C0C"/>
<path d="M24.9914 92.2417V74.1599L20.8435 76.6948V72.6083L24.9914 70.1196H28.7706V92.2417H24.9914Z" fill="white" fill-opacity="0.5"/>
<rect x="127.736" y="55" width="48.6482" height="51.4834" rx="3.84065" fill="#FF5E00"/>
<path d="M143.355 92.211V88.9848L152.818 80.5508C153.555 79.8953 154.067 79.2757 154.354 78.6919C154.641 78.1081 154.784 77.5448 154.784 77.002C154.784 76.2646 154.626 75.6091 154.308 75.0356C153.991 74.4518 153.55 73.9909 152.987 73.653C152.434 73.315 151.794 73.146 151.067 73.146C150.299 73.146 149.617 73.3252 149.023 73.6837C148.44 74.0319 147.984 74.4979 147.656 75.0817C147.328 75.6655 147.175 76.2953 147.195 76.9713H143.385C143.385 75.4965 143.713 74.2111 144.369 73.1153C145.034 72.0194 145.946 71.1694 147.103 70.5651C148.271 69.9608 149.617 69.6587 151.143 69.6587C152.557 69.6587 153.827 69.9762 154.953 70.6112C156.08 71.2359 156.966 72.1065 157.611 73.2228C158.256 74.3289 158.579 75.604 158.579 77.0481C158.579 78.103 158.436 78.9889 158.149 79.7058C157.862 80.4227 157.432 81.0833 156.858 81.6876C156.295 82.2919 155.593 82.9627 154.754 83.7001L148.04 89.6454L147.702 88.7237H158.579V92.211H143.355Z" fill="white"/>
<path d="M279.599 92.6565C278.493 92.6565 277.449 92.4414 276.465 92.0113C275.482 91.5811 274.627 90.9717 273.9 90.1831C273.183 89.3945 272.666 88.4625 272.348 87.3871L275.928 86.4193C276.184 87.3001 276.65 87.9811 277.326 88.4625C278.012 88.9336 278.765 89.1641 279.584 89.1538C280.311 89.1538 280.961 88.9848 281.535 88.6469C282.109 88.3089 282.559 87.8531 282.887 87.2796C283.215 86.6958 283.378 86.0455 283.378 85.3285C283.378 84.2327 283.025 83.316 282.318 82.5786C281.612 81.8412 280.7 81.4725 279.584 81.4725C279.246 81.4725 278.913 81.5186 278.585 81.6108C278.268 81.703 277.961 81.831 277.664 81.9949L275.974 79.076L283.409 72.7159L283.732 73.6069H273.208V70.1196H286.774V73.6222L280.798 79.3679L280.767 78.2771C282.109 78.3693 283.25 78.7431 284.193 79.3986C285.145 80.054 285.872 80.899 286.374 81.9334C286.886 82.9678 287.142 84.0995 287.142 85.3285C287.142 86.7214 286.799 87.9709 286.113 89.077C285.437 90.1831 284.526 91.0588 283.378 91.704C282.242 92.339 280.982 92.6565 279.599 92.6565Z" fill="white" fill-opacity="0.5"/>
<path d="M395.193 92.2417V88.5854H385.392V85.1288L392.474 70.1196H396.699L389.616 85.1288H395.193V79.3679H398.942V85.1288H401.015V88.5854H398.942V92.2417H395.193Z" fill="white" fill-opacity="0.5"/>
<path d="M506.302 92.7026C505.176 92.7026 504.126 92.4721 503.153 92.0113C502.18 91.5401 501.34 90.8949 500.634 90.0756C499.937 89.2562 499.435 88.3038 499.128 87.2181L502.692 86.2657C502.836 86.8597 503.097 87.3718 503.476 87.8019C503.865 88.2321 504.315 88.5649 504.828 88.8005C505.35 89.036 505.888 89.1538 506.441 89.1538C507.158 89.1538 507.813 88.9797 508.407 88.6315C509.001 88.2833 509.472 87.8173 509.82 87.2335C510.169 86.6395 510.343 85.984 510.343 85.2671C510.343 84.5502 510.164 83.8998 509.805 83.316C509.457 82.722 508.986 82.256 508.392 81.918C507.798 81.5698 507.147 81.3957 506.441 81.3957C505.591 81.3957 504.884 81.5493 504.321 81.8566C503.768 82.1638 503.343 82.4916 503.046 82.8398L499.881 81.8259L500.557 70.1196H512.57V73.5915H502.539L503.921 72.2857L503.43 80.4279L502.754 79.5983C503.327 79.076 503.993 78.6868 504.751 78.4307C505.509 78.1747 506.241 78.0467 506.948 78.0467C508.33 78.0467 509.554 78.3642 510.619 78.9991C511.695 79.6239 512.534 80.4791 513.139 81.5647C513.753 82.6503 514.06 83.8845 514.06 85.2671C514.06 86.6497 513.702 87.9043 512.985 89.0309C512.268 90.1473 511.321 91.0383 510.143 91.704C508.975 92.3697 507.695 92.7026 506.302 92.7026Z" fill="white" fill-opacity="0.5"/>
<path d="M621.129 92.7026C619.685 92.7026 618.385 92.3646 617.227 91.6886C616.08 91.0025 615.169 90.0551 614.493 88.8466C613.817 87.638 613.479 86.2503 613.479 84.6833V77.9545C613.479 76.2749 613.812 74.8154 614.477 73.5762C615.153 72.3369 616.096 71.3793 617.304 70.7034C618.523 70.0274 619.936 69.6894 621.544 69.6894C622.661 69.6894 623.721 69.8789 624.724 70.2578C625.728 70.6265 626.619 71.2206 627.397 72.0399L624.724 74.6362C624.335 74.1753 623.859 73.8117 623.296 73.5454C622.743 73.2791 622.159 73.146 621.544 73.146C620.684 73.146 619.931 73.3508 619.286 73.7605C618.641 74.1599 618.139 74.6874 617.78 75.3429C617.432 75.9983 617.258 76.6999 617.258 77.4475V81.1192L616.582 80.3818C617.217 79.6444 617.98 79.0708 618.871 78.6612C619.762 78.2413 620.694 78.0313 621.667 78.0313C623.06 78.0313 624.289 78.3488 625.354 78.9838C626.419 79.6085 627.259 80.4688 627.874 81.5647C628.488 82.6503 628.795 83.8896 628.795 85.2824C628.795 86.6651 628.442 87.9197 627.735 89.0463C627.039 90.1626 626.112 91.0537 624.955 91.7194C623.797 92.3748 622.522 92.7026 621.129 92.7026ZM621.129 89.1538C621.846 89.1538 622.502 88.9848 623.096 88.6469C623.69 88.2986 624.161 87.8326 624.509 87.2489C624.868 86.6548 625.047 85.9994 625.047 85.2824C625.047 84.5655 624.873 83.9101 624.525 83.316C624.176 82.722 623.705 82.2509 623.111 81.9027C622.527 81.5442 621.877 81.365 621.16 81.365C620.443 81.365 619.788 81.5442 619.194 81.9027C618.6 82.2509 618.129 82.722 617.78 83.316C617.432 83.9101 617.258 84.5655 617.258 85.2824C617.258 85.9789 617.427 86.6241 617.765 87.2181C618.113 87.8019 618.579 88.273 619.163 88.6315C619.757 88.9797 620.413 89.1538 621.129 89.1538Z" fill="white" fill-opacity="0.5"/>
<path d="M729.337 92.2417L736.957 73.6222H727.293V70.1196H740.92V73.6222L733.331 92.2417H729.337Z" fill="white" fill-opacity="0.5"/>
<rect width="3" height="427" transform="translate(152 106)" fill="#FF5E00"/>
<rect x="162" y="175" width="451" height="59" rx="6" fill="url(#paint0_linear_926_1612)"/>
<rect x="403" y="277" width="451" height="59" rx="6" fill="url(#paint1_linear_926_1612)"/>
</g>
<defs>
<linearGradient id="paint0_linear_926_1612" x1="177.5" y1="205" x2="613" y2="234" gradientUnits="userSpaceOnUse">
<stop stop-color="#F7EEE3"/>
<stop offset="1" stop-color="#0C0C0C"/>
</linearGradient>
<linearGradient id="paint1_linear_926_1612" x1="418.5" y1="307" x2="854" y2="336" gradientUnits="userSpaceOnUse">
<stop stop-color="#F7EEE3"/>
<stop offset="1" stop-color="#0C0C0C"/>
</linearGradient>
<clipPath id="clip0_926_1612">
<rect width="782" height="533" fill="white"/>
</clipPath>
</defs>
</svg>
